%
M48
M72
T01C0.02362
T02C0.03200
T03C0.03543
T04C0.03622
T05C0.03650
T06C0.09055
%
T01
X174300Y76800
X226800Y96800
X180550Y113050
X176800Y106800
X246800Y146800
X251800Y151800
X244300Y161800
X248050Y174300
X226800Y176800
X196800Y176800
X275550Y153050
X296800Y153050
X256800Y134300
X261800Y129300
X345550Y128050
X350550Y124300
X404300Y81800
X404300Y75550
X399300Y55550
X346800Y70550
X341800Y66800
X336800Y61800
X211800Y221800
T02
X129300Y29300
X149300Y29300
X159300Y46800
X159300Y56800
X159300Y66800
X159300Y76800
X159300Y86800
X159300Y96800
X159300Y106800
X159300Y116800
X159300Y126800
X159300Y136800
X129300Y136800
X129300Y126800
X129300Y116800
X129300Y106800
X129300Y96800
X129300Y86800
X129300Y76800
X129300Y66800
X129300Y56800
X129300Y46800
X98050Y79300
X88050Y79300
X69300Y79300
X69300Y109300
X50475Y119500
X50475Y129300
X50475Y139100
X26875Y139100
X26875Y129300
X26875Y119500
X91800Y119300
X91800Y109300
X209300Y106800
X209300Y96800
X209300Y86800
X209300Y76800
X209300Y66800
X209300Y56800
X209300Y46800
X239300Y46800
X239300Y56800
X239300Y66800
X239300Y76800
X239300Y86800
X239300Y96800
X239300Y106800
X239300Y116800
X239300Y126800
X239300Y136800
X209300Y136800
X209300Y126800
X209300Y116800
X209300Y29300
X229300Y29300
T03
X226800Y194300
X216800Y194300
X206800Y194300
X196800Y194300
X186800Y194300
X176800Y194300
X166800Y194300
X156800Y194300
X146800Y194300
X136800Y194300
X126800Y194300
X116800Y194300
X106800Y194300
X96800Y194300
X86800Y194300
X76800Y194300
X66800Y194300
X56800Y194300
X46800Y194300
X36800Y194300
X36800Y214300
X46800Y214300
X56800Y214300
X66800Y214300
X76800Y214300
X86800Y214300
X96800Y214300
X106800Y214300
X116800Y214300
X126800Y214300
X136800Y214300
X146800Y214300
X156800Y214300
X166800Y214300
X176800Y214300
X186800Y214300
X196800Y214300
X206800Y214300
X216800Y214300
X226800Y214300
X236800Y214300
X246800Y214300
X256800Y214300
X266800Y214300
X276800Y214300
X276800Y194300
X266800Y194300
X256800Y194300
X246800Y194300
X236800Y194300
T04
X404379Y194881
X414221Y194881
X414221Y187007
X404379Y187007
T05
X404300Y106800
X394300Y106800
X384300Y106800
X374300Y106800
X364300Y106800
X354300Y106800
X344300Y106800
X334300Y106800
X324300Y106800
X314300Y106800
X304300Y106800
X294300Y106800
X284300Y106800
X274300Y106800
X274300Y46800
X284300Y46800
X294300Y46800
X304300Y46800
X314300Y46800
X324300Y46800
X334300Y46800
X344300Y46800
X354300Y46800
X364300Y46800
X374300Y46800
X384300Y46800
X394300Y46800
X404300Y46800
X414300Y46800
X424300Y46800
X434300Y46800
X444300Y46800
X454300Y46800
X464300Y46800
X464300Y106800
X454300Y106800
X444300Y106800
X434300Y106800
X424300Y106800
X414300Y106800
T06
X433001Y205550
X385599Y205550
M30
