G75*
%MOIN*%
%OFA0B0*%
%FSLAX25Y25*%
%IPPOS*%
%LPD*%
%AMOC8*
5,1,8,0,0,1.08239X$1,22.5*
%
%ADD10C,0.00600*%
%ADD11C,0.00800*%
%ADD12C,0.06450*%
%ADD13C,0.00500*%
%ADD14C,0.06000*%
%ADD15OC8,0.06000*%
%ADD16C,0.06343*%
%ADD17OC8,0.07000*%
%ADD18C,0.13855*%
%ADD19C,0.06422*%
%ADD20C,0.04762*%
D10*
X0025048Y0006800D02*
X0461052Y0006800D01*
X0461433Y0006805D01*
X0461813Y0006818D01*
X0462193Y0006841D01*
X0462572Y0006874D01*
X0462950Y0006915D01*
X0463327Y0006965D01*
X0463703Y0007025D01*
X0464078Y0007093D01*
X0464450Y0007171D01*
X0464821Y0007258D01*
X0465189Y0007353D01*
X0465555Y0007458D01*
X0465918Y0007571D01*
X0466279Y0007693D01*
X0466636Y0007823D01*
X0466990Y0007963D01*
X0467341Y0008110D01*
X0467688Y0008267D01*
X0468031Y0008431D01*
X0468370Y0008604D01*
X0468705Y0008785D01*
X0469036Y0008974D01*
X0469361Y0009171D01*
X0469682Y0009375D01*
X0469998Y0009588D01*
X0470308Y0009808D01*
X0470614Y0010035D01*
X0470913Y0010270D01*
X0471207Y0010512D01*
X0471495Y0010760D01*
X0471777Y0011016D01*
X0472052Y0011279D01*
X0472321Y0011548D01*
X0472584Y0011823D01*
X0472840Y0012105D01*
X0473088Y0012393D01*
X0473330Y0012687D01*
X0473565Y0012986D01*
X0473792Y0013292D01*
X0474012Y0013602D01*
X0474225Y0013918D01*
X0474429Y0014239D01*
X0474626Y0014564D01*
X0474815Y0014895D01*
X0474996Y0015230D01*
X0475169Y0015569D01*
X0475333Y0015912D01*
X0475490Y0016259D01*
X0475637Y0016610D01*
X0475777Y0016964D01*
X0475907Y0017321D01*
X0476029Y0017682D01*
X0476142Y0018045D01*
X0476247Y0018411D01*
X0476342Y0018779D01*
X0476429Y0019150D01*
X0476507Y0019522D01*
X0476575Y0019897D01*
X0476635Y0020273D01*
X0476685Y0020650D01*
X0476726Y0021028D01*
X0476759Y0021407D01*
X0476782Y0021787D01*
X0476795Y0022167D01*
X0476800Y0022548D01*
X0476800Y0231052D01*
X0476795Y0231433D01*
X0476782Y0231813D01*
X0476759Y0232193D01*
X0476726Y0232572D01*
X0476685Y0232950D01*
X0476635Y0233327D01*
X0476575Y0233703D01*
X0476507Y0234078D01*
X0476429Y0234450D01*
X0476342Y0234821D01*
X0476247Y0235189D01*
X0476142Y0235555D01*
X0476029Y0235918D01*
X0475907Y0236279D01*
X0475777Y0236636D01*
X0475637Y0236990D01*
X0475490Y0237341D01*
X0475333Y0237688D01*
X0475169Y0238031D01*
X0474996Y0238370D01*
X0474815Y0238705D01*
X0474626Y0239036D01*
X0474429Y0239361D01*
X0474225Y0239682D01*
X0474012Y0239998D01*
X0473792Y0240308D01*
X0473565Y0240614D01*
X0473330Y0240913D01*
X0473088Y0241207D01*
X0472840Y0241495D01*
X0472584Y0241777D01*
X0472321Y0242052D01*
X0472052Y0242321D01*
X0471777Y0242584D01*
X0471495Y0242840D01*
X0471207Y0243088D01*
X0470913Y0243330D01*
X0470614Y0243565D01*
X0470308Y0243792D01*
X0469998Y0244012D01*
X0469682Y0244225D01*
X0469361Y0244429D01*
X0469036Y0244626D01*
X0468705Y0244815D01*
X0468370Y0244996D01*
X0468031Y0245169D01*
X0467688Y0245333D01*
X0467341Y0245490D01*
X0466990Y0245637D01*
X0466636Y0245777D01*
X0466279Y0245907D01*
X0465918Y0246029D01*
X0465555Y0246142D01*
X0465189Y0246247D01*
X0464821Y0246342D01*
X0464450Y0246429D01*
X0464078Y0246507D01*
X0463703Y0246575D01*
X0463327Y0246635D01*
X0462950Y0246685D01*
X0462572Y0246726D01*
X0462193Y0246759D01*
X0461813Y0246782D01*
X0461433Y0246795D01*
X0461052Y0246800D01*
X0025048Y0246800D01*
X0024667Y0246795D01*
X0024287Y0246782D01*
X0023907Y0246759D01*
X0023528Y0246726D01*
X0023150Y0246685D01*
X0022773Y0246635D01*
X0022397Y0246575D01*
X0022022Y0246507D01*
X0021650Y0246429D01*
X0021279Y0246342D01*
X0020911Y0246247D01*
X0020545Y0246142D01*
X0020182Y0246029D01*
X0019821Y0245907D01*
X0019464Y0245777D01*
X0019110Y0245637D01*
X0018759Y0245490D01*
X0018412Y0245333D01*
X0018069Y0245169D01*
X0017730Y0244996D01*
X0017395Y0244815D01*
X0017064Y0244626D01*
X0016739Y0244429D01*
X0016418Y0244225D01*
X0016102Y0244012D01*
X0015792Y0243792D01*
X0015486Y0243565D01*
X0015187Y0243330D01*
X0014893Y0243088D01*
X0014605Y0242840D01*
X0014323Y0242584D01*
X0014048Y0242321D01*
X0013779Y0242052D01*
X0013516Y0241777D01*
X0013260Y0241495D01*
X0013012Y0241207D01*
X0012770Y0240913D01*
X0012535Y0240614D01*
X0012308Y0240308D01*
X0012088Y0239998D01*
X0011875Y0239682D01*
X0011671Y0239361D01*
X0011474Y0239036D01*
X0011285Y0238705D01*
X0011104Y0238370D01*
X0010931Y0238031D01*
X0010767Y0237688D01*
X0010610Y0237341D01*
X0010463Y0236990D01*
X0010323Y0236636D01*
X0010193Y0236279D01*
X0010071Y0235918D01*
X0009958Y0235555D01*
X0009853Y0235189D01*
X0009758Y0234821D01*
X0009671Y0234450D01*
X0009593Y0234078D01*
X0009525Y0233703D01*
X0009465Y0233327D01*
X0009415Y0232950D01*
X0009374Y0232572D01*
X0009341Y0232193D01*
X0009318Y0231813D01*
X0009305Y0231433D01*
X0009300Y0231052D01*
X0009300Y0022548D01*
X0009305Y0022167D01*
X0009318Y0021787D01*
X0009341Y0021407D01*
X0009374Y0021028D01*
X0009415Y0020650D01*
X0009465Y0020273D01*
X0009525Y0019897D01*
X0009593Y0019522D01*
X0009671Y0019150D01*
X0009758Y0018779D01*
X0009853Y0018411D01*
X0009958Y0018045D01*
X0010071Y0017682D01*
X0010193Y0017321D01*
X0010323Y0016964D01*
X0010463Y0016610D01*
X0010610Y0016259D01*
X0010767Y0015912D01*
X0010931Y0015569D01*
X0011104Y0015230D01*
X0011285Y0014895D01*
X0011474Y0014564D01*
X0011671Y0014239D01*
X0011875Y0013918D01*
X0012088Y0013602D01*
X0012308Y0013292D01*
X0012535Y0012986D01*
X0012770Y0012687D01*
X0013012Y0012393D01*
X0013260Y0012105D01*
X0013516Y0011823D01*
X0013779Y0011548D01*
X0014048Y0011279D01*
X0014323Y0011016D01*
X0014605Y0010760D01*
X0014893Y0010512D01*
X0015187Y0010270D01*
X0015486Y0010035D01*
X0015792Y0009808D01*
X0016102Y0009588D01*
X0016418Y0009375D01*
X0016739Y0009171D01*
X0017064Y0008974D01*
X0017395Y0008785D01*
X0017730Y0008604D01*
X0018069Y0008431D01*
X0018412Y0008267D01*
X0018759Y0008110D01*
X0019110Y0007963D01*
X0019464Y0007823D01*
X0019821Y0007693D01*
X0020182Y0007571D01*
X0020545Y0007458D01*
X0020911Y0007353D01*
X0021279Y0007258D01*
X0021650Y0007171D01*
X0022022Y0007093D01*
X0022397Y0007025D01*
X0022773Y0006965D01*
X0023150Y0006915D01*
X0023528Y0006874D01*
X0023907Y0006841D01*
X0024287Y0006818D01*
X0024667Y0006805D01*
X0025048Y0006800D01*
X0085850Y0059200D02*
X0089453Y0059200D01*
X0091375Y0059200D02*
X0094978Y0059200D01*
X0096899Y0059200D02*
X0099602Y0059200D01*
X0100503Y0060101D01*
X0100503Y0063704D01*
X0099602Y0064605D01*
X0096899Y0064605D01*
X0096899Y0059200D01*
X0093176Y0061902D02*
X0091375Y0061902D01*
X0091375Y0059200D02*
X0091375Y0064605D01*
X0094978Y0064605D01*
X0085850Y0064605D02*
X0085850Y0059200D01*
X0085178Y0093500D02*
X0081575Y0093500D01*
X0083377Y0093500D02*
X0083377Y0098905D01*
X0081575Y0097103D01*
X0079654Y0096202D02*
X0078753Y0095302D01*
X0076051Y0095302D01*
X0077852Y0095302D02*
X0079654Y0093500D01*
X0079654Y0096202D02*
X0079654Y0098004D01*
X0078753Y0098905D01*
X0076051Y0098905D01*
X0076051Y0093500D01*
X0053303Y0099850D02*
X0053303Y0105255D01*
X0053303Y0102552D02*
X0049700Y0102552D01*
X0047779Y0100751D02*
X0046878Y0099850D01*
X0045076Y0099850D01*
X0044176Y0100751D01*
X0044176Y0104354D01*
X0045076Y0105255D01*
X0046878Y0105255D01*
X0047779Y0104354D01*
X0049700Y0105255D02*
X0049700Y0099850D01*
X0042254Y0105255D02*
X0038651Y0105255D01*
X0040452Y0105255D02*
X0040452Y0099850D01*
X0036769Y0099850D02*
X0034968Y0099850D01*
X0035868Y0099850D02*
X0035868Y0105255D01*
X0034968Y0105255D02*
X0036769Y0105255D01*
X0033046Y0105255D02*
X0033046Y0099850D01*
X0031245Y0101652D01*
X0029443Y0099850D01*
X0029443Y0105255D01*
X0027521Y0104354D02*
X0026621Y0105255D01*
X0024819Y0105255D01*
X0023918Y0104354D01*
X0023918Y0103453D01*
X0024819Y0102552D01*
X0026621Y0102552D01*
X0027521Y0101652D01*
X0027521Y0100751D01*
X0026621Y0099850D01*
X0024819Y0099850D01*
X0023918Y0100751D01*
X0088051Y0134751D02*
X0088951Y0133850D01*
X0090753Y0133850D01*
X0091654Y0134751D01*
X0093575Y0133850D02*
X0097178Y0133850D01*
X0095377Y0133850D02*
X0095377Y0139255D01*
X0093575Y0137453D01*
X0091654Y0138354D02*
X0090753Y0139255D01*
X0088951Y0139255D01*
X0088051Y0138354D01*
X0088051Y0134751D01*
X0135451Y0022255D02*
X0134551Y0021354D01*
X0134551Y0017751D01*
X0135451Y0016850D01*
X0137253Y0016850D01*
X0138154Y0017751D01*
X0140075Y0016850D02*
X0143678Y0020453D01*
X0143678Y0021354D01*
X0142778Y0022255D01*
X0140976Y0022255D01*
X0140075Y0021354D01*
X0138154Y0021354D02*
X0137253Y0022255D01*
X0135451Y0022255D01*
X0140075Y0016850D02*
X0143678Y0016850D01*
X0214551Y0017751D02*
X0215451Y0016850D01*
X0217253Y0016850D01*
X0218154Y0017751D01*
X0220075Y0017751D02*
X0220976Y0016850D01*
X0222778Y0016850D01*
X0223678Y0017751D01*
X0223678Y0018652D01*
X0222778Y0019552D01*
X0221877Y0019552D01*
X0222778Y0019552D02*
X0223678Y0020453D01*
X0223678Y0021354D01*
X0222778Y0022255D01*
X0220976Y0022255D01*
X0220075Y0021354D01*
X0218154Y0021354D02*
X0217253Y0022255D01*
X0215451Y0022255D01*
X0214551Y0021354D01*
X0214551Y0017751D01*
D11*
X0101183Y0029700D02*
X0101183Y0035905D01*
X0099114Y0033837D01*
X0097046Y0035905D01*
X0097046Y0029700D01*
X0094737Y0029700D02*
X0090600Y0029700D01*
X0090600Y0035905D01*
X0094737Y0035905D01*
X0092669Y0032803D02*
X0090600Y0032803D01*
X0088292Y0035905D02*
X0084155Y0035905D01*
X0086223Y0035905D02*
X0086223Y0029700D01*
X0081846Y0030734D02*
X0081846Y0031768D01*
X0080812Y0032803D01*
X0078744Y0032803D01*
X0077709Y0033837D01*
X0077709Y0034871D01*
X0078744Y0035905D01*
X0080812Y0035905D01*
X0081846Y0034871D01*
X0075401Y0034871D02*
X0073332Y0032803D01*
X0073332Y0029700D01*
X0073332Y0032803D02*
X0071264Y0034871D01*
X0071264Y0035905D01*
X0068955Y0034871D02*
X0067921Y0035905D01*
X0065853Y0035905D01*
X0064818Y0034871D01*
X0064818Y0033837D01*
X0065853Y0032803D01*
X0067921Y0032803D01*
X0068955Y0031768D01*
X0068955Y0030734D01*
X0067921Y0029700D01*
X0065853Y0029700D01*
X0064818Y0030734D01*
X0056064Y0029700D02*
X0053996Y0031768D01*
X0055030Y0031768D02*
X0051927Y0031768D01*
X0051927Y0029700D02*
X0051927Y0035905D01*
X0055030Y0035905D01*
X0056064Y0034871D01*
X0056064Y0032803D01*
X0055030Y0031768D01*
X0049619Y0029700D02*
X0045482Y0029700D01*
X0045482Y0035905D01*
X0049619Y0035905D01*
X0047550Y0032803D02*
X0045482Y0032803D01*
X0043173Y0035905D02*
X0039036Y0035905D01*
X0041105Y0035905D02*
X0041105Y0029700D01*
X0036728Y0030734D02*
X0036728Y0031768D01*
X0035694Y0032803D01*
X0033625Y0032803D01*
X0032591Y0033837D01*
X0032591Y0034871D01*
X0033625Y0035905D01*
X0035694Y0035905D01*
X0036728Y0034871D01*
X0030282Y0033837D02*
X0030282Y0029700D01*
X0032591Y0030734D02*
X0033625Y0029700D01*
X0035694Y0029700D01*
X0036728Y0030734D01*
X0030282Y0032803D02*
X0026145Y0032803D01*
X0026145Y0033837D02*
X0026145Y0029700D01*
X0023837Y0029700D02*
X0023837Y0035905D01*
X0021768Y0033837D01*
X0019700Y0035905D01*
X0019700Y0029700D01*
X0026145Y0033837D02*
X0028214Y0035905D01*
X0030282Y0033837D01*
X0075401Y0034871D02*
X0075401Y0035905D01*
X0077709Y0030734D02*
X0078744Y0029700D01*
X0080812Y0029700D01*
X0081846Y0030734D01*
D12*
X0274300Y0043975D02*
X0274300Y0049625D01*
X0284300Y0049625D02*
X0284300Y0043975D01*
X0294300Y0043975D02*
X0294300Y0049625D01*
X0304300Y0049625D02*
X0304300Y0043975D01*
X0314300Y0043975D02*
X0314300Y0049625D01*
X0324300Y0049625D02*
X0324300Y0043975D01*
X0334300Y0043975D02*
X0334300Y0049625D01*
X0344300Y0049625D02*
X0344300Y0043975D01*
X0354300Y0043975D02*
X0354300Y0049625D01*
X0364300Y0049625D02*
X0364300Y0043975D01*
X0374300Y0043975D02*
X0374300Y0049625D01*
X0384300Y0049625D02*
X0384300Y0043975D01*
X0394300Y0043975D02*
X0394300Y0049625D01*
X0404300Y0049625D02*
X0404300Y0043975D01*
X0414300Y0043975D02*
X0414300Y0049625D01*
X0424300Y0049625D02*
X0424300Y0043975D01*
X0434300Y0043975D02*
X0434300Y0049625D01*
X0444300Y0049625D02*
X0444300Y0043975D01*
X0454300Y0043975D02*
X0454300Y0049625D01*
X0464300Y0049625D02*
X0464300Y0043975D01*
X0464300Y0103975D02*
X0464300Y0109625D01*
X0454300Y0109625D02*
X0454300Y0103975D01*
X0444300Y0103975D02*
X0444300Y0109625D01*
X0434300Y0109625D02*
X0434300Y0103975D01*
X0424300Y0103975D02*
X0424300Y0109625D01*
X0414300Y0109625D02*
X0414300Y0103975D01*
X0404300Y0103975D02*
X0404300Y0109625D01*
X0394300Y0109625D02*
X0394300Y0103975D01*
X0384300Y0103975D02*
X0384300Y0109625D01*
X0374300Y0109625D02*
X0374300Y0103975D01*
X0364300Y0103975D02*
X0364300Y0109625D01*
X0354300Y0109625D02*
X0354300Y0103975D01*
X0344300Y0103975D02*
X0344300Y0109625D01*
X0334300Y0109625D02*
X0334300Y0103975D01*
X0324300Y0103975D02*
X0324300Y0109625D01*
X0314300Y0109625D02*
X0314300Y0103975D01*
X0304300Y0103975D02*
X0304300Y0109625D01*
X0294300Y0109625D02*
X0294300Y0103975D01*
X0284300Y0103975D02*
X0284300Y0109625D01*
X0274300Y0109625D02*
X0274300Y0103975D01*
D13*
X0267050Y0103695D02*
X0267050Y0100025D01*
X0267050Y0101860D02*
X0261545Y0101860D01*
X0263380Y0100025D01*
X0262463Y0098170D02*
X0261545Y0097253D01*
X0261545Y0095418D01*
X0262463Y0094501D01*
X0266133Y0094501D01*
X0267050Y0095418D01*
X0267050Y0097253D01*
X0266133Y0098170D01*
X0267050Y0092652D02*
X0267050Y0090817D01*
X0267050Y0091735D02*
X0261545Y0091735D01*
X0261545Y0092652D02*
X0261545Y0090817D01*
X0201050Y0056135D02*
X0200133Y0057053D01*
X0199215Y0057053D01*
X0198298Y0056135D01*
X0198298Y0055218D01*
X0198298Y0056135D02*
X0197380Y0057053D01*
X0196463Y0057053D01*
X0195545Y0056135D01*
X0195545Y0054300D01*
X0196463Y0053383D01*
X0196463Y0051528D02*
X0195545Y0050610D01*
X0195545Y0048776D01*
X0196463Y0047858D01*
X0200133Y0047858D01*
X0201050Y0048776D01*
X0201050Y0050610D01*
X0200133Y0051528D01*
X0200133Y0053383D02*
X0201050Y0054300D01*
X0201050Y0056135D01*
X0201050Y0046010D02*
X0201050Y0044175D01*
X0201050Y0045092D02*
X0195545Y0045092D01*
X0195545Y0044175D02*
X0195545Y0046010D01*
X0121175Y0046135D02*
X0121175Y0044300D01*
X0121175Y0045217D02*
X0115670Y0045217D01*
X0115670Y0044300D02*
X0115670Y0046135D01*
X0116588Y0047983D02*
X0115670Y0048901D01*
X0115670Y0050735D01*
X0116588Y0051653D01*
X0116588Y0053508D02*
X0115670Y0054425D01*
X0115670Y0056260D01*
X0116588Y0057178D01*
X0117505Y0057178D01*
X0121175Y0053508D01*
X0121175Y0057178D01*
X0120258Y0051653D02*
X0121175Y0050735D01*
X0121175Y0048901D01*
X0120258Y0047983D01*
X0116588Y0047983D01*
X0385800Y0174217D02*
X0386717Y0173300D01*
X0388552Y0173300D01*
X0389470Y0174217D01*
X0389470Y0178805D01*
X0391325Y0177887D02*
X0391325Y0176970D01*
X0392242Y0176052D01*
X0394077Y0176052D01*
X0394995Y0175135D01*
X0394995Y0174217D01*
X0394077Y0173300D01*
X0392242Y0173300D01*
X0391325Y0174217D01*
X0391325Y0177887D02*
X0392242Y0178805D01*
X0394077Y0178805D01*
X0394995Y0177887D01*
X0396849Y0178805D02*
X0396849Y0173300D01*
X0399602Y0173300D01*
X0400519Y0174217D01*
X0400519Y0175135D01*
X0399602Y0176052D01*
X0396849Y0176052D01*
X0396849Y0178805D02*
X0399602Y0178805D01*
X0400519Y0177887D01*
X0400519Y0176970D01*
X0399602Y0176052D01*
X0385800Y0174217D02*
X0385800Y0178805D01*
X0094570Y0226175D02*
X0092735Y0228010D01*
X0093653Y0228010D02*
X0090900Y0228010D01*
X0090900Y0226175D02*
X0090900Y0231680D01*
X0093653Y0231680D01*
X0094570Y0230762D01*
X0094570Y0228927D01*
X0093653Y0228010D01*
X0089045Y0227092D02*
X0089045Y0230762D01*
X0088128Y0231680D01*
X0086293Y0231680D01*
X0085376Y0230762D01*
X0085376Y0227092D01*
X0086293Y0226175D01*
X0088128Y0226175D01*
X0089045Y0227092D01*
X0083521Y0231680D02*
X0079851Y0231680D01*
X0081686Y0231680D02*
X0081686Y0226175D01*
X0077996Y0227092D02*
X0077078Y0226175D01*
X0075244Y0226175D01*
X0074326Y0227092D01*
X0074326Y0230762D01*
X0075244Y0231680D01*
X0077078Y0231680D01*
X0077996Y0230762D01*
X0072471Y0231680D02*
X0068801Y0231680D01*
X0068801Y0226175D01*
X0072471Y0226175D01*
X0070636Y0228927D02*
X0068801Y0228927D01*
X0066946Y0226175D02*
X0066946Y0231680D01*
X0063277Y0231680D02*
X0066946Y0226175D01*
X0063277Y0226175D02*
X0063277Y0231680D01*
X0061422Y0231680D02*
X0061422Y0226175D01*
X0057752Y0231680D01*
X0057752Y0226175D01*
X0055897Y0227092D02*
X0055897Y0230762D01*
X0054980Y0231680D01*
X0053145Y0231680D01*
X0052227Y0230762D01*
X0052227Y0227092D01*
X0053145Y0226175D01*
X0054980Y0226175D01*
X0055897Y0227092D01*
X0050372Y0227092D02*
X0049455Y0226175D01*
X0047620Y0226175D01*
X0046702Y0227092D01*
X0046702Y0230762D01*
X0047620Y0231680D01*
X0049455Y0231680D01*
X0050372Y0230762D01*
X0039323Y0231680D02*
X0035653Y0231680D01*
X0035653Y0226175D01*
X0039323Y0226175D01*
X0037488Y0228927D02*
X0035653Y0228927D01*
X0033798Y0228927D02*
X0033798Y0227092D01*
X0032881Y0226175D01*
X0031046Y0226175D01*
X0030128Y0227092D01*
X0030128Y0230762D01*
X0031046Y0231680D01*
X0032881Y0231680D01*
X0033798Y0230762D01*
X0033798Y0228927D02*
X0031963Y0228927D01*
X0028273Y0227092D02*
X0028273Y0230762D01*
X0027356Y0231680D01*
X0024604Y0231680D01*
X0024604Y0226175D01*
X0027356Y0226175D01*
X0028273Y0227092D01*
X0022749Y0226175D02*
X0019079Y0226175D01*
X0019079Y0231680D01*
X0022749Y0231680D01*
X0020914Y0228927D02*
X0019079Y0228927D01*
D14*
X0024275Y0139100D02*
X0029475Y0139100D01*
X0029475Y0129300D02*
X0024275Y0129300D01*
X0024275Y0119500D02*
X0029475Y0119500D01*
X0047875Y0119500D02*
X0053075Y0119500D01*
X0053075Y0129300D02*
X0047875Y0129300D01*
X0047875Y0139100D02*
X0053075Y0139100D01*
X0126700Y0136800D02*
X0131900Y0136800D01*
X0131900Y0126800D02*
X0126700Y0126800D01*
X0126700Y0116800D02*
X0131900Y0116800D01*
X0131900Y0106800D02*
X0126700Y0106800D01*
X0126700Y0096800D02*
X0131900Y0096800D01*
X0131900Y0086800D02*
X0126700Y0086800D01*
X0126700Y0076800D02*
X0131900Y0076800D01*
X0131900Y0066800D02*
X0126700Y0066800D01*
X0126700Y0056800D02*
X0131900Y0056800D01*
X0131900Y0046800D02*
X0126700Y0046800D01*
X0156700Y0046800D02*
X0161900Y0046800D01*
X0161900Y0056800D02*
X0156700Y0056800D01*
X0156700Y0066800D02*
X0161900Y0066800D01*
X0161900Y0076800D02*
X0156700Y0076800D01*
X0156700Y0086800D02*
X0161900Y0086800D01*
X0161900Y0096800D02*
X0156700Y0096800D01*
X0156700Y0106800D02*
X0161900Y0106800D01*
X0161900Y0116800D02*
X0156700Y0116800D01*
X0156700Y0126800D02*
X0161900Y0126800D01*
X0161900Y0136800D02*
X0156700Y0136800D01*
X0206700Y0136800D02*
X0211900Y0136800D01*
X0211900Y0126800D02*
X0206700Y0126800D01*
X0206700Y0116800D02*
X0211900Y0116800D01*
X0211900Y0106800D02*
X0206700Y0106800D01*
X0206700Y0096800D02*
X0211900Y0096800D01*
X0211900Y0086800D02*
X0206700Y0086800D01*
X0206700Y0076800D02*
X0211900Y0076800D01*
X0211900Y0066800D02*
X0206700Y0066800D01*
X0206700Y0056800D02*
X0211900Y0056800D01*
X0211900Y0046800D02*
X0206700Y0046800D01*
X0236700Y0046800D02*
X0241900Y0046800D01*
X0241900Y0056800D02*
X0236700Y0056800D01*
X0236700Y0066800D02*
X0241900Y0066800D01*
X0241900Y0076800D02*
X0236700Y0076800D01*
X0236700Y0086800D02*
X0241900Y0086800D01*
X0241900Y0096800D02*
X0236700Y0096800D01*
X0236700Y0106800D02*
X0241900Y0106800D01*
X0241900Y0116800D02*
X0236700Y0116800D01*
X0236700Y0126800D02*
X0241900Y0126800D01*
X0241900Y0136800D02*
X0236700Y0136800D01*
D15*
X0098050Y0079300D03*
X0088050Y0079300D03*
X0069300Y0079300D03*
X0069300Y0109300D03*
X0129300Y0029300D03*
X0149300Y0029300D03*
X0209300Y0029300D03*
X0229300Y0029300D03*
D16*
X0226800Y0191528D02*
X0226800Y0197072D01*
X0216800Y0197072D02*
X0216800Y0191528D01*
X0206800Y0191528D02*
X0206800Y0197072D01*
X0196800Y0197072D02*
X0196800Y0191528D01*
X0186800Y0191528D02*
X0186800Y0197072D01*
X0176800Y0197072D02*
X0176800Y0191528D01*
X0166800Y0191528D02*
X0166800Y0197072D01*
X0156800Y0197072D02*
X0156800Y0191528D01*
X0146800Y0191528D02*
X0146800Y0197072D01*
X0136800Y0197072D02*
X0136800Y0191528D01*
X0126800Y0191528D02*
X0126800Y0197072D01*
X0116800Y0197072D02*
X0116800Y0191528D01*
X0106800Y0191528D02*
X0106800Y0197072D01*
X0096800Y0197072D02*
X0096800Y0191528D01*
X0086800Y0191528D02*
X0086800Y0197072D01*
X0076800Y0197072D02*
X0076800Y0191528D01*
X0066800Y0191528D02*
X0066800Y0197072D01*
X0056800Y0197072D02*
X0056800Y0191528D01*
X0046800Y0191528D02*
X0046800Y0197072D01*
X0036800Y0197072D02*
X0036800Y0191528D01*
X0036800Y0211528D02*
X0036800Y0217072D01*
X0046800Y0217072D02*
X0046800Y0211528D01*
X0056800Y0211528D02*
X0056800Y0217072D01*
X0066800Y0217072D02*
X0066800Y0211528D01*
X0076800Y0211528D02*
X0076800Y0217072D01*
X0086800Y0217072D02*
X0086800Y0211528D01*
X0096800Y0211528D02*
X0096800Y0217072D01*
X0106800Y0217072D02*
X0106800Y0211528D01*
X0116800Y0211528D02*
X0116800Y0217072D01*
X0126800Y0217072D02*
X0126800Y0211528D01*
X0136800Y0211528D02*
X0136800Y0217072D01*
X0146800Y0217072D02*
X0146800Y0211528D01*
X0156800Y0211528D02*
X0156800Y0217072D01*
X0166800Y0217072D02*
X0166800Y0211528D01*
X0176800Y0211528D02*
X0176800Y0217072D01*
X0186800Y0217072D02*
X0186800Y0211528D01*
X0196800Y0211528D02*
X0196800Y0217072D01*
X0206800Y0217072D02*
X0206800Y0211528D01*
X0216800Y0211528D02*
X0216800Y0217072D01*
X0226800Y0217072D02*
X0226800Y0211528D01*
X0236800Y0211528D02*
X0236800Y0217072D01*
X0246800Y0217072D02*
X0246800Y0211528D01*
X0256800Y0211528D02*
X0256800Y0217072D01*
X0266800Y0217072D02*
X0266800Y0211528D01*
X0276800Y0211528D02*
X0276800Y0217072D01*
X0276800Y0197072D02*
X0276800Y0191528D01*
X0266800Y0191528D02*
X0266800Y0197072D01*
X0256800Y0197072D02*
X0256800Y0191528D01*
X0246800Y0191528D02*
X0246800Y0197072D01*
X0236800Y0197072D02*
X0236800Y0191528D01*
D17*
X0091800Y0119300D03*
X0091800Y0109300D03*
D18*
X0385599Y0205550D03*
X0433001Y0205550D03*
D19*
X0414221Y0194881D03*
X0404379Y0194881D03*
X0404379Y0187007D03*
X0414221Y0187007D03*
D20*
X0345550Y0128050D03*
X0350550Y0124300D03*
X0296800Y0153050D03*
X0275550Y0153050D03*
X0251800Y0151800D03*
X0246800Y0146800D03*
X0256800Y0134300D03*
X0261800Y0129300D03*
X0244300Y0161800D03*
X0248050Y0174300D03*
X0226800Y0176800D03*
X0196800Y0176800D03*
X0211800Y0221800D03*
X0180550Y0113050D03*
X0176800Y0106800D03*
X0226800Y0096800D03*
X0174300Y0076800D03*
X0336800Y0061800D03*
X0341800Y0066800D03*
X0346800Y0070550D03*
X0399300Y0055550D03*
X0404300Y0075550D03*
X0404300Y0081800D03*
M02*
