G75*
%MOIN*%
%OFA0B0*%
%FSLAX25Y25*%
%IPPOS*%
%LPD*%
%AMOC8*
5,1,8,0,0,1.08239X$1,22.5*
%
%ADD10C,0.00600*%
%ADD11C,0.05650*%
%ADD12C,0.05200*%
%ADD13OC8,0.05200*%
%ADD14C,0.05543*%
%ADD15OC8,0.06200*%
%ADD16C,0.13055*%
%ADD17C,0.05622*%
%ADD18C,0.01600*%
%ADD19C,0.03962*%
%ADD20C,0.02400*%
D10*
X0025048Y0006800D02*
X0461052Y0006800D01*
X0461433Y0006805D01*
X0461813Y0006818D01*
X0462193Y0006841D01*
X0462572Y0006874D01*
X0462950Y0006915D01*
X0463327Y0006965D01*
X0463703Y0007025D01*
X0464078Y0007093D01*
X0464450Y0007171D01*
X0464821Y0007258D01*
X0465189Y0007353D01*
X0465555Y0007458D01*
X0465918Y0007571D01*
X0466279Y0007693D01*
X0466636Y0007823D01*
X0466990Y0007963D01*
X0467341Y0008110D01*
X0467688Y0008267D01*
X0468031Y0008431D01*
X0468370Y0008604D01*
X0468705Y0008785D01*
X0469036Y0008974D01*
X0469361Y0009171D01*
X0469682Y0009375D01*
X0469998Y0009588D01*
X0470308Y0009808D01*
X0470614Y0010035D01*
X0470913Y0010270D01*
X0471207Y0010512D01*
X0471495Y0010760D01*
X0471777Y0011016D01*
X0472052Y0011279D01*
X0472321Y0011548D01*
X0472584Y0011823D01*
X0472840Y0012105D01*
X0473088Y0012393D01*
X0473330Y0012687D01*
X0473565Y0012986D01*
X0473792Y0013292D01*
X0474012Y0013602D01*
X0474225Y0013918D01*
X0474429Y0014239D01*
X0474626Y0014564D01*
X0474815Y0014895D01*
X0474996Y0015230D01*
X0475169Y0015569D01*
X0475333Y0015912D01*
X0475490Y0016259D01*
X0475637Y0016610D01*
X0475777Y0016964D01*
X0475907Y0017321D01*
X0476029Y0017682D01*
X0476142Y0018045D01*
X0476247Y0018411D01*
X0476342Y0018779D01*
X0476429Y0019150D01*
X0476507Y0019522D01*
X0476575Y0019897D01*
X0476635Y0020273D01*
X0476685Y0020650D01*
X0476726Y0021028D01*
X0476759Y0021407D01*
X0476782Y0021787D01*
X0476795Y0022167D01*
X0476800Y0022548D01*
X0476800Y0231052D01*
X0476795Y0231433D01*
X0476782Y0231813D01*
X0476759Y0232193D01*
X0476726Y0232572D01*
X0476685Y0232950D01*
X0476635Y0233327D01*
X0476575Y0233703D01*
X0476507Y0234078D01*
X0476429Y0234450D01*
X0476342Y0234821D01*
X0476247Y0235189D01*
X0476142Y0235555D01*
X0476029Y0235918D01*
X0475907Y0236279D01*
X0475777Y0236636D01*
X0475637Y0236990D01*
X0475490Y0237341D01*
X0475333Y0237688D01*
X0475169Y0238031D01*
X0474996Y0238370D01*
X0474815Y0238705D01*
X0474626Y0239036D01*
X0474429Y0239361D01*
X0474225Y0239682D01*
X0474012Y0239998D01*
X0473792Y0240308D01*
X0473565Y0240614D01*
X0473330Y0240913D01*
X0473088Y0241207D01*
X0472840Y0241495D01*
X0472584Y0241777D01*
X0472321Y0242052D01*
X0472052Y0242321D01*
X0471777Y0242584D01*
X0471495Y0242840D01*
X0471207Y0243088D01*
X0470913Y0243330D01*
X0470614Y0243565D01*
X0470308Y0243792D01*
X0469998Y0244012D01*
X0469682Y0244225D01*
X0469361Y0244429D01*
X0469036Y0244626D01*
X0468705Y0244815D01*
X0468370Y0244996D01*
X0468031Y0245169D01*
X0467688Y0245333D01*
X0467341Y0245490D01*
X0466990Y0245637D01*
X0466636Y0245777D01*
X0466279Y0245907D01*
X0465918Y0246029D01*
X0465555Y0246142D01*
X0465189Y0246247D01*
X0464821Y0246342D01*
X0464450Y0246429D01*
X0464078Y0246507D01*
X0463703Y0246575D01*
X0463327Y0246635D01*
X0462950Y0246685D01*
X0462572Y0246726D01*
X0462193Y0246759D01*
X0461813Y0246782D01*
X0461433Y0246795D01*
X0461052Y0246800D01*
X0025048Y0246800D01*
X0024667Y0246795D01*
X0024287Y0246782D01*
X0023907Y0246759D01*
X0023528Y0246726D01*
X0023150Y0246685D01*
X0022773Y0246635D01*
X0022397Y0246575D01*
X0022022Y0246507D01*
X0021650Y0246429D01*
X0021279Y0246342D01*
X0020911Y0246247D01*
X0020545Y0246142D01*
X0020182Y0246029D01*
X0019821Y0245907D01*
X0019464Y0245777D01*
X0019110Y0245637D01*
X0018759Y0245490D01*
X0018412Y0245333D01*
X0018069Y0245169D01*
X0017730Y0244996D01*
X0017395Y0244815D01*
X0017064Y0244626D01*
X0016739Y0244429D01*
X0016418Y0244225D01*
X0016102Y0244012D01*
X0015792Y0243792D01*
X0015486Y0243565D01*
X0015187Y0243330D01*
X0014893Y0243088D01*
X0014605Y0242840D01*
X0014323Y0242584D01*
X0014048Y0242321D01*
X0013779Y0242052D01*
X0013516Y0241777D01*
X0013260Y0241495D01*
X0013012Y0241207D01*
X0012770Y0240913D01*
X0012535Y0240614D01*
X0012308Y0240308D01*
X0012088Y0239998D01*
X0011875Y0239682D01*
X0011671Y0239361D01*
X0011474Y0239036D01*
X0011285Y0238705D01*
X0011104Y0238370D01*
X0010931Y0238031D01*
X0010767Y0237688D01*
X0010610Y0237341D01*
X0010463Y0236990D01*
X0010323Y0236636D01*
X0010193Y0236279D01*
X0010071Y0235918D01*
X0009958Y0235555D01*
X0009853Y0235189D01*
X0009758Y0234821D01*
X0009671Y0234450D01*
X0009593Y0234078D01*
X0009525Y0233703D01*
X0009465Y0233327D01*
X0009415Y0232950D01*
X0009374Y0232572D01*
X0009341Y0232193D01*
X0009318Y0231813D01*
X0009305Y0231433D01*
X0009300Y0231052D01*
X0009300Y0022548D01*
X0009305Y0022167D01*
X0009318Y0021787D01*
X0009341Y0021407D01*
X0009374Y0021028D01*
X0009415Y0020650D01*
X0009465Y0020273D01*
X0009525Y0019897D01*
X0009593Y0019522D01*
X0009671Y0019150D01*
X0009758Y0018779D01*
X0009853Y0018411D01*
X0009958Y0018045D01*
X0010071Y0017682D01*
X0010193Y0017321D01*
X0010323Y0016964D01*
X0010463Y0016610D01*
X0010610Y0016259D01*
X0010767Y0015912D01*
X0010931Y0015569D01*
X0011104Y0015230D01*
X0011285Y0014895D01*
X0011474Y0014564D01*
X0011671Y0014239D01*
X0011875Y0013918D01*
X0012088Y0013602D01*
X0012308Y0013292D01*
X0012535Y0012986D01*
X0012770Y0012687D01*
X0013012Y0012393D01*
X0013260Y0012105D01*
X0013516Y0011823D01*
X0013779Y0011548D01*
X0014048Y0011279D01*
X0014323Y0011016D01*
X0014605Y0010760D01*
X0014893Y0010512D01*
X0015187Y0010270D01*
X0015486Y0010035D01*
X0015792Y0009808D01*
X0016102Y0009588D01*
X0016418Y0009375D01*
X0016739Y0009171D01*
X0017064Y0008974D01*
X0017395Y0008785D01*
X0017730Y0008604D01*
X0018069Y0008431D01*
X0018412Y0008267D01*
X0018759Y0008110D01*
X0019110Y0007963D01*
X0019464Y0007823D01*
X0019821Y0007693D01*
X0020182Y0007571D01*
X0020545Y0007458D01*
X0020911Y0007353D01*
X0021279Y0007258D01*
X0021650Y0007171D01*
X0022022Y0007093D01*
X0022397Y0007025D01*
X0022773Y0006965D01*
X0023150Y0006915D01*
X0023528Y0006874D01*
X0023907Y0006841D01*
X0024287Y0006818D01*
X0024667Y0006805D01*
X0025048Y0006800D01*
D11*
X0274300Y0043975D02*
X0274300Y0049625D01*
X0284300Y0049625D02*
X0284300Y0043975D01*
X0294300Y0043975D02*
X0294300Y0049625D01*
X0304300Y0049625D02*
X0304300Y0043975D01*
X0314300Y0043975D02*
X0314300Y0049625D01*
X0324300Y0049625D02*
X0324300Y0043975D01*
X0334300Y0043975D02*
X0334300Y0049625D01*
X0344300Y0049625D02*
X0344300Y0043975D01*
X0354300Y0043975D02*
X0354300Y0049625D01*
X0364300Y0049625D02*
X0364300Y0043975D01*
X0374300Y0043975D02*
X0374300Y0049625D01*
X0384300Y0049625D02*
X0384300Y0043975D01*
X0394300Y0043975D02*
X0394300Y0049625D01*
X0404300Y0049625D02*
X0404300Y0043975D01*
X0414300Y0043975D02*
X0414300Y0049625D01*
X0424300Y0049625D02*
X0424300Y0043975D01*
X0434300Y0043975D02*
X0434300Y0049625D01*
X0444300Y0049625D02*
X0444300Y0043975D01*
X0454300Y0043975D02*
X0454300Y0049625D01*
X0464300Y0049625D02*
X0464300Y0043975D01*
X0464300Y0103975D02*
X0464300Y0109625D01*
X0454300Y0109625D02*
X0454300Y0103975D01*
X0444300Y0103975D02*
X0444300Y0109625D01*
X0434300Y0109625D02*
X0434300Y0103975D01*
X0424300Y0103975D02*
X0424300Y0109625D01*
X0414300Y0109625D02*
X0414300Y0103975D01*
X0404300Y0103975D02*
X0404300Y0109625D01*
X0394300Y0109625D02*
X0394300Y0103975D01*
X0384300Y0103975D02*
X0384300Y0109625D01*
X0374300Y0109625D02*
X0374300Y0103975D01*
X0364300Y0103975D02*
X0364300Y0109625D01*
X0354300Y0109625D02*
X0354300Y0103975D01*
X0344300Y0103975D02*
X0344300Y0109625D01*
X0334300Y0109625D02*
X0334300Y0103975D01*
X0324300Y0103975D02*
X0324300Y0109625D01*
X0314300Y0109625D02*
X0314300Y0103975D01*
X0304300Y0103975D02*
X0304300Y0109625D01*
X0294300Y0109625D02*
X0294300Y0103975D01*
X0284300Y0103975D02*
X0284300Y0109625D01*
X0274300Y0109625D02*
X0274300Y0103975D01*
D12*
X0241900Y0106800D02*
X0236700Y0106800D01*
X0236700Y0096800D02*
X0241900Y0096800D01*
X0241900Y0086800D02*
X0236700Y0086800D01*
X0236700Y0076800D02*
X0241900Y0076800D01*
X0241900Y0066800D02*
X0236700Y0066800D01*
X0236700Y0056800D02*
X0241900Y0056800D01*
X0241900Y0046800D02*
X0236700Y0046800D01*
X0211900Y0046800D02*
X0206700Y0046800D01*
X0206700Y0056800D02*
X0211900Y0056800D01*
X0211900Y0066800D02*
X0206700Y0066800D01*
X0206700Y0076800D02*
X0211900Y0076800D01*
X0211900Y0086800D02*
X0206700Y0086800D01*
X0206700Y0096800D02*
X0211900Y0096800D01*
X0211900Y0106800D02*
X0206700Y0106800D01*
X0206700Y0116800D02*
X0211900Y0116800D01*
X0211900Y0126800D02*
X0206700Y0126800D01*
X0206700Y0136800D02*
X0211900Y0136800D01*
X0236700Y0136800D02*
X0241900Y0136800D01*
X0241900Y0126800D02*
X0236700Y0126800D01*
X0236700Y0116800D02*
X0241900Y0116800D01*
X0161900Y0116800D02*
X0156700Y0116800D01*
X0156700Y0106800D02*
X0161900Y0106800D01*
X0161900Y0096800D02*
X0156700Y0096800D01*
X0156700Y0086800D02*
X0161900Y0086800D01*
X0161900Y0076800D02*
X0156700Y0076800D01*
X0156700Y0066800D02*
X0161900Y0066800D01*
X0161900Y0056800D02*
X0156700Y0056800D01*
X0156700Y0046800D02*
X0161900Y0046800D01*
X0131900Y0046800D02*
X0126700Y0046800D01*
X0126700Y0056800D02*
X0131900Y0056800D01*
X0131900Y0066800D02*
X0126700Y0066800D01*
X0126700Y0076800D02*
X0131900Y0076800D01*
X0131900Y0086800D02*
X0126700Y0086800D01*
X0126700Y0096800D02*
X0131900Y0096800D01*
X0131900Y0106800D02*
X0126700Y0106800D01*
X0126700Y0116800D02*
X0131900Y0116800D01*
X0131900Y0126800D02*
X0126700Y0126800D01*
X0126700Y0136800D02*
X0131900Y0136800D01*
X0156700Y0136800D02*
X0161900Y0136800D01*
X0161900Y0126800D02*
X0156700Y0126800D01*
X0053075Y0129300D02*
X0047875Y0129300D01*
X0047875Y0139100D02*
X0053075Y0139100D01*
X0029475Y0139100D02*
X0024275Y0139100D01*
X0024275Y0129300D02*
X0029475Y0129300D01*
X0029475Y0119500D02*
X0024275Y0119500D01*
X0047875Y0119500D02*
X0053075Y0119500D01*
D13*
X0069300Y0109300D03*
X0069300Y0079300D03*
X0088050Y0079300D03*
X0098050Y0079300D03*
X0129300Y0029300D03*
X0149300Y0029300D03*
X0209300Y0029300D03*
X0229300Y0029300D03*
D14*
X0226800Y0191528D02*
X0226800Y0197072D01*
X0216800Y0197072D02*
X0216800Y0191528D01*
X0206800Y0191528D02*
X0206800Y0197072D01*
X0196800Y0197072D02*
X0196800Y0191528D01*
X0186800Y0191528D02*
X0186800Y0197072D01*
X0176800Y0197072D02*
X0176800Y0191528D01*
X0166800Y0191528D02*
X0166800Y0197072D01*
X0156800Y0197072D02*
X0156800Y0191528D01*
X0146800Y0191528D02*
X0146800Y0197072D01*
X0136800Y0197072D02*
X0136800Y0191528D01*
X0126800Y0191528D02*
X0126800Y0197072D01*
X0116800Y0197072D02*
X0116800Y0191528D01*
X0106800Y0191528D02*
X0106800Y0197072D01*
X0096800Y0197072D02*
X0096800Y0191528D01*
X0086800Y0191528D02*
X0086800Y0197072D01*
X0076800Y0197072D02*
X0076800Y0191528D01*
X0066800Y0191528D02*
X0066800Y0197072D01*
X0056800Y0197072D02*
X0056800Y0191528D01*
X0046800Y0191528D02*
X0046800Y0197072D01*
X0036800Y0197072D02*
X0036800Y0191528D01*
X0036800Y0211528D02*
X0036800Y0217072D01*
X0046800Y0217072D02*
X0046800Y0211528D01*
X0056800Y0211528D02*
X0056800Y0217072D01*
X0066800Y0217072D02*
X0066800Y0211528D01*
X0076800Y0211528D02*
X0076800Y0217072D01*
X0086800Y0217072D02*
X0086800Y0211528D01*
X0096800Y0211528D02*
X0096800Y0217072D01*
X0106800Y0217072D02*
X0106800Y0211528D01*
X0116800Y0211528D02*
X0116800Y0217072D01*
X0126800Y0217072D02*
X0126800Y0211528D01*
X0136800Y0211528D02*
X0136800Y0217072D01*
X0146800Y0217072D02*
X0146800Y0211528D01*
X0156800Y0211528D02*
X0156800Y0217072D01*
X0166800Y0217072D02*
X0166800Y0211528D01*
X0176800Y0211528D02*
X0176800Y0217072D01*
X0186800Y0217072D02*
X0186800Y0211528D01*
X0196800Y0211528D02*
X0196800Y0217072D01*
X0206800Y0217072D02*
X0206800Y0211528D01*
X0216800Y0211528D02*
X0216800Y0217072D01*
X0226800Y0217072D02*
X0226800Y0211528D01*
X0236800Y0211528D02*
X0236800Y0217072D01*
X0246800Y0217072D02*
X0246800Y0211528D01*
X0256800Y0211528D02*
X0256800Y0217072D01*
X0266800Y0217072D02*
X0266800Y0211528D01*
X0276800Y0211528D02*
X0276800Y0217072D01*
X0276800Y0197072D02*
X0276800Y0191528D01*
X0266800Y0191528D02*
X0266800Y0197072D01*
X0256800Y0197072D02*
X0256800Y0191528D01*
X0246800Y0191528D02*
X0246800Y0197072D01*
X0236800Y0197072D02*
X0236800Y0191528D01*
D15*
X0091800Y0119300D03*
X0091800Y0109300D03*
D16*
X0385599Y0205550D03*
X0433001Y0205550D03*
D17*
X0414221Y0194881D03*
X0404379Y0194881D03*
X0404379Y0187007D03*
X0414221Y0187007D03*
D18*
X0020973Y0012711D02*
X0018566Y0014100D01*
X0016600Y0016066D01*
X0015211Y0018473D01*
X0014491Y0021158D01*
X0014400Y0022548D01*
X0014400Y0023562D01*
X0014400Y0231052D01*
X0014491Y0232442D01*
X0015211Y0235127D01*
X0016600Y0237534D01*
X0018566Y0239500D01*
X0020973Y0240889D01*
X0023658Y0241609D01*
X0025048Y0241700D01*
X0461052Y0241700D01*
X0462442Y0241609D01*
X0465127Y0240889D01*
X0467534Y0239500D01*
X0469500Y0237534D01*
X0470889Y0235127D01*
X0471609Y0232442D01*
X0471700Y0231052D01*
X0471700Y0022548D01*
X0471609Y0021158D01*
X0470889Y0018473D01*
X0469500Y0016066D01*
X0467534Y0014100D01*
X0465127Y0012711D01*
X0462442Y0011991D01*
X0461052Y0011900D01*
X0025048Y0011900D01*
X0023658Y0011991D01*
X0020973Y0012711D01*
X0019741Y0013422D02*
X0466359Y0013422D01*
X0468454Y0015020D02*
X0017646Y0015020D01*
X0016281Y0016619D02*
X0469819Y0016619D01*
X0470742Y0018217D02*
X0015358Y0018217D01*
X0014851Y0019816D02*
X0471249Y0019816D01*
X0471626Y0021414D02*
X0014474Y0021414D01*
X0014400Y0023013D02*
X0471700Y0023013D01*
X0471700Y0024611D02*
X0014400Y0024611D01*
X0014400Y0026210D02*
X0126450Y0026210D01*
X0127560Y0025100D02*
X0131040Y0025100D01*
X0133500Y0027560D01*
X0133500Y0031040D01*
X0131040Y0033500D01*
X0127560Y0033500D01*
X0125100Y0031040D01*
X0125100Y0027560D01*
X0127560Y0025100D01*
X0125100Y0027808D02*
X0014400Y0027808D01*
X0014400Y0029407D02*
X0125100Y0029407D01*
X0125100Y0031005D02*
X0014400Y0031005D01*
X0014400Y0032604D02*
X0126664Y0032604D01*
X0131936Y0032604D02*
X0146381Y0032604D01*
X0147477Y0033700D02*
X0144900Y0031123D01*
X0144900Y0029300D01*
X0149300Y0029300D01*
X0153700Y0029300D01*
X0153700Y0031123D01*
X0151123Y0033700D01*
X0149300Y0033700D01*
X0149300Y0029300D01*
X0149300Y0029300D01*
X0149300Y0029300D01*
X0153700Y0029300D01*
X0153700Y0027477D01*
X0151123Y0024900D01*
X0149300Y0024900D01*
X0149300Y0029300D01*
X0149300Y0029300D01*
X0149300Y0029300D01*
X0149300Y0033700D01*
X0147477Y0033700D01*
X0149300Y0032604D02*
X0149300Y0032604D01*
X0149300Y0031005D02*
X0149300Y0031005D01*
X0149300Y0029407D02*
X0149300Y0029407D01*
X0149300Y0029300D02*
X0144900Y0029300D01*
X0144900Y0027477D01*
X0147477Y0024900D01*
X0149300Y0024900D01*
X0149300Y0029300D01*
X0149300Y0027808D02*
X0149300Y0027808D01*
X0149300Y0026210D02*
X0149300Y0026210D01*
X0152432Y0026210D02*
X0206450Y0026210D01*
X0207560Y0025100D02*
X0205100Y0027560D01*
X0205100Y0031040D01*
X0207560Y0033500D01*
X0211040Y0033500D01*
X0213500Y0031040D01*
X0213500Y0027560D01*
X0211040Y0025100D01*
X0207560Y0025100D01*
X0205100Y0027808D02*
X0153700Y0027808D01*
X0153700Y0029407D02*
X0205100Y0029407D01*
X0205100Y0031005D02*
X0153700Y0031005D01*
X0152219Y0032604D02*
X0206664Y0032604D01*
X0211936Y0032604D02*
X0226381Y0032604D01*
X0227477Y0033700D02*
X0224900Y0031123D01*
X0224900Y0029300D01*
X0229300Y0029300D01*
X0233700Y0029300D01*
X0233700Y0031123D01*
X0231123Y0033700D01*
X0229300Y0033700D01*
X0229300Y0029300D01*
X0229300Y0029300D01*
X0229300Y0029300D01*
X0233700Y0029300D01*
X0233700Y0027477D01*
X0231123Y0024900D01*
X0229300Y0024900D01*
X0229300Y0029300D01*
X0229300Y0029300D01*
X0229300Y0029300D01*
X0229300Y0033700D01*
X0227477Y0033700D01*
X0229300Y0032604D02*
X0229300Y0032604D01*
X0229300Y0031005D02*
X0229300Y0031005D01*
X0229300Y0029407D02*
X0229300Y0029407D01*
X0229300Y0029300D02*
X0224900Y0029300D01*
X0224900Y0027477D01*
X0227477Y0024900D01*
X0229300Y0024900D01*
X0229300Y0029300D01*
X0229300Y0027808D02*
X0229300Y0027808D01*
X0229300Y0026210D02*
X0229300Y0026210D01*
X0232432Y0026210D02*
X0471700Y0026210D01*
X0471700Y0027808D02*
X0233700Y0027808D01*
X0233700Y0029407D02*
X0471700Y0029407D01*
X0471700Y0031005D02*
X0419385Y0031005D01*
X0419409Y0031015D02*
X0420085Y0031691D01*
X0426335Y0037941D01*
X0426700Y0038823D01*
X0426700Y0040180D01*
X0426807Y0040224D01*
X0428051Y0041468D01*
X0428725Y0043095D01*
X0428725Y0050505D01*
X0428051Y0052132D01*
X0426807Y0053376D01*
X0425180Y0054050D01*
X0423420Y0054050D01*
X0421793Y0053376D01*
X0421700Y0053283D01*
X0421700Y0053527D01*
X0421335Y0054409D01*
X0420659Y0055085D01*
X0416909Y0058835D01*
X0416027Y0059200D01*
X0415073Y0059200D01*
X0410294Y0059200D01*
X0409200Y0060294D01*
X0409200Y0069556D01*
X0411335Y0071691D01*
X0411700Y0072573D01*
X0411700Y0079777D01*
X0411335Y0080659D01*
X0410659Y0081335D01*
X0408159Y0083835D01*
X0407277Y0084200D01*
X0406964Y0084200D01*
X0406329Y0084836D01*
X0405012Y0085381D01*
X0403588Y0085381D01*
X0402271Y0084836D01*
X0401700Y0084264D01*
X0401700Y0087056D01*
X0405294Y0090650D01*
X0416027Y0090650D01*
X0416909Y0091015D01*
X0425631Y0099737D01*
X0426807Y0100224D01*
X0428051Y0101468D01*
X0428725Y0103095D01*
X0428725Y0110505D01*
X0428051Y0112132D01*
X0426807Y0113376D01*
X0425180Y0114050D01*
X0423420Y0114050D01*
X0421793Y0113376D01*
X0421700Y0113283D01*
X0421700Y0181628D01*
X0421707Y0181646D01*
X0421700Y0182105D01*
X0421700Y0182563D01*
X0421692Y0182581D01*
X0421692Y0182601D01*
X0421510Y0183022D01*
X0421335Y0183445D01*
X0421321Y0183459D01*
X0421313Y0183477D01*
X0420984Y0183796D01*
X0420659Y0184120D01*
X0420641Y0184128D01*
X0418616Y0186090D01*
X0418632Y0186129D01*
X0418632Y0187884D01*
X0417961Y0189505D01*
X0416720Y0190746D01*
X0416243Y0190944D01*
X0416720Y0191141D01*
X0417961Y0192382D01*
X0418632Y0194003D01*
X0418632Y0195758D01*
X0417961Y0197379D01*
X0416720Y0198620D01*
X0415099Y0199292D01*
X0413344Y0199292D01*
X0411723Y0198620D01*
X0410482Y0197379D01*
X0409810Y0195758D01*
X0409810Y0194003D01*
X0409851Y0193905D01*
X0408089Y0192142D01*
X0408322Y0192464D01*
X0408652Y0193111D01*
X0408876Y0193801D01*
X0408990Y0194518D01*
X0408990Y0194775D01*
X0404484Y0194775D01*
X0404484Y0194986D01*
X0404273Y0194986D01*
X0404273Y0194775D01*
X0399768Y0194775D01*
X0399768Y0194518D01*
X0399881Y0193801D01*
X0400106Y0193111D01*
X0400435Y0192464D01*
X0400862Y0191877D01*
X0401375Y0191364D01*
X0401962Y0190937D01*
X0402132Y0190850D01*
X0401880Y0190746D01*
X0400639Y0189505D01*
X0399968Y0187884D01*
X0399968Y0186129D01*
X0400639Y0184508D01*
X0401880Y0183267D01*
X0403501Y0182596D01*
X0405256Y0182596D01*
X0406877Y0183267D01*
X0406900Y0183290D01*
X0406900Y0182573D01*
X0407265Y0181691D01*
X0407941Y0181015D01*
X0414400Y0174556D01*
X0414400Y0122919D01*
X0407808Y0116327D01*
X0407797Y0116322D01*
X0407470Y0115989D01*
X0407140Y0115659D01*
X0407136Y0115649D01*
X0407128Y0115641D01*
X0406953Y0115208D01*
X0406775Y0114777D01*
X0406775Y0114766D01*
X0406771Y0114756D01*
X0406775Y0114289D01*
X0406775Y0113823D01*
X0406779Y0113812D01*
X0406783Y0113386D01*
X0405180Y0114050D01*
X0403420Y0114050D01*
X0401793Y0113376D01*
X0400549Y0112132D01*
X0399875Y0110505D01*
X0399875Y0103095D01*
X0400549Y0101468D01*
X0401567Y0100450D01*
X0401323Y0100450D01*
X0400441Y0100085D01*
X0392941Y0092585D01*
X0392265Y0091909D01*
X0391900Y0091027D01*
X0391900Y0064044D01*
X0389556Y0061700D01*
X0345073Y0061700D01*
X0344600Y0061504D01*
X0344600Y0064536D01*
X0344836Y0064771D01*
X0345381Y0066088D01*
X0345381Y0067262D01*
X0346088Y0066969D01*
X0347512Y0066969D01*
X0348829Y0067514D01*
X0349836Y0068521D01*
X0350381Y0069838D01*
X0350381Y0071262D01*
X0349836Y0072579D01*
X0348829Y0073586D01*
X0347512Y0074131D01*
X0346194Y0074131D01*
X0346027Y0074200D01*
X0338823Y0074200D01*
X0337941Y0073835D01*
X0330931Y0066825D01*
X0301419Y0066825D01*
X0296700Y0071544D01*
X0296700Y0100180D01*
X0296807Y0100224D01*
X0298051Y0101468D01*
X0298725Y0103095D01*
X0298725Y0110505D01*
X0298051Y0112132D01*
X0296807Y0113376D01*
X0295180Y0114050D01*
X0293420Y0114050D01*
X0291793Y0113376D01*
X0290549Y0112132D01*
X0289875Y0110505D01*
X0289875Y0103095D01*
X0290549Y0101468D01*
X0291793Y0100224D01*
X0291900Y0100180D01*
X0291900Y0070073D01*
X0292265Y0069191D01*
X0292941Y0068515D01*
X0297256Y0064200D01*
X0252794Y0064200D01*
X0251700Y0065294D01*
X0251700Y0072277D01*
X0251335Y0073159D01*
X0246335Y0078159D01*
X0245659Y0078835D01*
X0245592Y0078863D01*
X0245461Y0079179D01*
X0245240Y0079400D01*
X0246027Y0079400D01*
X0246909Y0079765D01*
X0253159Y0086015D01*
X0253835Y0086691D01*
X0254200Y0087573D01*
X0254200Y0131836D01*
X0254771Y0131264D01*
X0256088Y0130719D01*
X0257512Y0130719D01*
X0258719Y0131219D01*
X0258219Y0130012D01*
X0258219Y0128588D01*
X0258764Y0127271D01*
X0259771Y0126264D01*
X0261088Y0125719D01*
X0262512Y0125719D01*
X0263829Y0126264D01*
X0264836Y0127271D01*
X0265381Y0128588D01*
X0265381Y0129400D01*
X0305806Y0129400D01*
X0321819Y0113387D01*
X0321793Y0113376D01*
X0320549Y0112132D01*
X0319875Y0110505D01*
X0319875Y0103095D01*
X0320549Y0101468D01*
X0321793Y0100224D01*
X0323420Y0099550D01*
X0325180Y0099550D01*
X0326807Y0100224D01*
X0328051Y0101468D01*
X0328725Y0103095D01*
X0328725Y0110505D01*
X0328051Y0112132D01*
X0326807Y0113376D01*
X0326700Y0113420D01*
X0326700Y0114400D01*
X0380806Y0114400D01*
X0381819Y0113387D01*
X0381793Y0113376D01*
X0380549Y0112132D01*
X0379875Y0110505D01*
X0379875Y0103095D01*
X0380549Y0101468D01*
X0381793Y0100224D01*
X0383420Y0099550D01*
X0385180Y0099550D01*
X0386807Y0100224D01*
X0388051Y0101468D01*
X0388725Y0103095D01*
X0388725Y0110505D01*
X0388051Y0112132D01*
X0386807Y0113376D01*
X0386700Y0113420D01*
X0386700Y0114777D01*
X0386335Y0115659D01*
X0385659Y0116335D01*
X0385094Y0116900D01*
X0388306Y0116900D01*
X0391819Y0113387D01*
X0391793Y0113376D01*
X0390549Y0112132D01*
X0389875Y0110505D01*
X0389875Y0103095D01*
X0390549Y0101468D01*
X0391793Y0100224D01*
X0393420Y0099550D01*
X0395180Y0099550D01*
X0396807Y0100224D01*
X0398051Y0101468D01*
X0398725Y0103095D01*
X0398725Y0110505D01*
X0398051Y0112132D01*
X0396807Y0113376D01*
X0396700Y0113420D01*
X0396700Y0114777D01*
X0396335Y0115659D01*
X0391335Y0120659D01*
X0391335Y0120659D01*
X0390659Y0121335D01*
X0389777Y0121700D01*
X0353014Y0121700D01*
X0353586Y0122271D01*
X0354131Y0123588D01*
X0354131Y0125012D01*
X0353586Y0126329D01*
X0352579Y0127336D01*
X0351262Y0127881D01*
X0349838Y0127881D01*
X0349131Y0127588D01*
X0349131Y0128762D01*
X0348586Y0130079D01*
X0347579Y0131086D01*
X0346262Y0131631D01*
X0344838Y0131631D01*
X0343521Y0131086D01*
X0342514Y0130079D01*
X0341969Y0128762D01*
X0341969Y0127863D01*
X0340806Y0126700D01*
X0330294Y0126700D01*
X0313159Y0143835D01*
X0312277Y0144200D01*
X0270294Y0144200D01*
X0266700Y0147794D01*
X0266700Y0180806D01*
X0273835Y0187941D01*
X0273943Y0188203D01*
X0274324Y0187822D01*
X0275930Y0187157D01*
X0277670Y0187157D01*
X0279276Y0187822D01*
X0280506Y0189052D01*
X0281172Y0190659D01*
X0281172Y0197941D01*
X0280506Y0199548D01*
X0279276Y0200778D01*
X0277670Y0201443D01*
X0275930Y0201443D01*
X0274324Y0200778D01*
X0274200Y0200654D01*
X0274200Y0207946D01*
X0274324Y0207822D01*
X0275930Y0207157D01*
X0277670Y0207157D01*
X0279276Y0207822D01*
X0280506Y0209052D01*
X0281172Y0210659D01*
X0281172Y0217941D01*
X0280506Y0219548D01*
X0279276Y0220778D01*
X0277670Y0221443D01*
X0275930Y0221443D01*
X0274324Y0220778D01*
X0274200Y0220654D01*
X0274200Y0223527D01*
X0273835Y0224409D01*
X0273159Y0225085D01*
X0266909Y0231335D01*
X0266027Y0231700D01*
X0053823Y0231700D01*
X0052941Y0231335D01*
X0052265Y0230659D01*
X0044765Y0223159D01*
X0044400Y0222277D01*
X0044400Y0220809D01*
X0044324Y0220778D01*
X0043094Y0219548D01*
X0042428Y0217941D01*
X0042428Y0210659D01*
X0043094Y0209052D01*
X0044324Y0207822D01*
X0045930Y0207157D01*
X0047670Y0207157D01*
X0049276Y0207822D01*
X0050506Y0209052D01*
X0051172Y0210659D01*
X0051172Y0217941D01*
X0050506Y0219548D01*
X0049276Y0220778D01*
X0049202Y0220808D01*
X0055294Y0226900D01*
X0113506Y0226900D01*
X0110441Y0223835D01*
X0109765Y0223159D01*
X0109400Y0222277D01*
X0109400Y0220654D01*
X0109276Y0220778D01*
X0107670Y0221443D01*
X0105930Y0221443D01*
X0104324Y0220778D01*
X0103094Y0219548D01*
X0102428Y0217941D01*
X0102428Y0210659D01*
X0103094Y0209052D01*
X0104324Y0207822D01*
X0105930Y0207157D01*
X0107670Y0207157D01*
X0109276Y0207822D01*
X0109400Y0207946D01*
X0109400Y0200654D01*
X0109276Y0200778D01*
X0107670Y0201443D01*
X0105930Y0201443D01*
X0104324Y0200778D01*
X0103094Y0199548D01*
X0102428Y0197941D01*
X0102428Y0190659D01*
X0103094Y0189052D01*
X0104324Y0187822D01*
X0105930Y0187157D01*
X0107670Y0187157D01*
X0109276Y0187822D01*
X0109400Y0187946D01*
X0109400Y0187573D01*
X0109765Y0186691D01*
X0116015Y0180441D01*
X0116691Y0179765D01*
X0117573Y0179400D01*
X0123306Y0179400D01*
X0131900Y0170806D01*
X0131900Y0162573D01*
X0132265Y0161691D01*
X0136900Y0157056D01*
X0136900Y0142794D01*
X0134373Y0140267D01*
X0134279Y0140361D01*
X0132735Y0141000D01*
X0125865Y0141000D01*
X0124321Y0140361D01*
X0123139Y0139179D01*
X0122500Y0137635D01*
X0122500Y0135965D01*
X0123139Y0134421D01*
X0124321Y0133239D01*
X0125865Y0132600D01*
X0132735Y0132600D01*
X0134279Y0133239D01*
X0135461Y0134421D01*
X0135592Y0134737D01*
X0135659Y0134765D01*
X0136335Y0135441D01*
X0139400Y0138506D01*
X0139400Y0062794D01*
X0135806Y0059200D01*
X0135440Y0059200D01*
X0134279Y0060361D01*
X0132735Y0061000D01*
X0125865Y0061000D01*
X0124321Y0060361D01*
X0123139Y0059179D01*
X0122500Y0057635D01*
X0122500Y0055965D01*
X0123139Y0054421D01*
X0124321Y0053239D01*
X0125865Y0052600D01*
X0132735Y0052600D01*
X0134279Y0053239D01*
X0135440Y0054400D01*
X0137277Y0054400D01*
X0138159Y0054765D01*
X0141900Y0058506D01*
X0141900Y0050073D01*
X0142265Y0049191D01*
X0142941Y0048515D01*
X0155441Y0036015D01*
X0156323Y0035650D01*
X0337056Y0035650D01*
X0339191Y0033515D01*
X0340073Y0033150D01*
X0382056Y0033150D01*
X0384191Y0031015D01*
X0385073Y0030650D01*
X0418527Y0030650D01*
X0419409Y0031015D01*
X0420998Y0032604D02*
X0471700Y0032604D01*
X0471700Y0034202D02*
X0422596Y0034202D01*
X0424195Y0035801D02*
X0471700Y0035801D01*
X0471700Y0037399D02*
X0425793Y0037399D01*
X0426700Y0038998D02*
X0471700Y0038998D01*
X0471700Y0040596D02*
X0467179Y0040596D01*
X0466807Y0040224D02*
X0468051Y0041468D01*
X0468725Y0043095D01*
X0468725Y0050505D01*
X0468051Y0052132D01*
X0466807Y0053376D01*
X0465180Y0054050D01*
X0463420Y0054050D01*
X0461793Y0053376D01*
X0460549Y0052132D01*
X0459875Y0050505D01*
X0459875Y0043095D01*
X0460549Y0041468D01*
X0461793Y0040224D01*
X0463420Y0039550D01*
X0465180Y0039550D01*
X0466807Y0040224D01*
X0468352Y0042195D02*
X0471700Y0042195D01*
X0471700Y0043793D02*
X0468725Y0043793D01*
X0468725Y0045392D02*
X0471700Y0045392D01*
X0471700Y0046990D02*
X0468725Y0046990D01*
X0468725Y0048589D02*
X0471700Y0048589D01*
X0471700Y0050187D02*
X0468725Y0050187D01*
X0468194Y0051786D02*
X0471700Y0051786D01*
X0471700Y0053384D02*
X0466787Y0053384D01*
X0461813Y0053384D02*
X0456994Y0053384D01*
X0456724Y0053581D02*
X0456075Y0053911D01*
X0455383Y0054136D01*
X0454664Y0054250D01*
X0454412Y0054250D01*
X0454412Y0046913D01*
X0454187Y0046913D01*
X0454187Y0054250D01*
X0453936Y0054250D01*
X0453217Y0054136D01*
X0452525Y0053911D01*
X0451876Y0053581D01*
X0451287Y0053153D01*
X0450772Y0052638D01*
X0450344Y0052049D01*
X0450014Y0051400D01*
X0449789Y0050708D01*
X0449675Y0049989D01*
X0449675Y0046912D01*
X0454187Y0046912D01*
X0454187Y0046687D01*
X0449675Y0046687D01*
X0449675Y0043611D01*
X0449789Y0042892D01*
X0450014Y0042200D01*
X0450344Y0041551D01*
X0450772Y0040962D01*
X0451287Y0040447D01*
X0451876Y0040019D01*
X0452525Y0039689D01*
X0453217Y0039464D01*
X0453936Y0039350D01*
X0454187Y0039350D01*
X0454187Y0046687D01*
X0454412Y0046687D01*
X0454412Y0039350D01*
X0454664Y0039350D01*
X0455383Y0039464D01*
X0456075Y0039689D01*
X0456724Y0040019D01*
X0457313Y0040447D01*
X0457828Y0040962D01*
X0458256Y0041551D01*
X0458586Y0042200D01*
X0458811Y0042892D01*
X0458925Y0043611D01*
X0458925Y0046687D01*
X0454413Y0046687D01*
X0454413Y0046912D01*
X0458925Y0046912D01*
X0458925Y0049989D01*
X0458811Y0050708D01*
X0458586Y0051400D01*
X0458256Y0052049D01*
X0457828Y0052638D01*
X0457313Y0053153D01*
X0456724Y0053581D01*
X0454412Y0053384D02*
X0454187Y0053384D01*
X0454187Y0051786D02*
X0454412Y0051786D01*
X0454412Y0050187D02*
X0454187Y0050187D01*
X0454187Y0048589D02*
X0454412Y0048589D01*
X0454412Y0046990D02*
X0454187Y0046990D01*
X0454187Y0045392D02*
X0454412Y0045392D01*
X0454412Y0043793D02*
X0454187Y0043793D01*
X0454187Y0042195D02*
X0454412Y0042195D01*
X0454412Y0040596D02*
X0454187Y0040596D01*
X0451138Y0040596D02*
X0447179Y0040596D01*
X0446807Y0040224D02*
X0448051Y0041468D01*
X0448725Y0043095D01*
X0448725Y0050505D01*
X0448051Y0052132D01*
X0446807Y0053376D01*
X0445180Y0054050D01*
X0443420Y0054050D01*
X0441793Y0053376D01*
X0440549Y0052132D01*
X0439875Y0050505D01*
X0439875Y0043095D01*
X0440549Y0041468D01*
X0441793Y0040224D01*
X0443420Y0039550D01*
X0445180Y0039550D01*
X0446807Y0040224D01*
X0448352Y0042195D02*
X0450016Y0042195D01*
X0449675Y0043793D02*
X0448725Y0043793D01*
X0448725Y0045392D02*
X0449675Y0045392D01*
X0449675Y0046990D02*
X0448725Y0046990D01*
X0448725Y0048589D02*
X0449675Y0048589D01*
X0449706Y0050187D02*
X0448725Y0050187D01*
X0448194Y0051786D02*
X0450210Y0051786D01*
X0451606Y0053384D02*
X0446787Y0053384D01*
X0441813Y0053384D02*
X0436787Y0053384D01*
X0436807Y0053376D02*
X0435180Y0054050D01*
X0433420Y0054050D01*
X0431793Y0053376D01*
X0430549Y0052132D01*
X0429875Y0050505D01*
X0429875Y0043095D01*
X0430549Y0041468D01*
X0431793Y0040224D01*
X0433420Y0039550D01*
X0435180Y0039550D01*
X0436807Y0040224D01*
X0438051Y0041468D01*
X0438725Y0043095D01*
X0438725Y0050505D01*
X0438051Y0052132D01*
X0436807Y0053376D01*
X0438194Y0051786D02*
X0440406Y0051786D01*
X0439875Y0050187D02*
X0438725Y0050187D01*
X0438725Y0048589D02*
X0439875Y0048589D01*
X0439875Y0046990D02*
X0438725Y0046990D01*
X0438725Y0045392D02*
X0439875Y0045392D01*
X0439875Y0043793D02*
X0438725Y0043793D01*
X0438352Y0042195D02*
X0440248Y0042195D01*
X0441421Y0040596D02*
X0437179Y0040596D01*
X0431421Y0040596D02*
X0427179Y0040596D01*
X0428352Y0042195D02*
X0430248Y0042195D01*
X0429875Y0043793D02*
X0428725Y0043793D01*
X0428725Y0045392D02*
X0429875Y0045392D01*
X0429875Y0046990D02*
X0428725Y0046990D01*
X0428725Y0048589D02*
X0429875Y0048589D01*
X0429875Y0050187D02*
X0428725Y0050187D01*
X0428194Y0051786D02*
X0430406Y0051786D01*
X0431813Y0053384D02*
X0426787Y0053384D01*
X0421813Y0053384D02*
X0421700Y0053384D01*
X0420761Y0054983D02*
X0471700Y0054983D01*
X0471700Y0056582D02*
X0419163Y0056582D01*
X0417564Y0058180D02*
X0471700Y0058180D01*
X0471700Y0059779D02*
X0409716Y0059779D01*
X0409200Y0061377D02*
X0471700Y0061377D01*
X0471700Y0062976D02*
X0409200Y0062976D01*
X0409200Y0064574D02*
X0471700Y0064574D01*
X0471700Y0066173D02*
X0409200Y0066173D01*
X0409200Y0067771D02*
X0471700Y0067771D01*
X0471700Y0069370D02*
X0409200Y0069370D01*
X0410612Y0070968D02*
X0471700Y0070968D01*
X0471700Y0072567D02*
X0411698Y0072567D01*
X0411700Y0074165D02*
X0471700Y0074165D01*
X0471700Y0075764D02*
X0411700Y0075764D01*
X0411700Y0077362D02*
X0471700Y0077362D01*
X0471700Y0078961D02*
X0411700Y0078961D01*
X0411376Y0080559D02*
X0471700Y0080559D01*
X0471700Y0082158D02*
X0409836Y0082158D01*
X0408238Y0083756D02*
X0471700Y0083756D01*
X0471700Y0085355D02*
X0405076Y0085355D01*
X0403524Y0085355D02*
X0401700Y0085355D01*
X0401700Y0086953D02*
X0471700Y0086953D01*
X0471700Y0088552D02*
X0403196Y0088552D01*
X0404794Y0090150D02*
X0471700Y0090150D01*
X0471700Y0091749D02*
X0417643Y0091749D01*
X0419241Y0093347D02*
X0471700Y0093347D01*
X0471700Y0094946D02*
X0420840Y0094946D01*
X0422438Y0096544D02*
X0471700Y0096544D01*
X0471700Y0098143D02*
X0424037Y0098143D01*
X0425642Y0099741D02*
X0432958Y0099741D01*
X0433420Y0099550D02*
X0435180Y0099550D01*
X0436807Y0100224D01*
X0438051Y0101468D01*
X0438725Y0103095D01*
X0438725Y0110505D01*
X0438051Y0112132D01*
X0436807Y0113376D01*
X0435180Y0114050D01*
X0433420Y0114050D01*
X0431793Y0113376D01*
X0430549Y0112132D01*
X0429875Y0110505D01*
X0429875Y0103095D01*
X0430549Y0101468D01*
X0431793Y0100224D01*
X0433420Y0099550D01*
X0435642Y0099741D02*
X0442958Y0099741D01*
X0443420Y0099550D02*
X0445180Y0099550D01*
X0446807Y0100224D01*
X0448051Y0101468D01*
X0448725Y0103095D01*
X0448725Y0110505D01*
X0448051Y0112132D01*
X0446807Y0113376D01*
X0445180Y0114050D01*
X0443420Y0114050D01*
X0441793Y0113376D01*
X0440549Y0112132D01*
X0439875Y0110505D01*
X0439875Y0103095D01*
X0440549Y0101468D01*
X0441793Y0100224D01*
X0443420Y0099550D01*
X0445642Y0099741D02*
X0452958Y0099741D01*
X0453420Y0099550D02*
X0455180Y0099550D01*
X0456807Y0100224D01*
X0458051Y0101468D01*
X0458725Y0103095D01*
X0458725Y0110505D01*
X0458051Y0112132D01*
X0456807Y0113376D01*
X0455180Y0114050D01*
X0453420Y0114050D01*
X0451793Y0113376D01*
X0450549Y0112132D01*
X0449875Y0110505D01*
X0449875Y0103095D01*
X0450549Y0101468D01*
X0451793Y0100224D01*
X0453420Y0099550D01*
X0455642Y0099741D02*
X0462958Y0099741D01*
X0463420Y0099550D02*
X0465180Y0099550D01*
X0466807Y0100224D01*
X0468051Y0101468D01*
X0468725Y0103095D01*
X0468725Y0110505D01*
X0468051Y0112132D01*
X0466807Y0113376D01*
X0465180Y0114050D01*
X0463420Y0114050D01*
X0461793Y0113376D01*
X0460549Y0112132D01*
X0459875Y0110505D01*
X0459875Y0103095D01*
X0460549Y0101468D01*
X0461793Y0100224D01*
X0463420Y0099550D01*
X0465642Y0099741D02*
X0471700Y0099741D01*
X0471700Y0101340D02*
X0467923Y0101340D01*
X0468660Y0102938D02*
X0471700Y0102938D01*
X0471700Y0104537D02*
X0468725Y0104537D01*
X0468725Y0106135D02*
X0471700Y0106135D01*
X0471700Y0107734D02*
X0468725Y0107734D01*
X0468725Y0109332D02*
X0471700Y0109332D01*
X0471700Y0110931D02*
X0468549Y0110931D01*
X0467653Y0112529D02*
X0471700Y0112529D01*
X0471700Y0114128D02*
X0421700Y0114128D01*
X0421700Y0115726D02*
X0471700Y0115726D01*
X0471700Y0117325D02*
X0421700Y0117325D01*
X0421700Y0118923D02*
X0471700Y0118923D01*
X0471700Y0120522D02*
X0421700Y0120522D01*
X0421700Y0122120D02*
X0471700Y0122120D01*
X0471700Y0123719D02*
X0421700Y0123719D01*
X0421700Y0125318D02*
X0471700Y0125318D01*
X0471700Y0126916D02*
X0421700Y0126916D01*
X0421700Y0128515D02*
X0471700Y0128515D01*
X0471700Y0130113D02*
X0421700Y0130113D01*
X0421700Y0131712D02*
X0471700Y0131712D01*
X0471700Y0133310D02*
X0421700Y0133310D01*
X0421700Y0134909D02*
X0471700Y0134909D01*
X0471700Y0136507D02*
X0421700Y0136507D01*
X0421700Y0138106D02*
X0471700Y0138106D01*
X0471700Y0139704D02*
X0421700Y0139704D01*
X0421700Y0141303D02*
X0471700Y0141303D01*
X0471700Y0142901D02*
X0421700Y0142901D01*
X0421700Y0144500D02*
X0471700Y0144500D01*
X0471700Y0146098D02*
X0421700Y0146098D01*
X0421700Y0147697D02*
X0471700Y0147697D01*
X0471700Y0149295D02*
X0421700Y0149295D01*
X0421700Y0150894D02*
X0471700Y0150894D01*
X0471700Y0152492D02*
X0421700Y0152492D01*
X0421700Y0154091D02*
X0471700Y0154091D01*
X0471700Y0155689D02*
X0421700Y0155689D01*
X0421700Y0157288D02*
X0471700Y0157288D01*
X0471700Y0158886D02*
X0421700Y0158886D01*
X0421700Y0160485D02*
X0471700Y0160485D01*
X0471700Y0162083D02*
X0421700Y0162083D01*
X0421700Y0163682D02*
X0471700Y0163682D01*
X0471700Y0165280D02*
X0421700Y0165280D01*
X0421700Y0166879D02*
X0471700Y0166879D01*
X0471700Y0168477D02*
X0421700Y0168477D01*
X0421700Y0170076D02*
X0471700Y0170076D01*
X0471700Y0171674D02*
X0421700Y0171674D01*
X0421700Y0173273D02*
X0471700Y0173273D01*
X0471700Y0174871D02*
X0421700Y0174871D01*
X0421700Y0176470D02*
X0471700Y0176470D01*
X0471700Y0178068D02*
X0421700Y0178068D01*
X0421700Y0179667D02*
X0471700Y0179667D01*
X0471700Y0181265D02*
X0421700Y0181265D01*
X0421578Y0182864D02*
X0471700Y0182864D01*
X0471700Y0184462D02*
X0420296Y0184462D01*
X0418646Y0186061D02*
X0471700Y0186061D01*
X0471700Y0187659D02*
X0418632Y0187659D01*
X0418063Y0189258D02*
X0471700Y0189258D01*
X0471700Y0190856D02*
X0416454Y0190856D01*
X0417991Y0192455D02*
X0471700Y0192455D01*
X0471700Y0194053D02*
X0418632Y0194053D01*
X0418632Y0195652D02*
X0471700Y0195652D01*
X0471700Y0197251D02*
X0418014Y0197251D01*
X0416167Y0198849D02*
X0428208Y0198849D01*
X0428397Y0198660D02*
X0431384Y0197422D01*
X0434617Y0197422D01*
X0437605Y0198660D01*
X0439891Y0200946D01*
X0441128Y0203933D01*
X0441128Y0207167D01*
X0439891Y0210154D01*
X0437605Y0212440D01*
X0434617Y0213678D01*
X0431384Y0213678D01*
X0428397Y0212440D01*
X0426111Y0210154D01*
X0424873Y0207167D01*
X0424873Y0203933D01*
X0426111Y0200946D01*
X0428397Y0198660D01*
X0426609Y0200448D02*
X0391991Y0200448D01*
X0392489Y0200946D02*
X0393727Y0203933D01*
X0393727Y0207167D01*
X0392489Y0210154D01*
X0390203Y0212440D01*
X0387216Y0213678D01*
X0383983Y0213678D01*
X0380995Y0212440D01*
X0378709Y0210154D01*
X0377472Y0207167D01*
X0377472Y0203933D01*
X0378709Y0200946D01*
X0380995Y0198660D01*
X0383983Y0197422D01*
X0387216Y0197422D01*
X0390203Y0198660D01*
X0392489Y0200946D01*
X0392945Y0202046D02*
X0425655Y0202046D01*
X0424993Y0203645D02*
X0393607Y0203645D01*
X0393727Y0205243D02*
X0424873Y0205243D01*
X0424873Y0206842D02*
X0393727Y0206842D01*
X0393199Y0208440D02*
X0425401Y0208440D01*
X0426063Y0210039D02*
X0392537Y0210039D01*
X0391006Y0211637D02*
X0427594Y0211637D01*
X0430317Y0213236D02*
X0388283Y0213236D01*
X0382916Y0213236D02*
X0281172Y0213236D01*
X0281172Y0214834D02*
X0471700Y0214834D01*
X0471700Y0213236D02*
X0435684Y0213236D01*
X0438408Y0211637D02*
X0471700Y0211637D01*
X0471700Y0210039D02*
X0439939Y0210039D01*
X0440601Y0208440D02*
X0471700Y0208440D01*
X0471700Y0206842D02*
X0441128Y0206842D01*
X0441128Y0205243D02*
X0471700Y0205243D01*
X0471700Y0203645D02*
X0441009Y0203645D01*
X0440347Y0202046D02*
X0471700Y0202046D01*
X0471700Y0200448D02*
X0439392Y0200448D01*
X0437794Y0198849D02*
X0471700Y0198849D01*
X0471700Y0216433D02*
X0281172Y0216433D01*
X0281134Y0218031D02*
X0471700Y0218031D01*
X0471700Y0219630D02*
X0280424Y0219630D01*
X0278189Y0221228D02*
X0471700Y0221228D01*
X0471700Y0222827D02*
X0274200Y0222827D01*
X0274200Y0221228D02*
X0275411Y0221228D01*
X0273819Y0224425D02*
X0471700Y0224425D01*
X0471700Y0226024D02*
X0272220Y0226024D01*
X0270622Y0227622D02*
X0471700Y0227622D01*
X0471700Y0229221D02*
X0269023Y0229221D01*
X0267425Y0230819D02*
X0471700Y0230819D01*
X0471610Y0232418D02*
X0014489Y0232418D01*
X0014400Y0230819D02*
X0052425Y0230819D01*
X0050827Y0229221D02*
X0014400Y0229221D01*
X0014400Y0227622D02*
X0049228Y0227622D01*
X0047630Y0226024D02*
X0014400Y0226024D01*
X0014400Y0224425D02*
X0046031Y0224425D01*
X0044628Y0222827D02*
X0014400Y0222827D01*
X0014400Y0221228D02*
X0035411Y0221228D01*
X0035930Y0221443D02*
X0034324Y0220778D01*
X0033094Y0219548D01*
X0032428Y0217941D01*
X0032428Y0210659D01*
X0033094Y0209052D01*
X0034324Y0207822D01*
X0035930Y0207157D01*
X0037670Y0207157D01*
X0039276Y0207822D01*
X0040506Y0209052D01*
X0041172Y0210659D01*
X0041172Y0217941D01*
X0040506Y0219548D01*
X0039276Y0220778D01*
X0037670Y0221443D01*
X0035930Y0221443D01*
X0038189Y0221228D02*
X0044400Y0221228D01*
X0043176Y0219630D02*
X0040424Y0219630D01*
X0041134Y0218031D02*
X0042466Y0218031D01*
X0042428Y0216433D02*
X0041172Y0216433D01*
X0041172Y0214834D02*
X0042428Y0214834D01*
X0042428Y0213236D02*
X0041172Y0213236D01*
X0041172Y0211637D02*
X0042428Y0211637D01*
X0042685Y0210039D02*
X0040915Y0210039D01*
X0039894Y0208440D02*
X0043706Y0208440D01*
X0049894Y0208440D02*
X0053706Y0208440D01*
X0053094Y0209052D02*
X0054324Y0207822D01*
X0055930Y0207157D01*
X0057670Y0207157D01*
X0059276Y0207822D01*
X0060506Y0209052D01*
X0061172Y0210659D01*
X0061172Y0217941D01*
X0060506Y0219548D01*
X0059276Y0220778D01*
X0057670Y0221443D01*
X0055930Y0221443D01*
X0054324Y0220778D01*
X0053094Y0219548D01*
X0052428Y0217941D01*
X0052428Y0210659D01*
X0053094Y0209052D01*
X0052685Y0210039D02*
X0050915Y0210039D01*
X0051172Y0211637D02*
X0052428Y0211637D01*
X0052428Y0213236D02*
X0051172Y0213236D01*
X0051172Y0214834D02*
X0052428Y0214834D01*
X0052428Y0216433D02*
X0051172Y0216433D01*
X0051134Y0218031D02*
X0052466Y0218031D01*
X0053176Y0219630D02*
X0050424Y0219630D01*
X0049622Y0221228D02*
X0055411Y0221228D01*
X0058189Y0221228D02*
X0065411Y0221228D01*
X0065930Y0221443D02*
X0064324Y0220778D01*
X0063094Y0219548D01*
X0062428Y0217941D01*
X0062428Y0210659D01*
X0063094Y0209052D01*
X0064324Y0207822D01*
X0065930Y0207157D01*
X0067670Y0207157D01*
X0069276Y0207822D01*
X0070506Y0209052D01*
X0071172Y0210659D01*
X0071172Y0217941D01*
X0070506Y0219548D01*
X0069276Y0220778D01*
X0067670Y0221443D01*
X0065930Y0221443D01*
X0068189Y0221228D02*
X0075411Y0221228D01*
X0075930Y0221443D02*
X0074324Y0220778D01*
X0073094Y0219548D01*
X0072428Y0217941D01*
X0072428Y0210659D01*
X0073094Y0209052D01*
X0074324Y0207822D01*
X0075930Y0207157D01*
X0077670Y0207157D01*
X0079276Y0207822D01*
X0080506Y0209052D01*
X0081172Y0210659D01*
X0081172Y0217941D01*
X0080506Y0219548D01*
X0079276Y0220778D01*
X0077670Y0221443D01*
X0075930Y0221443D01*
X0078189Y0221228D02*
X0085411Y0221228D01*
X0085930Y0221443D02*
X0084324Y0220778D01*
X0083094Y0219548D01*
X0082428Y0217941D01*
X0082428Y0210659D01*
X0083094Y0209052D01*
X0084324Y0207822D01*
X0085930Y0207157D01*
X0087670Y0207157D01*
X0089276Y0207822D01*
X0090506Y0209052D01*
X0091172Y0210659D01*
X0091172Y0217941D01*
X0090506Y0219548D01*
X0089276Y0220778D01*
X0087670Y0221443D01*
X0085930Y0221443D01*
X0088189Y0221228D02*
X0095411Y0221228D01*
X0095930Y0221443D02*
X0094324Y0220778D01*
X0093094Y0219548D01*
X0092428Y0217941D01*
X0092428Y0210659D01*
X0093094Y0209052D01*
X0094324Y0207822D01*
X0095930Y0207157D01*
X0097670Y0207157D01*
X0099276Y0207822D01*
X0100506Y0209052D01*
X0101172Y0210659D01*
X0101172Y0217941D01*
X0100506Y0219548D01*
X0099276Y0220778D01*
X0097670Y0221443D01*
X0095930Y0221443D01*
X0098189Y0221228D02*
X0105411Y0221228D01*
X0103176Y0219630D02*
X0100424Y0219630D01*
X0101134Y0218031D02*
X0102466Y0218031D01*
X0102428Y0216433D02*
X0101172Y0216433D01*
X0101172Y0214834D02*
X0102428Y0214834D01*
X0102428Y0213236D02*
X0101172Y0213236D01*
X0101172Y0211637D02*
X0102428Y0211637D01*
X0102685Y0210039D02*
X0100915Y0210039D01*
X0099894Y0208440D02*
X0103706Y0208440D01*
X0109400Y0206842D02*
X0014400Y0206842D01*
X0014400Y0208440D02*
X0033706Y0208440D01*
X0032685Y0210039D02*
X0014400Y0210039D01*
X0014400Y0211637D02*
X0032428Y0211637D01*
X0032428Y0213236D02*
X0014400Y0213236D01*
X0014400Y0214834D02*
X0032428Y0214834D01*
X0032428Y0216433D02*
X0014400Y0216433D01*
X0014400Y0218031D02*
X0032466Y0218031D01*
X0033176Y0219630D02*
X0014400Y0219630D01*
X0014400Y0205243D02*
X0109400Y0205243D01*
X0109400Y0203645D02*
X0014400Y0203645D01*
X0014400Y0202046D02*
X0109400Y0202046D01*
X0103993Y0200448D02*
X0099607Y0200448D01*
X0099276Y0200778D02*
X0097670Y0201443D01*
X0095930Y0201443D01*
X0094324Y0200778D01*
X0093094Y0199548D01*
X0092428Y0197941D01*
X0092428Y0190659D01*
X0093094Y0189052D01*
X0094324Y0187822D01*
X0095930Y0187157D01*
X0097670Y0187157D01*
X0099276Y0187822D01*
X0100506Y0189052D01*
X0101172Y0190659D01*
X0101172Y0197941D01*
X0100506Y0199548D01*
X0099276Y0200778D01*
X0100796Y0198849D02*
X0102804Y0198849D01*
X0102428Y0197251D02*
X0101172Y0197251D01*
X0101172Y0195652D02*
X0102428Y0195652D01*
X0102428Y0194053D02*
X0101172Y0194053D01*
X0101172Y0192455D02*
X0102428Y0192455D01*
X0102428Y0190856D02*
X0101172Y0190856D01*
X0100591Y0189258D02*
X0103009Y0189258D01*
X0104717Y0187659D02*
X0098883Y0187659D01*
X0094717Y0187659D02*
X0088883Y0187659D01*
X0089276Y0187822D02*
X0090506Y0189052D01*
X0091172Y0190659D01*
X0091172Y0197941D01*
X0090506Y0199548D01*
X0089276Y0200778D01*
X0087670Y0201443D01*
X0085930Y0201443D01*
X0084324Y0200778D01*
X0083094Y0199548D01*
X0082428Y0197941D01*
X0082428Y0190659D01*
X0083094Y0189052D01*
X0084324Y0187822D01*
X0085930Y0187157D01*
X0087670Y0187157D01*
X0089276Y0187822D01*
X0090591Y0189258D02*
X0093009Y0189258D01*
X0092428Y0190856D02*
X0091172Y0190856D01*
X0091172Y0192455D02*
X0092428Y0192455D01*
X0092428Y0194053D02*
X0091172Y0194053D01*
X0091172Y0195652D02*
X0092428Y0195652D01*
X0092428Y0197251D02*
X0091172Y0197251D01*
X0090796Y0198849D02*
X0092804Y0198849D01*
X0093993Y0200448D02*
X0089607Y0200448D01*
X0083993Y0200448D02*
X0079607Y0200448D01*
X0079276Y0200778D02*
X0077670Y0201443D01*
X0075930Y0201443D01*
X0074324Y0200778D01*
X0073094Y0199548D01*
X0072428Y0197941D01*
X0072428Y0190659D01*
X0073094Y0189052D01*
X0074324Y0187822D01*
X0075930Y0187157D01*
X0077670Y0187157D01*
X0079276Y0187822D01*
X0080506Y0189052D01*
X0081172Y0190659D01*
X0081172Y0197941D01*
X0080506Y0199548D01*
X0079276Y0200778D01*
X0080796Y0198849D02*
X0082804Y0198849D01*
X0082428Y0197251D02*
X0081172Y0197251D01*
X0081172Y0195652D02*
X0082428Y0195652D01*
X0082428Y0194053D02*
X0081172Y0194053D01*
X0081172Y0192455D02*
X0082428Y0192455D01*
X0082428Y0190856D02*
X0081172Y0190856D01*
X0080591Y0189258D02*
X0083009Y0189258D01*
X0084717Y0187659D02*
X0078883Y0187659D01*
X0074717Y0187659D02*
X0068883Y0187659D01*
X0069276Y0187822D02*
X0070506Y0189052D01*
X0071172Y0190659D01*
X0071172Y0197941D01*
X0070506Y0199548D01*
X0069276Y0200778D01*
X0067670Y0201443D01*
X0065930Y0201443D01*
X0064324Y0200778D01*
X0063094Y0199548D01*
X0062428Y0197941D01*
X0062428Y0190659D01*
X0063094Y0189052D01*
X0064324Y0187822D01*
X0065930Y0187157D01*
X0067670Y0187157D01*
X0069276Y0187822D01*
X0070591Y0189258D02*
X0073009Y0189258D01*
X0072428Y0190856D02*
X0071172Y0190856D01*
X0071172Y0192455D02*
X0072428Y0192455D01*
X0072428Y0194053D02*
X0071172Y0194053D01*
X0071172Y0195652D02*
X0072428Y0195652D01*
X0072428Y0197251D02*
X0071172Y0197251D01*
X0070796Y0198849D02*
X0072804Y0198849D01*
X0073993Y0200448D02*
X0069607Y0200448D01*
X0063993Y0200448D02*
X0059607Y0200448D01*
X0059276Y0200778D02*
X0057670Y0201443D01*
X0055930Y0201443D01*
X0054324Y0200778D01*
X0053094Y0199548D01*
X0052428Y0197941D01*
X0052428Y0190659D01*
X0053094Y0189052D01*
X0054324Y0187822D01*
X0055930Y0187157D01*
X0057670Y0187157D01*
X0059276Y0187822D01*
X0060506Y0189052D01*
X0061172Y0190659D01*
X0061172Y0197941D01*
X0060506Y0199548D01*
X0059276Y0200778D01*
X0060796Y0198849D02*
X0062804Y0198849D01*
X0062428Y0197251D02*
X0061172Y0197251D01*
X0061172Y0195652D02*
X0062428Y0195652D01*
X0062428Y0194053D02*
X0061172Y0194053D01*
X0061172Y0192455D02*
X0062428Y0192455D01*
X0062428Y0190856D02*
X0061172Y0190856D01*
X0060591Y0189258D02*
X0063009Y0189258D01*
X0064717Y0187659D02*
X0058883Y0187659D01*
X0054717Y0187659D02*
X0048883Y0187659D01*
X0049276Y0187822D02*
X0050506Y0189052D01*
X0051172Y0190659D01*
X0051172Y0197941D01*
X0050506Y0199548D01*
X0049276Y0200778D01*
X0047670Y0201443D01*
X0045930Y0201443D01*
X0044324Y0200778D01*
X0043094Y0199548D01*
X0042428Y0197941D01*
X0042428Y0190659D01*
X0043094Y0189052D01*
X0044324Y0187822D01*
X0045930Y0187157D01*
X0047670Y0187157D01*
X0049276Y0187822D01*
X0050591Y0189258D02*
X0053009Y0189258D01*
X0052428Y0190856D02*
X0051172Y0190856D01*
X0051172Y0192455D02*
X0052428Y0192455D01*
X0052428Y0194053D02*
X0051172Y0194053D01*
X0051172Y0195652D02*
X0052428Y0195652D01*
X0052428Y0197251D02*
X0051172Y0197251D01*
X0050796Y0198849D02*
X0052804Y0198849D01*
X0053993Y0200448D02*
X0049607Y0200448D01*
X0043993Y0200448D02*
X0039607Y0200448D01*
X0039276Y0200778D02*
X0037670Y0201443D01*
X0035930Y0201443D01*
X0034324Y0200778D01*
X0033094Y0199548D01*
X0032428Y0197941D01*
X0032428Y0190659D01*
X0033094Y0189052D01*
X0034324Y0187822D01*
X0035930Y0187157D01*
X0037670Y0187157D01*
X0039276Y0187822D01*
X0040506Y0189052D01*
X0041172Y0190659D01*
X0041172Y0197941D01*
X0040506Y0199548D01*
X0039276Y0200778D01*
X0040796Y0198849D02*
X0042804Y0198849D01*
X0042428Y0197251D02*
X0041172Y0197251D01*
X0041172Y0195652D02*
X0042428Y0195652D01*
X0042428Y0194053D02*
X0041172Y0194053D01*
X0041172Y0192455D02*
X0042428Y0192455D01*
X0042428Y0190856D02*
X0041172Y0190856D01*
X0040591Y0189258D02*
X0043009Y0189258D01*
X0044717Y0187659D02*
X0038883Y0187659D01*
X0034717Y0187659D02*
X0014400Y0187659D01*
X0014400Y0186061D02*
X0110395Y0186061D01*
X0109400Y0187659D02*
X0108883Y0187659D01*
X0111800Y0188050D02*
X0118050Y0181800D01*
X0124300Y0181800D01*
X0134300Y0171800D01*
X0134300Y0163050D01*
X0139300Y0158050D01*
X0139300Y0141800D01*
X0134300Y0136800D01*
X0129300Y0136800D01*
X0134350Y0133310D02*
X0139400Y0133310D01*
X0139400Y0131712D02*
X0056603Y0131712D01*
X0056636Y0131679D02*
X0055454Y0132861D01*
X0053910Y0133500D01*
X0047040Y0133500D01*
X0045496Y0132861D01*
X0044314Y0131679D01*
X0043675Y0130135D01*
X0043675Y0128465D01*
X0044314Y0126921D01*
X0045496Y0125739D01*
X0047040Y0125100D01*
X0053910Y0125100D01*
X0055454Y0125739D01*
X0056636Y0126921D01*
X0057275Y0128465D01*
X0057275Y0130135D01*
X0056636Y0131679D01*
X0057275Y0130113D02*
X0124073Y0130113D01*
X0124321Y0130361D02*
X0123139Y0129179D01*
X0122500Y0127635D01*
X0122500Y0125965D01*
X0123139Y0124421D01*
X0124321Y0123239D01*
X0125865Y0122600D01*
X0132735Y0122600D01*
X0134279Y0123239D01*
X0135461Y0124421D01*
X0136100Y0125965D01*
X0136100Y0127635D01*
X0135461Y0129179D01*
X0134279Y0130361D01*
X0132735Y0131000D01*
X0125865Y0131000D01*
X0124321Y0130361D01*
X0122864Y0128515D02*
X0057275Y0128515D01*
X0056631Y0126916D02*
X0122500Y0126916D01*
X0122768Y0125318D02*
X0054436Y0125318D01*
X0053910Y0123700D02*
X0047040Y0123700D01*
X0045496Y0123061D01*
X0044314Y0121879D01*
X0043675Y0120335D01*
X0043675Y0118665D01*
X0044314Y0117121D01*
X0045496Y0115939D01*
X0047040Y0115300D01*
X0053910Y0115300D01*
X0055454Y0115939D01*
X0056636Y0117121D01*
X0057275Y0118665D01*
X0057275Y0120335D01*
X0056636Y0121879D01*
X0055454Y0123061D01*
X0053910Y0123700D01*
X0056394Y0122120D02*
X0087691Y0122120D01*
X0086900Y0121330D02*
X0086900Y0119300D01*
X0091800Y0119300D01*
X0091800Y0119300D01*
X0091800Y0124200D01*
X0093830Y0124200D01*
X0096700Y0121330D01*
X0096700Y0119300D01*
X0091800Y0119300D01*
X0091800Y0119300D01*
X0091800Y0119300D01*
X0091800Y0124200D01*
X0089770Y0124200D01*
X0086900Y0121330D01*
X0086900Y0120522D02*
X0057198Y0120522D01*
X0057275Y0118923D02*
X0086900Y0118923D01*
X0086900Y0119300D02*
X0086900Y0117270D01*
X0089770Y0114400D01*
X0091800Y0114400D01*
X0093830Y0114400D01*
X0096700Y0117270D01*
X0096700Y0119300D01*
X0091800Y0119300D01*
X0091800Y0114400D01*
X0091800Y0119300D01*
X0091800Y0119300D01*
X0086900Y0119300D01*
X0086900Y0117325D02*
X0056720Y0117325D01*
X0054940Y0115726D02*
X0088444Y0115726D01*
X0089853Y0114000D02*
X0087100Y0111247D01*
X0087100Y0107353D01*
X0089853Y0104600D01*
X0093747Y0104600D01*
X0096500Y0107353D01*
X0096500Y0111247D01*
X0093747Y0114000D01*
X0089853Y0114000D01*
X0088383Y0112529D02*
X0072010Y0112529D01*
X0071040Y0113500D02*
X0067560Y0113500D01*
X0065100Y0111040D01*
X0065100Y0107560D01*
X0067560Y0105100D01*
X0071040Y0105100D01*
X0073500Y0107560D01*
X0073500Y0111040D01*
X0071040Y0113500D01*
X0073500Y0110931D02*
X0087100Y0110931D01*
X0087100Y0109332D02*
X0073500Y0109332D01*
X0073500Y0107734D02*
X0087100Y0107734D01*
X0088318Y0106135D02*
X0072075Y0106135D01*
X0066525Y0106135D02*
X0014400Y0106135D01*
X0014400Y0104537D02*
X0123091Y0104537D01*
X0123139Y0104421D02*
X0124321Y0103239D01*
X0125865Y0102600D01*
X0132735Y0102600D01*
X0134279Y0103239D01*
X0135461Y0104421D01*
X0136100Y0105965D01*
X0136100Y0107635D01*
X0135461Y0109179D01*
X0134279Y0110361D01*
X0132735Y0111000D01*
X0125865Y0111000D01*
X0124321Y0110361D01*
X0123139Y0109179D01*
X0122500Y0107635D01*
X0122500Y0105965D01*
X0123139Y0104421D01*
X0122500Y0106135D02*
X0095282Y0106135D01*
X0096500Y0107734D02*
X0122541Y0107734D01*
X0123293Y0109332D02*
X0096500Y0109332D01*
X0096500Y0110931D02*
X0125698Y0110931D01*
X0125865Y0112600D02*
X0124321Y0113239D01*
X0123139Y0114421D01*
X0122500Y0115965D01*
X0122500Y0117635D01*
X0123139Y0119179D01*
X0124321Y0120361D01*
X0125865Y0121000D01*
X0132735Y0121000D01*
X0134279Y0120361D01*
X0135461Y0119179D01*
X0136100Y0117635D01*
X0136100Y0115965D01*
X0135461Y0114421D01*
X0134279Y0113239D01*
X0132735Y0112600D01*
X0125865Y0112600D01*
X0123432Y0114128D02*
X0014400Y0114128D01*
X0014400Y0115726D02*
X0022410Y0115726D01*
X0021896Y0115939D02*
X0023440Y0115300D01*
X0030310Y0115300D01*
X0031854Y0115939D01*
X0033036Y0117121D01*
X0033675Y0118665D01*
X0033675Y0120335D01*
X0033036Y0121879D01*
X0031854Y0123061D01*
X0030310Y0123700D01*
X0023440Y0123700D01*
X0021896Y0123061D01*
X0020714Y0121879D01*
X0020075Y0120335D01*
X0020075Y0118665D01*
X0020714Y0117121D01*
X0021896Y0115939D01*
X0020630Y0117325D02*
X0014400Y0117325D01*
X0014400Y0118923D02*
X0020075Y0118923D01*
X0020152Y0120522D02*
X0014400Y0120522D01*
X0014400Y0122120D02*
X0020956Y0122120D01*
X0021896Y0125739D02*
X0023440Y0125100D01*
X0030310Y0125100D01*
X0031854Y0125739D01*
X0033036Y0126921D01*
X0033675Y0128465D01*
X0033675Y0130135D01*
X0033036Y0131679D01*
X0031854Y0132861D01*
X0030310Y0133500D01*
X0023440Y0133500D01*
X0021896Y0132861D01*
X0020714Y0131679D01*
X0020075Y0130135D01*
X0020075Y0128465D01*
X0020714Y0126921D01*
X0021896Y0125739D01*
X0022914Y0125318D02*
X0014400Y0125318D01*
X0014400Y0126916D02*
X0020719Y0126916D01*
X0020075Y0128515D02*
X0014400Y0128515D01*
X0014400Y0130113D02*
X0020075Y0130113D01*
X0020747Y0131712D02*
X0014400Y0131712D01*
X0014400Y0133310D02*
X0022981Y0133310D01*
X0023440Y0134900D02*
X0021896Y0135539D01*
X0020714Y0136721D01*
X0020075Y0138265D01*
X0020075Y0139935D01*
X0020714Y0141479D01*
X0021896Y0142661D01*
X0023440Y0143300D01*
X0030310Y0143300D01*
X0031854Y0142661D01*
X0033036Y0141479D01*
X0033675Y0139935D01*
X0033675Y0138265D01*
X0033036Y0136721D01*
X0031854Y0135539D01*
X0030310Y0134900D01*
X0023440Y0134900D01*
X0023419Y0134909D02*
X0014400Y0134909D01*
X0014400Y0136507D02*
X0020928Y0136507D01*
X0020141Y0138106D02*
X0014400Y0138106D01*
X0014400Y0139704D02*
X0020075Y0139704D01*
X0020641Y0141303D02*
X0014400Y0141303D01*
X0014400Y0142901D02*
X0022477Y0142901D01*
X0014400Y0144500D02*
X0136900Y0144500D01*
X0136900Y0146098D02*
X0014400Y0146098D01*
X0014400Y0147697D02*
X0136900Y0147697D01*
X0136900Y0149295D02*
X0014400Y0149295D01*
X0014400Y0150894D02*
X0136900Y0150894D01*
X0136900Y0152492D02*
X0014400Y0152492D01*
X0014400Y0154091D02*
X0136900Y0154091D01*
X0136900Y0155689D02*
X0014400Y0155689D01*
X0014400Y0157288D02*
X0136668Y0157288D01*
X0135070Y0158886D02*
X0014400Y0158886D01*
X0014400Y0160485D02*
X0133471Y0160485D01*
X0132103Y0162083D02*
X0014400Y0162083D01*
X0014400Y0163682D02*
X0131900Y0163682D01*
X0131900Y0165280D02*
X0014400Y0165280D01*
X0014400Y0166879D02*
X0131900Y0166879D01*
X0131900Y0168477D02*
X0014400Y0168477D01*
X0014400Y0170076D02*
X0131900Y0170076D01*
X0131032Y0171674D02*
X0014400Y0171674D01*
X0014400Y0173273D02*
X0129433Y0173273D01*
X0127835Y0174871D02*
X0014400Y0174871D01*
X0014400Y0176470D02*
X0126236Y0176470D01*
X0124637Y0178068D02*
X0014400Y0178068D01*
X0014400Y0179667D02*
X0116928Y0179667D01*
X0115190Y0181265D02*
X0014400Y0181265D01*
X0014400Y0182864D02*
X0113592Y0182864D01*
X0111993Y0184462D02*
X0014400Y0184462D01*
X0014400Y0189258D02*
X0033009Y0189258D01*
X0032428Y0190856D02*
X0014400Y0190856D01*
X0014400Y0192455D02*
X0032428Y0192455D01*
X0032428Y0194053D02*
X0014400Y0194053D01*
X0014400Y0195652D02*
X0032428Y0195652D01*
X0032428Y0197251D02*
X0014400Y0197251D01*
X0014400Y0198849D02*
X0032804Y0198849D01*
X0033993Y0200448D02*
X0014400Y0200448D01*
X0046800Y0214300D02*
X0046800Y0221800D01*
X0054300Y0229300D01*
X0265550Y0229300D01*
X0271800Y0223050D01*
X0271800Y0189300D01*
X0264300Y0181800D01*
X0264300Y0146800D01*
X0269300Y0141800D01*
X0311800Y0141800D01*
X0329300Y0124300D01*
X0341800Y0124300D01*
X0345550Y0128050D01*
X0349131Y0128515D02*
X0414400Y0128515D01*
X0414400Y0130113D02*
X0348551Y0130113D01*
X0352998Y0126916D02*
X0414400Y0126916D01*
X0414400Y0125318D02*
X0354005Y0125318D01*
X0354131Y0123719D02*
X0414400Y0123719D01*
X0413601Y0122120D02*
X0353435Y0122120D01*
X0350550Y0124300D02*
X0348050Y0121800D01*
X0328050Y0121800D01*
X0310550Y0139300D01*
X0268050Y0139300D01*
X0261800Y0145550D01*
X0261800Y0199300D01*
X0266800Y0204300D01*
X0266800Y0214300D01*
X0279894Y0208440D02*
X0377999Y0208440D01*
X0377472Y0206842D02*
X0274200Y0206842D01*
X0274200Y0205243D02*
X0377472Y0205243D01*
X0377591Y0203645D02*
X0274200Y0203645D01*
X0274200Y0202046D02*
X0378253Y0202046D01*
X0379208Y0200448D02*
X0279607Y0200448D01*
X0280796Y0198849D02*
X0380806Y0198849D01*
X0390392Y0198849D02*
X0402010Y0198849D01*
X0401962Y0198824D02*
X0401375Y0198398D01*
X0400862Y0197885D01*
X0400435Y0197297D01*
X0400106Y0196651D01*
X0399881Y0195960D01*
X0399768Y0195244D01*
X0399768Y0194986D01*
X0404273Y0194986D01*
X0404273Y0199492D01*
X0404016Y0199492D01*
X0403299Y0199378D01*
X0402609Y0199154D01*
X0401962Y0198824D01*
X0400411Y0197251D02*
X0281172Y0197251D01*
X0281172Y0195652D02*
X0399832Y0195652D01*
X0399841Y0194053D02*
X0281172Y0194053D01*
X0281172Y0192455D02*
X0400442Y0192455D01*
X0402120Y0190856D02*
X0281172Y0190856D01*
X0280591Y0189258D02*
X0400537Y0189258D01*
X0399968Y0187659D02*
X0278883Y0187659D01*
X0274717Y0187659D02*
X0273554Y0187659D01*
X0271955Y0186061D02*
X0399996Y0186061D01*
X0400685Y0184462D02*
X0270357Y0184462D01*
X0268758Y0182864D02*
X0402854Y0182864D01*
X0405904Y0182864D02*
X0406900Y0182864D01*
X0407690Y0181265D02*
X0267160Y0181265D01*
X0266700Y0179667D02*
X0409289Y0179667D01*
X0410887Y0178068D02*
X0266700Y0178068D01*
X0266700Y0176470D02*
X0412486Y0176470D01*
X0414085Y0174871D02*
X0266700Y0174871D01*
X0266700Y0173273D02*
X0414400Y0173273D01*
X0414400Y0171674D02*
X0266700Y0171674D01*
X0266700Y0170076D02*
X0414400Y0170076D01*
X0414400Y0168477D02*
X0266700Y0168477D01*
X0266700Y0166879D02*
X0414400Y0166879D01*
X0414400Y0165280D02*
X0266700Y0165280D01*
X0266700Y0163682D02*
X0414400Y0163682D01*
X0414400Y0162083D02*
X0266700Y0162083D01*
X0266700Y0160485D02*
X0414400Y0160485D01*
X0414400Y0158886D02*
X0266700Y0158886D01*
X0266700Y0157288D02*
X0414400Y0157288D01*
X0414400Y0155689D02*
X0266700Y0155689D01*
X0266700Y0154091D02*
X0414400Y0154091D01*
X0414400Y0152492D02*
X0266700Y0152492D01*
X0266700Y0150894D02*
X0414400Y0150894D01*
X0414400Y0149295D02*
X0266700Y0149295D01*
X0266797Y0147697D02*
X0414400Y0147697D01*
X0414400Y0146098D02*
X0268396Y0146098D01*
X0269994Y0144500D02*
X0414400Y0144500D01*
X0414400Y0142901D02*
X0314093Y0142901D01*
X0315691Y0141303D02*
X0414400Y0141303D01*
X0414400Y0139704D02*
X0317290Y0139704D01*
X0318888Y0138106D02*
X0414400Y0138106D01*
X0414400Y0136507D02*
X0320487Y0136507D01*
X0322086Y0134909D02*
X0414400Y0134909D01*
X0414400Y0133310D02*
X0323684Y0133310D01*
X0325283Y0131712D02*
X0414400Y0131712D01*
X0416800Y0121925D02*
X0409175Y0114300D01*
X0409300Y0100550D01*
X0406800Y0098050D01*
X0401800Y0098050D01*
X0394300Y0090550D01*
X0394300Y0063050D01*
X0390550Y0059300D01*
X0345550Y0059300D01*
X0339300Y0053050D01*
X0339300Y0040550D01*
X0341800Y0038050D01*
X0351800Y0038050D01*
X0354300Y0040550D01*
X0354300Y0046800D01*
X0344300Y0046800D02*
X0344300Y0054300D01*
X0346800Y0056800D01*
X0391800Y0056800D01*
X0396800Y0061800D01*
X0396800Y0089300D01*
X0403050Y0095550D01*
X0414300Y0095550D01*
X0419300Y0100550D01*
X0419300Y0182085D01*
X0414221Y0187007D01*
X0409300Y0189959D02*
X0414221Y0194881D01*
X0412275Y0198849D02*
X0406747Y0198849D01*
X0406795Y0198824D02*
X0406149Y0199154D01*
X0405458Y0199378D01*
X0404742Y0199492D01*
X0404484Y0199492D01*
X0404484Y0194986D01*
X0408990Y0194986D01*
X0408990Y0195244D01*
X0408876Y0195960D01*
X0408652Y0196651D01*
X0408322Y0197297D01*
X0407896Y0197885D01*
X0407383Y0198398D01*
X0406795Y0198824D01*
X0408346Y0197251D02*
X0410428Y0197251D01*
X0409810Y0195652D02*
X0408925Y0195652D01*
X0408916Y0194053D02*
X0409810Y0194053D01*
X0408401Y0192455D02*
X0408316Y0192455D01*
X0409300Y0189959D02*
X0409300Y0183050D01*
X0416800Y0175550D01*
X0416800Y0121925D01*
X0412003Y0120522D02*
X0391472Y0120522D01*
X0393071Y0118923D02*
X0410404Y0118923D01*
X0408806Y0117325D02*
X0394669Y0117325D01*
X0396268Y0115726D02*
X0407207Y0115726D01*
X0406775Y0114128D02*
X0396700Y0114128D01*
X0397653Y0112529D02*
X0400947Y0112529D01*
X0400051Y0110931D02*
X0398549Y0110931D01*
X0398725Y0109332D02*
X0399875Y0109332D01*
X0399875Y0107734D02*
X0398725Y0107734D01*
X0398725Y0106135D02*
X0399875Y0106135D01*
X0399875Y0104537D02*
X0398725Y0104537D01*
X0398660Y0102938D02*
X0399940Y0102938D01*
X0400677Y0101340D02*
X0397923Y0101340D01*
X0400097Y0099741D02*
X0395642Y0099741D01*
X0392958Y0099741D02*
X0385642Y0099741D01*
X0382958Y0099741D02*
X0375642Y0099741D01*
X0375180Y0099550D02*
X0376807Y0100224D01*
X0378051Y0101468D01*
X0378725Y0103095D01*
X0378725Y0110505D01*
X0378051Y0112132D01*
X0376807Y0113376D01*
X0375180Y0114050D01*
X0373420Y0114050D01*
X0371793Y0113376D01*
X0370549Y0112132D01*
X0369875Y0110505D01*
X0369875Y0103095D01*
X0370549Y0101468D01*
X0371793Y0100224D01*
X0373420Y0099550D01*
X0375180Y0099550D01*
X0372958Y0099741D02*
X0365642Y0099741D01*
X0365180Y0099550D02*
X0366807Y0100224D01*
X0368051Y0101468D01*
X0368725Y0103095D01*
X0368725Y0110505D01*
X0368051Y0112132D01*
X0366807Y0113376D01*
X0365180Y0114050D01*
X0363420Y0114050D01*
X0361793Y0113376D01*
X0360549Y0112132D01*
X0359875Y0110505D01*
X0359875Y0103095D01*
X0360549Y0101468D01*
X0361793Y0100224D01*
X0363420Y0099550D01*
X0365180Y0099550D01*
X0362958Y0099741D02*
X0355642Y0099741D01*
X0355180Y0099550D02*
X0356807Y0100224D01*
X0358051Y0101468D01*
X0358725Y0103095D01*
X0358725Y0110505D01*
X0358051Y0112132D01*
X0356807Y0113376D01*
X0355180Y0114050D01*
X0353420Y0114050D01*
X0351793Y0113376D01*
X0350549Y0112132D01*
X0349875Y0110505D01*
X0349875Y0103095D01*
X0350549Y0101468D01*
X0351793Y0100224D01*
X0353420Y0099550D01*
X0355180Y0099550D01*
X0352958Y0099741D02*
X0345642Y0099741D01*
X0345180Y0099550D02*
X0346807Y0100224D01*
X0348051Y0101468D01*
X0348725Y0103095D01*
X0348725Y0110505D01*
X0348051Y0112132D01*
X0346807Y0113376D01*
X0345180Y0114050D01*
X0343420Y0114050D01*
X0341793Y0113376D01*
X0340549Y0112132D01*
X0339875Y0110505D01*
X0339875Y0103095D01*
X0340549Y0101468D01*
X0341793Y0100224D01*
X0343420Y0099550D01*
X0345180Y0099550D01*
X0342958Y0099741D02*
X0335642Y0099741D01*
X0335180Y0099550D02*
X0336807Y0100224D01*
X0338051Y0101468D01*
X0338725Y0103095D01*
X0338725Y0110505D01*
X0338051Y0112132D01*
X0336807Y0113376D01*
X0335180Y0114050D01*
X0333420Y0114050D01*
X0331793Y0113376D01*
X0330549Y0112132D01*
X0329875Y0110505D01*
X0329875Y0103095D01*
X0330549Y0101468D01*
X0331793Y0100224D01*
X0333420Y0099550D01*
X0335180Y0099550D01*
X0332958Y0099741D02*
X0325642Y0099741D01*
X0322958Y0099741D02*
X0315642Y0099741D01*
X0315180Y0099550D02*
X0316807Y0100224D01*
X0318051Y0101468D01*
X0318725Y0103095D01*
X0318725Y0110505D01*
X0318051Y0112132D01*
X0316807Y0113376D01*
X0315180Y0114050D01*
X0313420Y0114050D01*
X0311793Y0113376D01*
X0310549Y0112132D01*
X0309875Y0110505D01*
X0309875Y0103095D01*
X0310549Y0101468D01*
X0311793Y0100224D01*
X0313420Y0099550D01*
X0315180Y0099550D01*
X0312958Y0099741D02*
X0305642Y0099741D01*
X0305180Y0099550D02*
X0306807Y0100224D01*
X0308051Y0101468D01*
X0308725Y0103095D01*
X0308725Y0110505D01*
X0308051Y0112132D01*
X0306807Y0113376D01*
X0305180Y0114050D01*
X0303420Y0114050D01*
X0301793Y0113376D01*
X0300549Y0112132D01*
X0299875Y0110505D01*
X0299875Y0103095D01*
X0300549Y0101468D01*
X0301793Y0100224D01*
X0303420Y0099550D01*
X0305180Y0099550D01*
X0302958Y0099741D02*
X0296700Y0099741D01*
X0296700Y0098143D02*
X0398499Y0098143D01*
X0396900Y0096544D02*
X0296700Y0096544D01*
X0296700Y0094946D02*
X0395302Y0094946D01*
X0393703Y0093347D02*
X0296700Y0093347D01*
X0296700Y0091749D02*
X0392199Y0091749D01*
X0391900Y0090150D02*
X0296700Y0090150D01*
X0296700Y0088552D02*
X0391900Y0088552D01*
X0391900Y0086953D02*
X0296700Y0086953D01*
X0296700Y0085355D02*
X0391900Y0085355D01*
X0391900Y0083756D02*
X0296700Y0083756D01*
X0296700Y0082158D02*
X0391900Y0082158D01*
X0391900Y0080559D02*
X0296700Y0080559D01*
X0296700Y0078961D02*
X0391900Y0078961D01*
X0391900Y0077362D02*
X0296700Y0077362D01*
X0296700Y0075764D02*
X0391900Y0075764D01*
X0391900Y0074165D02*
X0346112Y0074165D01*
X0345550Y0071800D02*
X0339300Y0071800D01*
X0331925Y0064425D01*
X0300425Y0064425D01*
X0294300Y0070550D01*
X0294300Y0106800D01*
X0298725Y0106135D02*
X0299875Y0106135D01*
X0299875Y0104537D02*
X0298725Y0104537D01*
X0298660Y0102938D02*
X0299940Y0102938D01*
X0300677Y0101340D02*
X0297923Y0101340D01*
X0291900Y0099741D02*
X0286178Y0099741D01*
X0286075Y0099689D02*
X0286724Y0100019D01*
X0287313Y0100447D01*
X0287828Y0100962D01*
X0288256Y0101551D01*
X0288586Y0102200D01*
X0288811Y0102892D01*
X0288925Y0103611D01*
X0288925Y0106687D01*
X0284413Y0106687D01*
X0284413Y0106912D01*
X0288925Y0106912D01*
X0288925Y0109989D01*
X0288811Y0110708D01*
X0288586Y0111400D01*
X0288256Y0112049D01*
X0287828Y0112638D01*
X0287313Y0113153D01*
X0286724Y0113581D01*
X0286075Y0113911D01*
X0285383Y0114136D01*
X0284664Y0114250D01*
X0284413Y0114250D01*
X0284413Y0106913D01*
X0284187Y0106913D01*
X0284187Y0114250D01*
X0283936Y0114250D01*
X0283217Y0114136D01*
X0282525Y0113911D01*
X0281876Y0113581D01*
X0281287Y0113153D01*
X0280772Y0112638D01*
X0280344Y0112049D01*
X0280014Y0111400D01*
X0279789Y0110708D01*
X0279675Y0109989D01*
X0279675Y0106912D01*
X0284187Y0106912D01*
X0284187Y0106687D01*
X0279675Y0106687D01*
X0279675Y0103611D01*
X0279789Y0102892D01*
X0280014Y0102200D01*
X0280344Y0101551D01*
X0280772Y0100962D01*
X0281287Y0100447D01*
X0281876Y0100019D01*
X0282525Y0099689D01*
X0283217Y0099464D01*
X0283936Y0099350D01*
X0284187Y0099350D01*
X0284187Y0106687D01*
X0284413Y0106687D01*
X0284413Y0099350D01*
X0284664Y0099350D01*
X0285383Y0099464D01*
X0286075Y0099689D01*
X0284413Y0099741D02*
X0284187Y0099741D01*
X0284187Y0101340D02*
X0284413Y0101340D01*
X0284413Y0102938D02*
X0284187Y0102938D01*
X0284187Y0104537D02*
X0284413Y0104537D01*
X0284413Y0106135D02*
X0284187Y0106135D01*
X0284187Y0107734D02*
X0284413Y0107734D01*
X0284413Y0109332D02*
X0284187Y0109332D01*
X0284187Y0110931D02*
X0284413Y0110931D01*
X0284413Y0112529D02*
X0284187Y0112529D01*
X0284187Y0114128D02*
X0284413Y0114128D01*
X0285408Y0114128D02*
X0321078Y0114128D01*
X0320947Y0112529D02*
X0317653Y0112529D01*
X0318549Y0110931D02*
X0320051Y0110931D01*
X0319875Y0109332D02*
X0318725Y0109332D01*
X0318725Y0107734D02*
X0319875Y0107734D01*
X0319875Y0106135D02*
X0318725Y0106135D01*
X0318725Y0104537D02*
X0319875Y0104537D01*
X0319940Y0102938D02*
X0318660Y0102938D01*
X0317923Y0101340D02*
X0320677Y0101340D01*
X0327923Y0101340D02*
X0330677Y0101340D01*
X0329940Y0102938D02*
X0328660Y0102938D01*
X0328725Y0104537D02*
X0329875Y0104537D01*
X0329875Y0106135D02*
X0328725Y0106135D01*
X0328725Y0107734D02*
X0329875Y0107734D01*
X0329875Y0109332D02*
X0328725Y0109332D01*
X0328549Y0110931D02*
X0330051Y0110931D01*
X0330947Y0112529D02*
X0327653Y0112529D01*
X0326700Y0114128D02*
X0381078Y0114128D01*
X0380947Y0112529D02*
X0377653Y0112529D01*
X0378549Y0110931D02*
X0380051Y0110931D01*
X0379875Y0109332D02*
X0378725Y0109332D01*
X0378725Y0107734D02*
X0379875Y0107734D01*
X0379875Y0106135D02*
X0378725Y0106135D01*
X0378725Y0104537D02*
X0379875Y0104537D01*
X0379940Y0102938D02*
X0378660Y0102938D01*
X0377923Y0101340D02*
X0380677Y0101340D01*
X0384300Y0106800D02*
X0384300Y0114300D01*
X0381800Y0116800D01*
X0325550Y0116800D01*
X0308050Y0134300D01*
X0256800Y0134300D01*
X0254324Y0131712D02*
X0254200Y0131712D01*
X0254200Y0130113D02*
X0258261Y0130113D01*
X0258249Y0128515D02*
X0254200Y0128515D01*
X0254200Y0126916D02*
X0259120Y0126916D01*
X0261800Y0129300D02*
X0264300Y0131800D01*
X0306800Y0131800D01*
X0324300Y0114300D01*
X0324300Y0106800D01*
X0337653Y0112529D02*
X0340947Y0112529D01*
X0340051Y0110931D02*
X0338549Y0110931D01*
X0338725Y0109332D02*
X0339875Y0109332D01*
X0339875Y0107734D02*
X0338725Y0107734D01*
X0338725Y0106135D02*
X0339875Y0106135D01*
X0339875Y0104537D02*
X0338725Y0104537D01*
X0338660Y0102938D02*
X0339940Y0102938D01*
X0340677Y0101340D02*
X0337923Y0101340D01*
X0347923Y0101340D02*
X0350677Y0101340D01*
X0349940Y0102938D02*
X0348660Y0102938D01*
X0348725Y0104537D02*
X0349875Y0104537D01*
X0349875Y0106135D02*
X0348725Y0106135D01*
X0348725Y0107734D02*
X0349875Y0107734D01*
X0349875Y0109332D02*
X0348725Y0109332D01*
X0348549Y0110931D02*
X0350051Y0110931D01*
X0350947Y0112529D02*
X0347653Y0112529D01*
X0357653Y0112529D02*
X0360947Y0112529D01*
X0360051Y0110931D02*
X0358549Y0110931D01*
X0358725Y0109332D02*
X0359875Y0109332D01*
X0359875Y0107734D02*
X0358725Y0107734D01*
X0358725Y0106135D02*
X0359875Y0106135D01*
X0359875Y0104537D02*
X0358725Y0104537D01*
X0358660Y0102938D02*
X0359940Y0102938D01*
X0360677Y0101340D02*
X0357923Y0101340D01*
X0367923Y0101340D02*
X0370677Y0101340D01*
X0369940Y0102938D02*
X0368660Y0102938D01*
X0368725Y0104537D02*
X0369875Y0104537D01*
X0369875Y0106135D02*
X0368725Y0106135D01*
X0368725Y0107734D02*
X0369875Y0107734D01*
X0369875Y0109332D02*
X0368725Y0109332D01*
X0368549Y0110931D02*
X0370051Y0110931D01*
X0370947Y0112529D02*
X0367653Y0112529D01*
X0386268Y0115726D02*
X0389479Y0115726D01*
X0391078Y0114128D02*
X0386700Y0114128D01*
X0387653Y0112529D02*
X0390947Y0112529D01*
X0390051Y0110931D02*
X0388549Y0110931D01*
X0388725Y0109332D02*
X0389875Y0109332D01*
X0389875Y0107734D02*
X0388725Y0107734D01*
X0388725Y0106135D02*
X0389875Y0106135D01*
X0389875Y0104537D02*
X0388725Y0104537D01*
X0388660Y0102938D02*
X0389940Y0102938D01*
X0390677Y0101340D02*
X0387923Y0101340D01*
X0394300Y0106800D02*
X0394300Y0114300D01*
X0389300Y0119300D01*
X0326800Y0119300D01*
X0309300Y0136800D01*
X0266800Y0136800D01*
X0259300Y0144300D01*
X0259300Y0181800D01*
X0251800Y0189300D01*
X0251800Y0221800D01*
X0246800Y0226800D01*
X0116800Y0226800D01*
X0111800Y0221800D01*
X0111800Y0188050D01*
X0126800Y0183050D02*
X0126800Y0194300D01*
X0141800Y0201800D02*
X0141800Y0166800D01*
X0146800Y0161800D01*
X0146800Y0101800D01*
X0151800Y0096800D01*
X0159300Y0096800D01*
X0166800Y0089300D02*
X0164300Y0086800D01*
X0159300Y0086800D01*
X0166800Y0089300D02*
X0166800Y0143050D01*
X0156800Y0153050D01*
X0156800Y0194300D01*
X0152428Y0194053D02*
X0151172Y0194053D01*
X0151172Y0192455D02*
X0152428Y0192455D01*
X0152428Y0190856D02*
X0151172Y0190856D01*
X0151172Y0190659D02*
X0150506Y0189052D01*
X0149276Y0187822D01*
X0149200Y0187791D01*
X0149200Y0177573D01*
X0148835Y0176691D01*
X0146700Y0174556D01*
X0146700Y0169044D01*
X0151335Y0164409D01*
X0151700Y0163527D01*
X0151700Y0132794D01*
X0154227Y0130267D01*
X0154321Y0130361D01*
X0155865Y0131000D01*
X0162735Y0131000D01*
X0164279Y0130361D01*
X0164400Y0130240D01*
X0164400Y0133178D01*
X0164206Y0133037D01*
X0163589Y0132722D01*
X0162930Y0132508D01*
X0162246Y0132400D01*
X0159300Y0132400D01*
X0159300Y0136800D01*
X0159300Y0136800D01*
X0159300Y0141200D01*
X0162246Y0141200D01*
X0162930Y0141092D01*
X0163589Y0140878D01*
X0164206Y0140563D01*
X0164400Y0140422D01*
X0164400Y0142056D01*
X0154765Y0151691D01*
X0154400Y0152573D01*
X0154400Y0187791D01*
X0154324Y0187822D01*
X0153094Y0189052D01*
X0152428Y0190659D01*
X0152428Y0197941D01*
X0153094Y0199548D01*
X0154324Y0200778D01*
X0155930Y0201443D01*
X0157670Y0201443D01*
X0159276Y0200778D01*
X0159400Y0200654D01*
X0159400Y0200806D01*
X0154765Y0205441D01*
X0154400Y0206323D01*
X0154400Y0207791D01*
X0154324Y0207822D01*
X0153094Y0209052D01*
X0152428Y0210659D01*
X0152428Y0217941D01*
X0153033Y0219400D01*
X0150567Y0219400D01*
X0151172Y0217941D01*
X0151172Y0210659D01*
X0150506Y0209052D01*
X0149276Y0207822D01*
X0149200Y0207791D01*
X0149200Y0206323D01*
X0148835Y0205441D01*
X0144200Y0200806D01*
X0144200Y0200654D01*
X0144324Y0200778D01*
X0145930Y0201443D01*
X0147670Y0201443D01*
X0149276Y0200778D01*
X0150506Y0199548D01*
X0151172Y0197941D01*
X0151172Y0190659D01*
X0150591Y0189258D02*
X0153009Y0189258D01*
X0154400Y0187659D02*
X0149200Y0187659D01*
X0149200Y0186061D02*
X0154400Y0186061D01*
X0154400Y0184462D02*
X0149200Y0184462D01*
X0149200Y0182864D02*
X0154400Y0182864D01*
X0154400Y0181265D02*
X0149200Y0181265D01*
X0149200Y0179667D02*
X0154400Y0179667D01*
X0154400Y0178068D02*
X0149200Y0178068D01*
X0148614Y0176470D02*
X0154400Y0176470D01*
X0154400Y0174871D02*
X0147015Y0174871D01*
X0146700Y0173273D02*
X0154400Y0173273D01*
X0154400Y0171674D02*
X0146700Y0171674D01*
X0146700Y0170076D02*
X0154400Y0170076D01*
X0154400Y0168477D02*
X0147267Y0168477D01*
X0148865Y0166879D02*
X0154400Y0166879D01*
X0154400Y0165280D02*
X0150464Y0165280D01*
X0151636Y0163682D02*
X0154400Y0163682D01*
X0154400Y0162083D02*
X0151700Y0162083D01*
X0151700Y0160485D02*
X0154400Y0160485D01*
X0154400Y0158886D02*
X0151700Y0158886D01*
X0151700Y0157288D02*
X0154400Y0157288D01*
X0154400Y0155689D02*
X0151700Y0155689D01*
X0151700Y0154091D02*
X0154400Y0154091D01*
X0154433Y0152492D02*
X0151700Y0152492D01*
X0151700Y0150894D02*
X0155562Y0150894D01*
X0157161Y0149295D02*
X0151700Y0149295D01*
X0151700Y0147697D02*
X0158759Y0147697D01*
X0160358Y0146098D02*
X0151700Y0146098D01*
X0151700Y0144500D02*
X0161956Y0144500D01*
X0163555Y0142901D02*
X0151700Y0142901D01*
X0151700Y0141303D02*
X0164400Y0141303D01*
X0159300Y0141200D02*
X0156354Y0141200D01*
X0155670Y0141092D01*
X0155011Y0140878D01*
X0154394Y0140563D01*
X0153834Y0140156D01*
X0153344Y0139666D01*
X0152937Y0139106D01*
X0152622Y0138489D01*
X0152408Y0137830D01*
X0152300Y0137146D01*
X0152300Y0136800D01*
X0159300Y0136800D01*
X0159300Y0136800D01*
X0159300Y0136800D01*
X0159300Y0141200D01*
X0159300Y0139704D02*
X0159300Y0139704D01*
X0159300Y0138106D02*
X0159300Y0138106D01*
X0159300Y0136800D02*
X0152300Y0136800D01*
X0152300Y0136454D01*
X0152408Y0135770D01*
X0152622Y0135111D01*
X0152937Y0134494D01*
X0153344Y0133934D01*
X0153834Y0133444D01*
X0154394Y0133037D01*
X0155011Y0132722D01*
X0155670Y0132508D01*
X0156354Y0132400D01*
X0159300Y0132400D01*
X0159300Y0136800D01*
X0159300Y0136507D02*
X0159300Y0136507D01*
X0159300Y0134909D02*
X0159300Y0134909D01*
X0159300Y0133310D02*
X0159300Y0133310D01*
X0154018Y0133310D02*
X0151700Y0133310D01*
X0151700Y0134909D02*
X0152725Y0134909D01*
X0152300Y0136507D02*
X0151700Y0136507D01*
X0151700Y0138106D02*
X0152498Y0138106D01*
X0151700Y0139704D02*
X0153382Y0139704D01*
X0139400Y0138106D02*
X0139000Y0138106D01*
X0139400Y0136507D02*
X0137401Y0136507D01*
X0135803Y0134909D02*
X0139400Y0134909D01*
X0139400Y0130113D02*
X0134527Y0130113D01*
X0135736Y0128515D02*
X0139400Y0128515D01*
X0139400Y0126916D02*
X0136100Y0126916D01*
X0135832Y0125318D02*
X0139400Y0125318D01*
X0139400Y0123719D02*
X0134759Y0123719D01*
X0133889Y0120522D02*
X0139400Y0120522D01*
X0139400Y0122120D02*
X0095909Y0122120D01*
X0096700Y0120522D02*
X0124711Y0120522D01*
X0123034Y0118923D02*
X0096700Y0118923D01*
X0096700Y0117325D02*
X0122500Y0117325D01*
X0122599Y0115726D02*
X0095156Y0115726D01*
X0095217Y0112529D02*
X0139400Y0112529D01*
X0139400Y0110931D02*
X0132902Y0110931D01*
X0135307Y0109332D02*
X0139400Y0109332D01*
X0139400Y0107734D02*
X0136059Y0107734D01*
X0136100Y0106135D02*
X0139400Y0106135D01*
X0139400Y0104537D02*
X0135509Y0104537D01*
X0133552Y0102938D02*
X0139400Y0102938D01*
X0139400Y0101340D02*
X0014400Y0101340D01*
X0014400Y0102938D02*
X0125048Y0102938D01*
X0125865Y0101000D02*
X0124321Y0100361D01*
X0123139Y0099179D01*
X0122500Y0097635D01*
X0122500Y0095965D01*
X0123139Y0094421D01*
X0124321Y0093239D01*
X0125865Y0092600D01*
X0132735Y0092600D01*
X0134279Y0093239D01*
X0135461Y0094421D01*
X0136100Y0095965D01*
X0136100Y0097635D01*
X0135461Y0099179D01*
X0134279Y0100361D01*
X0132735Y0101000D01*
X0125865Y0101000D01*
X0123702Y0099741D02*
X0014400Y0099741D01*
X0014400Y0098143D02*
X0122710Y0098143D01*
X0122500Y0096544D02*
X0014400Y0096544D01*
X0014400Y0094946D02*
X0122922Y0094946D01*
X0124213Y0093347D02*
X0014400Y0093347D01*
X0014400Y0091749D02*
X0139400Y0091749D01*
X0139400Y0093347D02*
X0134387Y0093347D01*
X0135678Y0094946D02*
X0139400Y0094946D01*
X0139400Y0096544D02*
X0136100Y0096544D01*
X0135890Y0098143D02*
X0139400Y0098143D01*
X0139400Y0099741D02*
X0134898Y0099741D01*
X0132735Y0091000D02*
X0125865Y0091000D01*
X0124321Y0090361D01*
X0123139Y0089179D01*
X0122500Y0087635D01*
X0122500Y0085965D01*
X0123139Y0084421D01*
X0124321Y0083239D01*
X0125865Y0082600D01*
X0132735Y0082600D01*
X0134279Y0083239D01*
X0135461Y0084421D01*
X0136100Y0085965D01*
X0136100Y0087635D01*
X0135461Y0089179D01*
X0134279Y0090361D01*
X0132735Y0091000D01*
X0134489Y0090150D02*
X0139400Y0090150D01*
X0139400Y0088552D02*
X0135720Y0088552D01*
X0136100Y0086953D02*
X0139400Y0086953D01*
X0139400Y0085355D02*
X0135847Y0085355D01*
X0134796Y0083756D02*
X0139400Y0083756D01*
X0139400Y0082158D02*
X0101415Y0082158D01*
X0102450Y0081123D02*
X0099873Y0083700D01*
X0098050Y0083700D01*
X0098050Y0079300D01*
X0102450Y0079300D01*
X0102450Y0081123D01*
X0102450Y0080559D02*
X0124800Y0080559D01*
X0124321Y0080361D02*
X0123139Y0079179D01*
X0122500Y0077635D01*
X0122500Y0075965D01*
X0123139Y0074421D01*
X0124321Y0073239D01*
X0125865Y0072600D01*
X0132735Y0072600D01*
X0134279Y0073239D01*
X0135461Y0074421D01*
X0136100Y0075965D01*
X0136100Y0077635D01*
X0135461Y0079179D01*
X0134279Y0080361D01*
X0132735Y0081000D01*
X0125865Y0081000D01*
X0124321Y0080361D01*
X0123049Y0078961D02*
X0102450Y0078961D01*
X0102450Y0079300D02*
X0098050Y0079300D01*
X0098050Y0079300D01*
X0098050Y0079300D01*
X0098050Y0074900D01*
X0099873Y0074900D01*
X0102450Y0077477D01*
X0102450Y0079300D01*
X0102335Y0077362D02*
X0122500Y0077362D01*
X0122583Y0075764D02*
X0100736Y0075764D01*
X0098050Y0075764D02*
X0098050Y0075764D01*
X0098050Y0074900D02*
X0096227Y0074900D01*
X0093650Y0077477D01*
X0093650Y0079300D01*
X0098050Y0079300D01*
X0098050Y0079300D01*
X0098050Y0079300D01*
X0098050Y0083700D01*
X0096227Y0083700D01*
X0093650Y0081123D01*
X0093650Y0079300D01*
X0098050Y0079300D01*
X0098050Y0074900D01*
X0098050Y0077362D02*
X0098050Y0077362D01*
X0098050Y0078961D02*
X0098050Y0078961D01*
X0098050Y0080559D02*
X0098050Y0080559D01*
X0098050Y0082158D02*
X0098050Y0082158D01*
X0094685Y0082158D02*
X0091132Y0082158D01*
X0092250Y0081040D02*
X0089790Y0083500D01*
X0086310Y0083500D01*
X0083850Y0081040D01*
X0083850Y0077560D01*
X0086310Y0075100D01*
X0089790Y0075100D01*
X0092250Y0077560D01*
X0092250Y0081040D01*
X0092250Y0080559D02*
X0093650Y0080559D01*
X0093650Y0078961D02*
X0092250Y0078961D01*
X0092052Y0077362D02*
X0093765Y0077362D01*
X0095364Y0075764D02*
X0090453Y0075764D01*
X0085647Y0075764D02*
X0071703Y0075764D01*
X0071040Y0075100D02*
X0073500Y0077560D01*
X0073500Y0081040D01*
X0071040Y0083500D01*
X0067560Y0083500D01*
X0065100Y0081040D01*
X0065100Y0077560D01*
X0067560Y0075100D01*
X0071040Y0075100D01*
X0073302Y0077362D02*
X0084048Y0077362D01*
X0083850Y0078961D02*
X0073500Y0078961D01*
X0073500Y0080559D02*
X0083850Y0080559D01*
X0084968Y0082158D02*
X0072382Y0082158D01*
X0066218Y0082158D02*
X0014400Y0082158D01*
X0014400Y0083756D02*
X0123804Y0083756D01*
X0122753Y0085355D02*
X0014400Y0085355D01*
X0014400Y0086953D02*
X0122500Y0086953D01*
X0122880Y0088552D02*
X0014400Y0088552D01*
X0014400Y0090150D02*
X0124111Y0090150D01*
X0133800Y0080559D02*
X0139400Y0080559D01*
X0139400Y0078961D02*
X0135551Y0078961D01*
X0136100Y0077362D02*
X0139400Y0077362D01*
X0139400Y0075764D02*
X0136017Y0075764D01*
X0135205Y0074165D02*
X0139400Y0074165D01*
X0139400Y0072567D02*
X0014400Y0072567D01*
X0014400Y0074165D02*
X0123395Y0074165D01*
X0124321Y0070361D02*
X0123139Y0069179D01*
X0122500Y0067635D01*
X0122500Y0065965D01*
X0123139Y0064421D01*
X0124321Y0063239D01*
X0125865Y0062600D01*
X0132735Y0062600D01*
X0134279Y0063239D01*
X0135461Y0064421D01*
X0136100Y0065965D01*
X0136100Y0067635D01*
X0135461Y0069179D01*
X0134279Y0070361D01*
X0132735Y0071000D01*
X0125865Y0071000D01*
X0124321Y0070361D01*
X0123330Y0069370D02*
X0014400Y0069370D01*
X0014400Y0070968D02*
X0125788Y0070968D01*
X0122556Y0067771D02*
X0014400Y0067771D01*
X0014400Y0066173D02*
X0122500Y0066173D01*
X0123076Y0064574D02*
X0014400Y0064574D01*
X0014400Y0062976D02*
X0124958Y0062976D01*
X0123739Y0059779D02*
X0014400Y0059779D01*
X0014400Y0061377D02*
X0137983Y0061377D01*
X0139400Y0062976D02*
X0133642Y0062976D01*
X0135524Y0064574D02*
X0139400Y0064574D01*
X0139400Y0066173D02*
X0136100Y0066173D01*
X0136044Y0067771D02*
X0139400Y0067771D01*
X0139400Y0069370D02*
X0135270Y0069370D01*
X0132812Y0070968D02*
X0139400Y0070968D01*
X0144300Y0074300D02*
X0144300Y0050550D01*
X0156800Y0038050D01*
X0338050Y0038050D01*
X0340550Y0035550D01*
X0383050Y0035550D01*
X0385550Y0033050D01*
X0418050Y0033050D01*
X0424300Y0039300D01*
X0424300Y0046800D01*
X0419300Y0053050D02*
X0419300Y0039300D01*
X0415550Y0035550D01*
X0386800Y0035550D01*
X0384300Y0038050D01*
X0376800Y0038050D01*
X0374300Y0040550D01*
X0374300Y0046800D01*
X0384300Y0046800D02*
X0384300Y0041800D01*
X0388050Y0038050D01*
X0406800Y0038050D01*
X0409300Y0040550D01*
X0409300Y0053050D01*
X0404300Y0058050D01*
X0404300Y0075550D01*
X0409300Y0073050D02*
X0406800Y0070550D01*
X0406800Y0059300D01*
X0409300Y0056800D01*
X0415550Y0056800D01*
X0419300Y0053050D01*
X0399300Y0055550D02*
X0399300Y0088050D01*
X0404300Y0093050D01*
X0415550Y0093050D01*
X0424300Y0101800D01*
X0424300Y0106800D01*
X0428725Y0106135D02*
X0429875Y0106135D01*
X0429875Y0104537D02*
X0428725Y0104537D01*
X0428660Y0102938D02*
X0429940Y0102938D01*
X0430677Y0101340D02*
X0427923Y0101340D01*
X0428725Y0107734D02*
X0429875Y0107734D01*
X0429875Y0109332D02*
X0428725Y0109332D01*
X0428549Y0110931D02*
X0430051Y0110931D01*
X0430947Y0112529D02*
X0427653Y0112529D01*
X0437653Y0112529D02*
X0440947Y0112529D01*
X0440051Y0110931D02*
X0438549Y0110931D01*
X0438725Y0109332D02*
X0439875Y0109332D01*
X0439875Y0107734D02*
X0438725Y0107734D01*
X0438725Y0106135D02*
X0439875Y0106135D01*
X0439875Y0104537D02*
X0438725Y0104537D01*
X0438660Y0102938D02*
X0439940Y0102938D01*
X0440677Y0101340D02*
X0437923Y0101340D01*
X0447923Y0101340D02*
X0450677Y0101340D01*
X0449940Y0102938D02*
X0448660Y0102938D01*
X0448725Y0104537D02*
X0449875Y0104537D01*
X0449875Y0106135D02*
X0448725Y0106135D01*
X0448725Y0107734D02*
X0449875Y0107734D01*
X0449875Y0109332D02*
X0448725Y0109332D01*
X0448549Y0110931D02*
X0450051Y0110931D01*
X0450947Y0112529D02*
X0447653Y0112529D01*
X0457653Y0112529D02*
X0460947Y0112529D01*
X0460051Y0110931D02*
X0458549Y0110931D01*
X0458725Y0109332D02*
X0459875Y0109332D01*
X0459875Y0107734D02*
X0458725Y0107734D01*
X0458725Y0106135D02*
X0459875Y0106135D01*
X0459875Y0104537D02*
X0458725Y0104537D01*
X0458660Y0102938D02*
X0459940Y0102938D01*
X0460677Y0101340D02*
X0457923Y0101340D01*
X0409300Y0079300D02*
X0409300Y0073050D01*
X0409300Y0079300D02*
X0406800Y0081800D01*
X0404300Y0081800D01*
X0391900Y0072567D02*
X0349841Y0072567D01*
X0350381Y0070968D02*
X0391900Y0070968D01*
X0391900Y0069370D02*
X0350187Y0069370D01*
X0349086Y0067771D02*
X0391900Y0067771D01*
X0391900Y0066173D02*
X0345381Y0066173D01*
X0344639Y0064574D02*
X0391900Y0064574D01*
X0390831Y0062976D02*
X0344600Y0062976D01*
X0336800Y0061800D02*
X0251800Y0061800D01*
X0249300Y0064300D01*
X0249300Y0071800D01*
X0244300Y0076800D01*
X0239300Y0076800D01*
X0245551Y0078961D02*
X0291900Y0078961D01*
X0291900Y0080559D02*
X0247703Y0080559D01*
X0249302Y0082158D02*
X0291900Y0082158D01*
X0291900Y0083756D02*
X0250900Y0083756D01*
X0252499Y0085355D02*
X0291900Y0085355D01*
X0291900Y0086953D02*
X0253943Y0086953D01*
X0254200Y0088552D02*
X0291900Y0088552D01*
X0291900Y0090150D02*
X0254200Y0090150D01*
X0254200Y0091749D02*
X0291900Y0091749D01*
X0291900Y0093347D02*
X0254200Y0093347D01*
X0254200Y0094946D02*
X0291900Y0094946D01*
X0291900Y0096544D02*
X0254200Y0096544D01*
X0254200Y0098143D02*
X0291900Y0098143D01*
X0290677Y0101340D02*
X0288102Y0101340D01*
X0288818Y0102938D02*
X0289940Y0102938D01*
X0289875Y0104537D02*
X0288925Y0104537D01*
X0288925Y0106135D02*
X0289875Y0106135D01*
X0289875Y0107734D02*
X0288925Y0107734D01*
X0288925Y0109332D02*
X0289875Y0109332D01*
X0290051Y0110931D02*
X0288739Y0110931D01*
X0287907Y0112529D02*
X0290947Y0112529D01*
X0297653Y0112529D02*
X0300947Y0112529D01*
X0300051Y0110931D02*
X0298549Y0110931D01*
X0298725Y0109332D02*
X0299875Y0109332D01*
X0299875Y0107734D02*
X0298725Y0107734D01*
X0308725Y0107734D02*
X0309875Y0107734D01*
X0309875Y0109332D02*
X0308725Y0109332D01*
X0308549Y0110931D02*
X0310051Y0110931D01*
X0310947Y0112529D02*
X0307653Y0112529D01*
X0308725Y0106135D02*
X0309875Y0106135D01*
X0309875Y0104537D02*
X0308725Y0104537D01*
X0308660Y0102938D02*
X0309940Y0102938D01*
X0310677Y0101340D02*
X0307923Y0101340D01*
X0319479Y0115726D02*
X0254200Y0115726D01*
X0254200Y0114128D02*
X0273192Y0114128D01*
X0273217Y0114136D02*
X0272525Y0113911D01*
X0271876Y0113581D01*
X0271287Y0113153D01*
X0270772Y0112638D01*
X0270344Y0112049D01*
X0270014Y0111400D01*
X0269789Y0110708D01*
X0269675Y0109989D01*
X0269675Y0106912D01*
X0274187Y0106912D01*
X0274187Y0106687D01*
X0269675Y0106687D01*
X0269675Y0103611D01*
X0269789Y0102892D01*
X0270014Y0102200D01*
X0270344Y0101551D01*
X0270772Y0100962D01*
X0271287Y0100447D01*
X0271876Y0100019D01*
X0272525Y0099689D01*
X0273217Y0099464D01*
X0273936Y0099350D01*
X0274187Y0099350D01*
X0274187Y0106687D01*
X0274413Y0106687D01*
X0274413Y0106912D01*
X0278925Y0106912D01*
X0278925Y0109989D01*
X0278811Y0110708D01*
X0278586Y0111400D01*
X0278256Y0112049D01*
X0277828Y0112638D01*
X0277313Y0113153D01*
X0276724Y0113581D01*
X0276075Y0113911D01*
X0275383Y0114136D01*
X0274664Y0114250D01*
X0274413Y0114250D01*
X0274413Y0106913D01*
X0274187Y0106913D01*
X0274187Y0114250D01*
X0273936Y0114250D01*
X0273217Y0114136D01*
X0274187Y0114128D02*
X0274413Y0114128D01*
X0275408Y0114128D02*
X0283192Y0114128D01*
X0280693Y0112529D02*
X0277907Y0112529D01*
X0278739Y0110931D02*
X0279861Y0110931D01*
X0279675Y0109332D02*
X0278925Y0109332D01*
X0278925Y0107734D02*
X0279675Y0107734D01*
X0278925Y0106687D02*
X0274413Y0106687D01*
X0274413Y0099350D01*
X0274664Y0099350D01*
X0275383Y0099464D01*
X0276075Y0099689D01*
X0276724Y0100019D01*
X0277313Y0100447D01*
X0277828Y0100962D01*
X0278256Y0101551D01*
X0278586Y0102200D01*
X0278811Y0102892D01*
X0278925Y0103611D01*
X0278925Y0106687D01*
X0278925Y0106135D02*
X0279675Y0106135D01*
X0279675Y0104537D02*
X0278925Y0104537D01*
X0278818Y0102938D02*
X0279782Y0102938D01*
X0280498Y0101340D02*
X0278102Y0101340D01*
X0276178Y0099741D02*
X0282422Y0099741D01*
X0274413Y0099741D02*
X0274187Y0099741D01*
X0274187Y0101340D02*
X0274413Y0101340D01*
X0274413Y0102938D02*
X0274187Y0102938D01*
X0274187Y0104537D02*
X0274413Y0104537D01*
X0274413Y0106135D02*
X0274187Y0106135D01*
X0274187Y0107734D02*
X0274413Y0107734D01*
X0274413Y0109332D02*
X0274187Y0109332D01*
X0274187Y0110931D02*
X0274413Y0110931D01*
X0274413Y0112529D02*
X0274187Y0112529D01*
X0270693Y0112529D02*
X0254200Y0112529D01*
X0254200Y0110931D02*
X0269861Y0110931D01*
X0269675Y0109332D02*
X0254200Y0109332D01*
X0254200Y0107734D02*
X0269675Y0107734D01*
X0269675Y0106135D02*
X0254200Y0106135D01*
X0254200Y0104537D02*
X0269675Y0104537D01*
X0269782Y0102938D02*
X0254200Y0102938D01*
X0254200Y0101340D02*
X0270498Y0101340D01*
X0272422Y0099741D02*
X0254200Y0099741D01*
X0246800Y0109300D02*
X0244300Y0106800D01*
X0239300Y0106800D01*
X0246800Y0109300D02*
X0246800Y0146800D01*
X0244231Y0149295D02*
X0231700Y0149295D01*
X0231700Y0147697D02*
X0243295Y0147697D01*
X0243219Y0147512D02*
X0243219Y0146088D01*
X0243764Y0144771D01*
X0244400Y0144136D01*
X0244400Y0140422D01*
X0244206Y0140563D01*
X0243589Y0140878D01*
X0242930Y0141092D01*
X0242246Y0141200D01*
X0239300Y0141200D01*
X0239300Y0136800D01*
X0239300Y0136800D01*
X0239300Y0132400D01*
X0242246Y0132400D01*
X0242930Y0132508D01*
X0243589Y0132722D01*
X0244206Y0133037D01*
X0244400Y0133178D01*
X0244400Y0130240D01*
X0244279Y0130361D01*
X0242735Y0131000D01*
X0235865Y0131000D01*
X0234321Y0130361D01*
X0234227Y0130267D01*
X0231700Y0132794D01*
X0231700Y0170806D01*
X0238159Y0177265D01*
X0238835Y0177941D01*
X0239200Y0178823D01*
X0239200Y0187791D01*
X0239276Y0187822D01*
X0240506Y0189052D01*
X0241172Y0190659D01*
X0241172Y0197941D01*
X0240506Y0199548D01*
X0239276Y0200778D01*
X0237670Y0201443D01*
X0235930Y0201443D01*
X0234324Y0200778D01*
X0233094Y0199548D01*
X0232428Y0197941D01*
X0232428Y0190659D01*
X0233094Y0189052D01*
X0234324Y0187822D01*
X0234400Y0187791D01*
X0234400Y0180294D01*
X0230381Y0176275D01*
X0230381Y0177512D01*
X0229836Y0178829D01*
X0228829Y0179836D01*
X0227512Y0180381D01*
X0226088Y0180381D01*
X0224771Y0179836D01*
X0224200Y0179264D01*
X0224200Y0187946D01*
X0224324Y0187822D01*
X0225930Y0187157D01*
X0227670Y0187157D01*
X0229276Y0187822D01*
X0230506Y0189052D01*
X0231172Y0190659D01*
X0231172Y0197941D01*
X0230506Y0199548D01*
X0229276Y0200778D01*
X0227670Y0201443D01*
X0225930Y0201443D01*
X0224324Y0200778D01*
X0224200Y0200654D01*
X0224200Y0200806D01*
X0225294Y0201900D01*
X0244777Y0201900D01*
X0245659Y0202265D01*
X0246335Y0202941D01*
X0248835Y0205441D01*
X0249200Y0206323D01*
X0249200Y0207791D01*
X0249276Y0207822D01*
X0249400Y0207946D01*
X0249400Y0200654D01*
X0249276Y0200778D01*
X0247670Y0201443D01*
X0245930Y0201443D01*
X0244324Y0200778D01*
X0243094Y0199548D01*
X0242428Y0197941D01*
X0242428Y0190659D01*
X0243094Y0189052D01*
X0244324Y0187822D01*
X0245930Y0187157D01*
X0246799Y0187157D01*
X0254400Y0179556D01*
X0254400Y0154264D01*
X0253829Y0154836D01*
X0252512Y0155381D01*
X0251088Y0155381D01*
X0249771Y0154836D01*
X0248764Y0153829D01*
X0248219Y0152512D01*
X0248219Y0151088D01*
X0248719Y0149881D01*
X0247512Y0150381D01*
X0246088Y0150381D01*
X0244771Y0149836D01*
X0243764Y0148829D01*
X0243219Y0147512D01*
X0243219Y0146098D02*
X0231700Y0146098D01*
X0231700Y0144500D02*
X0244036Y0144500D01*
X0244400Y0142901D02*
X0231700Y0142901D01*
X0231700Y0141303D02*
X0244400Y0141303D01*
X0249300Y0141800D02*
X0251800Y0144300D01*
X0251800Y0151800D01*
X0249026Y0154091D02*
X0231700Y0154091D01*
X0231700Y0155689D02*
X0254400Y0155689D01*
X0254400Y0157288D02*
X0231700Y0157288D01*
X0231700Y0158886D02*
X0254400Y0158886D01*
X0254400Y0160485D02*
X0231700Y0160485D01*
X0231700Y0162083D02*
X0254400Y0162083D01*
X0254400Y0163682D02*
X0231700Y0163682D01*
X0231700Y0165280D02*
X0254400Y0165280D01*
X0254400Y0166879D02*
X0231700Y0166879D01*
X0231700Y0168477D02*
X0254400Y0168477D01*
X0254400Y0170076D02*
X0231700Y0170076D01*
X0232568Y0171674D02*
X0254400Y0171674D01*
X0254400Y0173273D02*
X0234167Y0173273D01*
X0235765Y0174871D02*
X0254400Y0174871D01*
X0254400Y0176470D02*
X0237364Y0176470D01*
X0238888Y0178068D02*
X0254400Y0178068D01*
X0254289Y0179667D02*
X0239200Y0179667D01*
X0239200Y0181265D02*
X0252690Y0181265D01*
X0251092Y0182864D02*
X0239200Y0182864D01*
X0239200Y0184462D02*
X0249493Y0184462D01*
X0247895Y0186061D02*
X0239200Y0186061D01*
X0239200Y0187659D02*
X0244717Y0187659D01*
X0243009Y0189258D02*
X0240591Y0189258D01*
X0241172Y0190856D02*
X0242428Y0190856D01*
X0242428Y0192455D02*
X0241172Y0192455D01*
X0241172Y0194053D02*
X0242428Y0194053D01*
X0242428Y0195652D02*
X0241172Y0195652D01*
X0241172Y0197251D02*
X0242428Y0197251D01*
X0242804Y0198849D02*
X0240796Y0198849D01*
X0239607Y0200448D02*
X0243993Y0200448D01*
X0245130Y0202046D02*
X0249400Y0202046D01*
X0249400Y0203645D02*
X0247039Y0203645D01*
X0248637Y0205243D02*
X0249400Y0205243D01*
X0249400Y0206842D02*
X0249200Y0206842D01*
X0246800Y0206800D02*
X0244300Y0204300D01*
X0224300Y0204300D01*
X0221800Y0201800D01*
X0221800Y0174675D01*
X0224300Y0172175D01*
X0224300Y0099300D01*
X0226800Y0096800D01*
X0234300Y0096800D02*
X0226800Y0104300D01*
X0226800Y0147925D01*
X0226675Y0148050D01*
X0226675Y0175550D01*
X0226800Y0176800D01*
X0230151Y0178068D02*
X0232174Y0178068D01*
X0230576Y0176470D02*
X0230381Y0176470D01*
X0228998Y0179667D02*
X0233773Y0179667D01*
X0234400Y0181265D02*
X0224200Y0181265D01*
X0224200Y0179667D02*
X0224602Y0179667D01*
X0224200Y0182864D02*
X0234400Y0182864D01*
X0234400Y0184462D02*
X0224200Y0184462D01*
X0224200Y0186061D02*
X0234400Y0186061D01*
X0234400Y0187659D02*
X0228883Y0187659D01*
X0230591Y0189258D02*
X0233009Y0189258D01*
X0232428Y0190856D02*
X0231172Y0190856D01*
X0231172Y0192455D02*
X0232428Y0192455D01*
X0232428Y0194053D02*
X0231172Y0194053D01*
X0231172Y0195652D02*
X0232428Y0195652D01*
X0232428Y0197251D02*
X0231172Y0197251D01*
X0230796Y0198849D02*
X0232804Y0198849D01*
X0233993Y0200448D02*
X0229607Y0200448D01*
X0236800Y0194300D02*
X0236800Y0179300D01*
X0229300Y0171800D01*
X0229300Y0131800D01*
X0234300Y0126800D01*
X0239300Y0126800D01*
X0244400Y0131712D02*
X0232783Y0131712D01*
X0231700Y0133310D02*
X0234018Y0133310D01*
X0233834Y0133444D02*
X0234394Y0133037D01*
X0235011Y0132722D01*
X0235670Y0132508D01*
X0236354Y0132400D01*
X0239300Y0132400D01*
X0239300Y0136800D01*
X0239300Y0136800D01*
X0239300Y0136800D01*
X0232300Y0136800D01*
X0232300Y0137146D01*
X0232408Y0137830D01*
X0232622Y0138489D01*
X0232937Y0139106D01*
X0233344Y0139666D01*
X0233834Y0140156D01*
X0234394Y0140563D01*
X0235011Y0140878D01*
X0235670Y0141092D01*
X0236354Y0141200D01*
X0239300Y0141200D01*
X0239300Y0136800D01*
X0232300Y0136800D01*
X0232300Y0136454D01*
X0232408Y0135770D01*
X0232622Y0135111D01*
X0232937Y0134494D01*
X0233344Y0133934D01*
X0233834Y0133444D01*
X0232725Y0134909D02*
X0231700Y0134909D01*
X0231700Y0136507D02*
X0232300Y0136507D01*
X0232498Y0138106D02*
X0231700Y0138106D01*
X0231700Y0139704D02*
X0233382Y0139704D01*
X0239300Y0139704D02*
X0239300Y0139704D01*
X0239300Y0138106D02*
X0239300Y0138106D01*
X0239300Y0136507D02*
X0239300Y0136507D01*
X0239300Y0134909D02*
X0239300Y0134909D01*
X0239300Y0133310D02*
X0239300Y0133310D01*
X0249300Y0141800D02*
X0249300Y0089300D01*
X0246800Y0086800D01*
X0239300Y0086800D01*
X0233050Y0081800D02*
X0245550Y0081800D01*
X0251800Y0088050D01*
X0251800Y0140550D01*
X0256800Y0145550D01*
X0256800Y0180550D01*
X0246800Y0190550D01*
X0246800Y0194300D01*
X0246800Y0206800D02*
X0246800Y0214300D01*
X0226800Y0214300D02*
X0226800Y0221800D01*
X0224300Y0224300D01*
X0214300Y0224300D01*
X0211800Y0221800D01*
X0201800Y0221800D02*
X0201800Y0129300D01*
X0204300Y0126800D01*
X0209300Y0126800D01*
X0216800Y0141800D02*
X0216800Y0109300D01*
X0214300Y0106800D01*
X0209300Y0106800D01*
X0234300Y0096800D02*
X0239300Y0096800D01*
X0233050Y0081800D02*
X0230550Y0079300D01*
X0230550Y0061800D01*
X0235550Y0056800D01*
X0239300Y0056800D01*
X0252420Y0064574D02*
X0296882Y0064574D01*
X0295283Y0066173D02*
X0251700Y0066173D01*
X0251700Y0067771D02*
X0293685Y0067771D01*
X0292191Y0069370D02*
X0251700Y0069370D01*
X0251700Y0070968D02*
X0291900Y0070968D01*
X0291900Y0072567D02*
X0251580Y0072567D01*
X0250329Y0074165D02*
X0291900Y0074165D01*
X0291900Y0075764D02*
X0248730Y0075764D01*
X0247132Y0077362D02*
X0291900Y0077362D01*
X0296700Y0074165D02*
X0338738Y0074165D01*
X0336673Y0072567D02*
X0296700Y0072567D01*
X0297276Y0070968D02*
X0335074Y0070968D01*
X0333476Y0069370D02*
X0298874Y0069370D01*
X0300473Y0067771D02*
X0331877Y0067771D01*
X0345550Y0071800D02*
X0346800Y0070550D01*
X0338504Y0034202D02*
X0014400Y0034202D01*
X0014400Y0035801D02*
X0155958Y0035801D01*
X0154056Y0037399D02*
X0014400Y0037399D01*
X0014400Y0038998D02*
X0152458Y0038998D01*
X0150859Y0040596D02*
X0014400Y0040596D01*
X0014400Y0042195D02*
X0149261Y0042195D01*
X0147662Y0043793D02*
X0134833Y0043793D01*
X0134279Y0043239D02*
X0135461Y0044421D01*
X0136100Y0045965D01*
X0136100Y0047635D01*
X0135461Y0049179D01*
X0134279Y0050361D01*
X0132735Y0051000D01*
X0125865Y0051000D01*
X0124321Y0050361D01*
X0123139Y0049179D01*
X0122500Y0047635D01*
X0122500Y0045965D01*
X0123139Y0044421D01*
X0124321Y0043239D01*
X0125865Y0042600D01*
X0132735Y0042600D01*
X0134279Y0043239D01*
X0135863Y0045392D02*
X0146064Y0045392D01*
X0144465Y0046990D02*
X0136100Y0046990D01*
X0135705Y0048589D02*
X0142867Y0048589D01*
X0141900Y0050187D02*
X0134452Y0050187D01*
X0134424Y0053384D02*
X0141900Y0053384D01*
X0141900Y0051786D02*
X0014400Y0051786D01*
X0014400Y0053384D02*
X0124176Y0053384D01*
X0122907Y0054983D02*
X0014400Y0054983D01*
X0014400Y0056582D02*
X0122500Y0056582D01*
X0122726Y0058180D02*
X0014400Y0058180D01*
X0014400Y0050187D02*
X0124148Y0050187D01*
X0122895Y0048589D02*
X0014400Y0048589D01*
X0014400Y0046990D02*
X0122500Y0046990D01*
X0122737Y0045392D02*
X0014400Y0045392D01*
X0014400Y0043793D02*
X0123767Y0043793D01*
X0129300Y0056800D02*
X0136800Y0056800D01*
X0141800Y0061800D01*
X0141800Y0159300D01*
X0136800Y0164300D01*
X0136800Y0173050D01*
X0126800Y0183050D01*
X0131800Y0181800D02*
X0131800Y0219300D01*
X0134300Y0221800D01*
X0159300Y0221800D01*
X0161800Y0219300D01*
X0161800Y0206800D01*
X0166800Y0201800D01*
X0166800Y0194300D01*
X0174200Y0200654D02*
X0174200Y0202277D01*
X0173835Y0203159D01*
X0173159Y0203835D01*
X0169202Y0207792D01*
X0169276Y0207822D01*
X0170506Y0209052D01*
X0171172Y0210659D01*
X0171172Y0217941D01*
X0170506Y0219548D01*
X0169276Y0220778D01*
X0167670Y0221443D01*
X0165930Y0221443D01*
X0164324Y0220778D01*
X0163943Y0220397D01*
X0163835Y0220659D01*
X0162594Y0221900D01*
X0198306Y0221900D01*
X0199400Y0220806D01*
X0199400Y0220654D01*
X0199276Y0220778D01*
X0197670Y0221443D01*
X0195930Y0221443D01*
X0194324Y0220778D01*
X0193094Y0219548D01*
X0192428Y0217941D01*
X0192428Y0210659D01*
X0193094Y0209052D01*
X0194324Y0207822D01*
X0194398Y0207792D01*
X0189765Y0203159D01*
X0189400Y0202277D01*
X0189400Y0200833D01*
X0189196Y0200982D01*
X0188555Y0201308D01*
X0187871Y0201531D01*
X0187160Y0201643D01*
X0186886Y0201643D01*
X0186886Y0194386D01*
X0186714Y0194386D01*
X0186714Y0201643D01*
X0186440Y0201643D01*
X0185729Y0201531D01*
X0185045Y0201308D01*
X0184404Y0200982D01*
X0183822Y0200559D01*
X0183313Y0200050D01*
X0182890Y0199468D01*
X0182563Y0198827D01*
X0182341Y0198142D01*
X0182228Y0197431D01*
X0182228Y0194386D01*
X0186714Y0194386D01*
X0186714Y0194214D01*
X0186886Y0194214D01*
X0186886Y0186957D01*
X0187160Y0186957D01*
X0187341Y0186985D01*
X0187056Y0186700D01*
X0179200Y0186700D01*
X0179200Y0187791D01*
X0179276Y0187822D01*
X0180506Y0189052D01*
X0181172Y0190659D01*
X0181172Y0197941D01*
X0180506Y0199548D01*
X0179276Y0200778D01*
X0177670Y0201443D01*
X0175930Y0201443D01*
X0174324Y0200778D01*
X0174200Y0200654D01*
X0174200Y0202046D02*
X0189400Y0202046D01*
X0190250Y0203645D02*
X0173350Y0203645D01*
X0171751Y0205243D02*
X0191849Y0205243D01*
X0193447Y0206842D02*
X0170153Y0206842D01*
X0169894Y0208440D02*
X0173423Y0208440D01*
X0173313Y0208550D02*
X0173822Y0208041D01*
X0174404Y0207618D01*
X0175045Y0207292D01*
X0175729Y0207069D01*
X0176440Y0206957D01*
X0176714Y0206957D01*
X0176714Y0214214D01*
X0172228Y0214214D01*
X0172228Y0211169D01*
X0172341Y0210458D01*
X0172563Y0209773D01*
X0172890Y0209132D01*
X0173313Y0208550D01*
X0172477Y0210039D02*
X0170915Y0210039D01*
X0171172Y0211637D02*
X0172228Y0211637D01*
X0172228Y0213236D02*
X0171172Y0213236D01*
X0172228Y0214386D02*
X0176714Y0214386D01*
X0176714Y0221643D01*
X0176440Y0221643D01*
X0175729Y0221531D01*
X0175045Y0221308D01*
X0174404Y0220982D01*
X0173822Y0220559D01*
X0173313Y0220050D01*
X0172890Y0219468D01*
X0172563Y0218827D01*
X0172341Y0218142D01*
X0172228Y0217431D01*
X0172228Y0214386D01*
X0172228Y0214834D02*
X0171172Y0214834D01*
X0171172Y0216433D02*
X0172228Y0216433D01*
X0172323Y0218031D02*
X0171134Y0218031D01*
X0170424Y0219630D02*
X0173008Y0219630D01*
X0174888Y0221228D02*
X0168189Y0221228D01*
X0165411Y0221228D02*
X0163266Y0221228D01*
X0152466Y0218031D02*
X0151134Y0218031D01*
X0151172Y0216433D02*
X0152428Y0216433D01*
X0152428Y0214834D02*
X0151172Y0214834D01*
X0151172Y0213236D02*
X0152428Y0213236D01*
X0152428Y0211637D02*
X0151172Y0211637D01*
X0150915Y0210039D02*
X0152685Y0210039D01*
X0153706Y0208440D02*
X0149894Y0208440D01*
X0149200Y0206842D02*
X0154400Y0206842D01*
X0154963Y0205243D02*
X0148637Y0205243D01*
X0147039Y0203645D02*
X0156561Y0203645D01*
X0158160Y0202046D02*
X0145440Y0202046D01*
X0141800Y0201800D02*
X0146800Y0206800D01*
X0146800Y0214300D01*
X0156800Y0214300D02*
X0156800Y0206800D01*
X0161800Y0201800D01*
X0161800Y0178050D01*
X0159300Y0175550D01*
X0159300Y0154300D01*
X0169300Y0144300D01*
X0169300Y0061800D01*
X0164300Y0056800D01*
X0159300Y0056800D01*
X0141900Y0056582D02*
X0139976Y0056582D01*
X0141574Y0058180D02*
X0141900Y0058180D01*
X0141900Y0054983D02*
X0138377Y0054983D01*
X0136384Y0059779D02*
X0134861Y0059779D01*
X0144300Y0074300D02*
X0151800Y0066800D01*
X0159300Y0066800D01*
X0144300Y0074300D02*
X0144300Y0160550D01*
X0139300Y0165550D01*
X0139300Y0174300D01*
X0131800Y0181800D01*
X0144300Y0175550D02*
X0146800Y0178050D01*
X0146800Y0194300D01*
X0151172Y0195652D02*
X0152428Y0195652D01*
X0152428Y0197251D02*
X0151172Y0197251D01*
X0150796Y0198849D02*
X0152804Y0198849D01*
X0153993Y0200448D02*
X0149607Y0200448D01*
X0166800Y0206800D02*
X0171800Y0201800D01*
X0171800Y0184300D01*
X0161800Y0174300D01*
X0161800Y0155550D01*
X0171800Y0145550D01*
X0171800Y0079300D01*
X0174300Y0076800D01*
X0199300Y0091800D02*
X0199300Y0174300D01*
X0196800Y0176800D01*
X0188050Y0184300D02*
X0179300Y0184300D01*
X0166800Y0171800D01*
X0166800Y0158050D01*
X0176800Y0148050D01*
X0176800Y0116800D01*
X0180550Y0113050D01*
X0174300Y0109300D02*
X0176800Y0106800D01*
X0174300Y0109300D02*
X0174300Y0146800D01*
X0164300Y0156800D01*
X0164300Y0173050D01*
X0176800Y0185550D01*
X0176800Y0194300D01*
X0181172Y0194053D02*
X0182228Y0194053D01*
X0182228Y0194214D02*
X0182228Y0191169D01*
X0182341Y0190458D01*
X0182563Y0189773D01*
X0182890Y0189132D01*
X0183313Y0188550D01*
X0183822Y0188041D01*
X0184404Y0187618D01*
X0185045Y0187292D01*
X0185729Y0187069D01*
X0186440Y0186957D01*
X0186714Y0186957D01*
X0186714Y0194214D01*
X0182228Y0194214D01*
X0182228Y0195652D02*
X0181172Y0195652D01*
X0181172Y0197251D02*
X0182228Y0197251D01*
X0182575Y0198849D02*
X0180796Y0198849D01*
X0179607Y0200448D02*
X0183711Y0200448D01*
X0186714Y0200448D02*
X0186886Y0200448D01*
X0186886Y0198849D02*
X0186714Y0198849D01*
X0186714Y0197251D02*
X0186886Y0197251D01*
X0186886Y0195652D02*
X0186714Y0195652D01*
X0186800Y0194300D02*
X0186800Y0214300D01*
X0176800Y0214300D01*
X0176886Y0214386D02*
X0176714Y0214386D01*
X0176714Y0214214D01*
X0176886Y0214214D01*
X0176886Y0214386D01*
X0176886Y0221643D01*
X0177160Y0221643D01*
X0177871Y0221531D01*
X0178555Y0221308D01*
X0179196Y0220982D01*
X0179778Y0220559D01*
X0180287Y0220050D01*
X0180710Y0219468D01*
X0181037Y0218827D01*
X0181259Y0218142D01*
X0181372Y0217431D01*
X0181372Y0214386D01*
X0176886Y0214386D01*
X0176886Y0214214D02*
X0181372Y0214214D01*
X0181372Y0211169D01*
X0181259Y0210458D01*
X0181037Y0209773D01*
X0180710Y0209132D01*
X0180287Y0208550D01*
X0179778Y0208041D01*
X0179196Y0207618D01*
X0178555Y0207292D01*
X0177871Y0207069D01*
X0177160Y0206957D01*
X0176886Y0206957D01*
X0176886Y0214214D01*
X0176886Y0214834D02*
X0176714Y0214834D01*
X0176714Y0213236D02*
X0176886Y0213236D01*
X0176886Y0211637D02*
X0176714Y0211637D01*
X0176714Y0210039D02*
X0176886Y0210039D01*
X0176886Y0208440D02*
X0176714Y0208440D01*
X0180177Y0208440D02*
X0183423Y0208440D01*
X0183313Y0208550D02*
X0183822Y0208041D01*
X0184404Y0207618D01*
X0185045Y0207292D01*
X0185729Y0207069D01*
X0186440Y0206957D01*
X0186714Y0206957D01*
X0186714Y0214214D01*
X0182228Y0214214D01*
X0182228Y0211169D01*
X0182341Y0210458D01*
X0182563Y0209773D01*
X0182890Y0209132D01*
X0183313Y0208550D01*
X0182477Y0210039D02*
X0181123Y0210039D01*
X0181372Y0211637D02*
X0182228Y0211637D01*
X0182228Y0213236D02*
X0181372Y0213236D01*
X0182228Y0214386D02*
X0186714Y0214386D01*
X0186714Y0221643D01*
X0186440Y0221643D01*
X0185729Y0221531D01*
X0185045Y0221308D01*
X0184404Y0220982D01*
X0183822Y0220559D01*
X0183313Y0220050D01*
X0182890Y0219468D01*
X0182563Y0218827D01*
X0182341Y0218142D01*
X0182228Y0217431D01*
X0182228Y0214386D01*
X0182228Y0214834D02*
X0181372Y0214834D01*
X0181372Y0216433D02*
X0182228Y0216433D01*
X0182323Y0218031D02*
X0181277Y0218031D01*
X0180592Y0219630D02*
X0183008Y0219630D01*
X0184888Y0221228D02*
X0178712Y0221228D01*
X0176886Y0221228D02*
X0176714Y0221228D01*
X0176714Y0219630D02*
X0176886Y0219630D01*
X0176886Y0218031D02*
X0176714Y0218031D01*
X0176714Y0216433D02*
X0176886Y0216433D01*
X0186714Y0216433D02*
X0186886Y0216433D01*
X0186886Y0218031D02*
X0186714Y0218031D01*
X0186714Y0219630D02*
X0186886Y0219630D01*
X0186886Y0221228D02*
X0186714Y0221228D01*
X0186886Y0221643D02*
X0186886Y0214386D01*
X0186714Y0214386D01*
X0186714Y0214214D01*
X0186886Y0214214D01*
X0186886Y0214386D01*
X0191372Y0214386D01*
X0191372Y0217431D01*
X0191259Y0218142D01*
X0191037Y0218827D01*
X0190710Y0219468D01*
X0190287Y0220050D01*
X0189778Y0220559D01*
X0189196Y0220982D01*
X0188555Y0221308D01*
X0187871Y0221531D01*
X0187160Y0221643D01*
X0186886Y0221643D01*
X0188712Y0221228D02*
X0195411Y0221228D01*
X0193176Y0219630D02*
X0190592Y0219630D01*
X0191277Y0218031D02*
X0192466Y0218031D01*
X0192428Y0216433D02*
X0191372Y0216433D01*
X0191372Y0214834D02*
X0192428Y0214834D01*
X0191372Y0214214D02*
X0186886Y0214214D01*
X0186886Y0206957D01*
X0187160Y0206957D01*
X0187871Y0207069D01*
X0188555Y0207292D01*
X0189196Y0207618D01*
X0189778Y0208041D01*
X0190287Y0208550D01*
X0190710Y0209132D01*
X0191037Y0209773D01*
X0191259Y0210458D01*
X0191372Y0211169D01*
X0191372Y0214214D01*
X0191372Y0213236D02*
X0192428Y0213236D01*
X0192428Y0211637D02*
X0191372Y0211637D01*
X0191123Y0210039D02*
X0192685Y0210039D01*
X0193706Y0208440D02*
X0190177Y0208440D01*
X0186886Y0208440D02*
X0186714Y0208440D01*
X0186714Y0210039D02*
X0186886Y0210039D01*
X0186886Y0211637D02*
X0186714Y0211637D01*
X0186714Y0213236D02*
X0186886Y0213236D01*
X0186886Y0214834D02*
X0186714Y0214834D01*
X0196800Y0214300D02*
X0196800Y0206800D01*
X0191800Y0201800D01*
X0191800Y0188050D01*
X0188050Y0184300D01*
X0186886Y0187659D02*
X0186714Y0187659D01*
X0186714Y0189258D02*
X0186886Y0189258D01*
X0186886Y0190856D02*
X0186714Y0190856D01*
X0186714Y0192455D02*
X0186886Y0192455D01*
X0186886Y0194053D02*
X0186714Y0194053D01*
X0182228Y0192455D02*
X0181172Y0192455D01*
X0181172Y0190856D02*
X0182278Y0190856D01*
X0182826Y0189258D02*
X0180591Y0189258D01*
X0179200Y0187659D02*
X0184347Y0187659D01*
X0206800Y0186800D02*
X0211300Y0182300D01*
X0211300Y0147300D01*
X0216800Y0141800D01*
X0219300Y0143050D02*
X0219300Y0079300D01*
X0216800Y0076800D01*
X0209300Y0076800D01*
X0216800Y0066800D02*
X0221800Y0071800D01*
X0221800Y0144300D01*
X0216800Y0149300D01*
X0216800Y0194300D01*
X0206800Y0194300D02*
X0206800Y0186800D01*
X0211800Y0186300D02*
X0214050Y0184050D01*
X0214050Y0148300D01*
X0219300Y0143050D01*
X0231700Y0150894D02*
X0248299Y0150894D01*
X0248219Y0152492D02*
X0231700Y0152492D01*
X0265351Y0128515D02*
X0306691Y0128515D01*
X0308290Y0126916D02*
X0264480Y0126916D01*
X0254200Y0125318D02*
X0309888Y0125318D01*
X0311487Y0123719D02*
X0254200Y0123719D01*
X0254200Y0122120D02*
X0313085Y0122120D01*
X0314684Y0120522D02*
X0254200Y0120522D01*
X0254200Y0118923D02*
X0316282Y0118923D01*
X0317881Y0117325D02*
X0254200Y0117325D01*
X0204300Y0086800D02*
X0199300Y0091800D01*
X0204300Y0086800D02*
X0209300Y0086800D01*
X0209300Y0066800D02*
X0216800Y0066800D01*
X0232219Y0032604D02*
X0382602Y0032604D01*
X0384215Y0031005D02*
X0233700Y0031005D01*
X0224900Y0031005D02*
X0213500Y0031005D01*
X0213500Y0029407D02*
X0224900Y0029407D01*
X0224900Y0027808D02*
X0213500Y0027808D01*
X0212149Y0026210D02*
X0226168Y0026210D01*
X0146168Y0026210D02*
X0132149Y0026210D01*
X0133500Y0027808D02*
X0144900Y0027808D01*
X0144900Y0029407D02*
X0133500Y0029407D01*
X0133500Y0031005D02*
X0144900Y0031005D01*
X0066897Y0075764D02*
X0014400Y0075764D01*
X0014400Y0077362D02*
X0065298Y0077362D01*
X0065100Y0078961D02*
X0014400Y0078961D01*
X0014400Y0080559D02*
X0065100Y0080559D01*
X0065100Y0107734D02*
X0014400Y0107734D01*
X0014400Y0109332D02*
X0065100Y0109332D01*
X0065100Y0110931D02*
X0014400Y0110931D01*
X0014400Y0112529D02*
X0066590Y0112529D01*
X0046010Y0115726D02*
X0031340Y0115726D01*
X0033120Y0117325D02*
X0044230Y0117325D01*
X0043675Y0118923D02*
X0033675Y0118923D01*
X0033598Y0120522D02*
X0043752Y0120522D01*
X0044556Y0122120D02*
X0032794Y0122120D01*
X0030836Y0125318D02*
X0046514Y0125318D01*
X0044319Y0126916D02*
X0033031Y0126916D01*
X0033675Y0128515D02*
X0043675Y0128515D01*
X0043675Y0130113D02*
X0033675Y0130113D01*
X0033003Y0131712D02*
X0044347Y0131712D01*
X0046581Y0133310D02*
X0030769Y0133310D01*
X0030331Y0134909D02*
X0047019Y0134909D01*
X0047040Y0134900D02*
X0045496Y0135539D01*
X0044314Y0136721D01*
X0043675Y0138265D01*
X0043675Y0139935D01*
X0044314Y0141479D01*
X0045496Y0142661D01*
X0047040Y0143300D01*
X0053910Y0143300D01*
X0055454Y0142661D01*
X0056636Y0141479D01*
X0057275Y0139935D01*
X0057275Y0138265D01*
X0056636Y0136721D01*
X0055454Y0135539D01*
X0053910Y0134900D01*
X0047040Y0134900D01*
X0044528Y0136507D02*
X0032822Y0136507D01*
X0033609Y0138106D02*
X0043741Y0138106D01*
X0043675Y0139704D02*
X0033675Y0139704D01*
X0033109Y0141303D02*
X0044241Y0141303D01*
X0046077Y0142901D02*
X0031273Y0142901D01*
X0054873Y0142901D02*
X0136900Y0142901D01*
X0135409Y0141303D02*
X0056709Y0141303D01*
X0057275Y0139704D02*
X0123664Y0139704D01*
X0122695Y0138106D02*
X0057209Y0138106D01*
X0056422Y0136507D02*
X0122500Y0136507D01*
X0122937Y0134909D02*
X0053931Y0134909D01*
X0054369Y0133310D02*
X0124250Y0133310D01*
X0123841Y0123719D02*
X0094311Y0123719D01*
X0091800Y0123719D02*
X0091800Y0123719D01*
X0091800Y0122120D02*
X0091800Y0122120D01*
X0091800Y0120522D02*
X0091800Y0120522D01*
X0091800Y0118923D02*
X0091800Y0118923D01*
X0091800Y0117325D02*
X0091800Y0117325D01*
X0091800Y0115726D02*
X0091800Y0115726D01*
X0089289Y0123719D02*
X0014400Y0123719D01*
X0135168Y0114128D02*
X0139400Y0114128D01*
X0139400Y0115726D02*
X0136001Y0115726D01*
X0136100Y0117325D02*
X0139400Y0117325D01*
X0139400Y0118923D02*
X0135566Y0118923D01*
X0149300Y0131800D02*
X0154300Y0126800D01*
X0159300Y0126800D01*
X0164400Y0131712D02*
X0152783Y0131712D01*
X0149300Y0131800D02*
X0149300Y0163050D01*
X0144300Y0168050D01*
X0144300Y0175550D01*
X0166800Y0206800D02*
X0166800Y0214300D01*
X0198189Y0221228D02*
X0198978Y0221228D01*
X0201800Y0221800D02*
X0199300Y0224300D01*
X0119300Y0224300D01*
X0116800Y0221800D01*
X0116800Y0214300D01*
X0109400Y0221228D02*
X0108189Y0221228D01*
X0109628Y0222827D02*
X0051221Y0222827D01*
X0052819Y0224425D02*
X0111031Y0224425D01*
X0112630Y0226024D02*
X0054418Y0226024D01*
X0060424Y0219630D02*
X0063176Y0219630D01*
X0062466Y0218031D02*
X0061134Y0218031D01*
X0061172Y0216433D02*
X0062428Y0216433D01*
X0062428Y0214834D02*
X0061172Y0214834D01*
X0061172Y0213236D02*
X0062428Y0213236D01*
X0062428Y0211637D02*
X0061172Y0211637D01*
X0060915Y0210039D02*
X0062685Y0210039D01*
X0063706Y0208440D02*
X0059894Y0208440D01*
X0069894Y0208440D02*
X0073706Y0208440D01*
X0072685Y0210039D02*
X0070915Y0210039D01*
X0071172Y0211637D02*
X0072428Y0211637D01*
X0072428Y0213236D02*
X0071172Y0213236D01*
X0071172Y0214834D02*
X0072428Y0214834D01*
X0072428Y0216433D02*
X0071172Y0216433D01*
X0071134Y0218031D02*
X0072466Y0218031D01*
X0073176Y0219630D02*
X0070424Y0219630D01*
X0080424Y0219630D02*
X0083176Y0219630D01*
X0082466Y0218031D02*
X0081134Y0218031D01*
X0081172Y0216433D02*
X0082428Y0216433D01*
X0082428Y0214834D02*
X0081172Y0214834D01*
X0081172Y0213236D02*
X0082428Y0213236D01*
X0082428Y0211637D02*
X0081172Y0211637D01*
X0080915Y0210039D02*
X0082685Y0210039D01*
X0083706Y0208440D02*
X0079894Y0208440D01*
X0089894Y0208440D02*
X0093706Y0208440D01*
X0092685Y0210039D02*
X0090915Y0210039D01*
X0091172Y0211637D02*
X0092428Y0211637D01*
X0092428Y0213236D02*
X0091172Y0213236D01*
X0091172Y0214834D02*
X0092428Y0214834D01*
X0092428Y0216433D02*
X0091172Y0216433D01*
X0091134Y0218031D02*
X0092466Y0218031D01*
X0093176Y0219630D02*
X0090424Y0219630D01*
X0020143Y0240410D02*
X0465957Y0240410D01*
X0468222Y0238812D02*
X0017878Y0238812D01*
X0016415Y0237213D02*
X0469685Y0237213D01*
X0470608Y0235615D02*
X0015492Y0235615D01*
X0015211Y0235127D02*
X0015211Y0235127D01*
X0014913Y0234016D02*
X0471187Y0234016D01*
X0404484Y0198849D02*
X0404273Y0198849D01*
X0404273Y0197251D02*
X0404484Y0197251D01*
X0404484Y0195652D02*
X0404273Y0195652D01*
X0380192Y0211637D02*
X0281172Y0211637D01*
X0280915Y0210039D02*
X0378661Y0210039D01*
X0342549Y0130113D02*
X0326881Y0130113D01*
X0328480Y0128515D02*
X0341969Y0128515D01*
X0341022Y0126916D02*
X0330078Y0126916D01*
X0224717Y0187659D02*
X0224200Y0187659D01*
X0211800Y0186300D02*
X0211800Y0201800D01*
X0206800Y0206800D01*
X0206800Y0214300D01*
X0458390Y0051786D02*
X0460406Y0051786D01*
X0459875Y0050187D02*
X0458894Y0050187D01*
X0458925Y0048589D02*
X0459875Y0048589D01*
X0459875Y0046990D02*
X0458925Y0046990D01*
X0458925Y0045392D02*
X0459875Y0045392D01*
X0459875Y0043793D02*
X0458925Y0043793D01*
X0458584Y0042195D02*
X0460248Y0042195D01*
X0461421Y0040596D02*
X0457462Y0040596D01*
D19*
X0399300Y0055550D03*
X0404300Y0075550D03*
X0404300Y0081800D03*
X0346800Y0070550D03*
X0341800Y0066800D03*
X0336800Y0061800D03*
X0226800Y0096800D03*
X0180550Y0113050D03*
X0176800Y0106800D03*
X0174300Y0076800D03*
X0261800Y0129300D03*
X0256800Y0134300D03*
X0246800Y0146800D03*
X0251800Y0151800D03*
X0244300Y0161800D03*
X0248050Y0174300D03*
X0226800Y0176800D03*
X0196800Y0176800D03*
X0275550Y0153050D03*
X0296800Y0153050D03*
X0345550Y0128050D03*
X0350550Y0124300D03*
X0211800Y0221800D03*
D20*
X0341800Y0066800D02*
X0341800Y0060550D01*
X0338050Y0056800D01*
X0249300Y0056800D01*
X0244300Y0051800D01*
X0225550Y0051800D01*
X0220550Y0046800D01*
X0209300Y0046800D01*
M02*
