G75*
%MOIN*%
%OFA0B0*%
%FSLAX25Y25*%
%IPPOS*%
%LPD*%
%AMOC8*
5,1,8,0,0,1.08239X$1,22.5*
%
%ADD10C,0.00600*%
%ADD11C,0.06450*%
%ADD12C,0.06000*%
%ADD13OC8,0.06000*%
%ADD14C,0.06343*%
%ADD15OC8,0.07000*%
%ADD16C,0.13855*%
%ADD17C,0.06422*%
%ADD18C,0.04762*%
D10*
X0025048Y0006800D02*
X0461052Y0006800D01*
X0461433Y0006805D01*
X0461813Y0006818D01*
X0462193Y0006841D01*
X0462572Y0006874D01*
X0462950Y0006915D01*
X0463327Y0006965D01*
X0463703Y0007025D01*
X0464078Y0007093D01*
X0464450Y0007171D01*
X0464821Y0007258D01*
X0465189Y0007353D01*
X0465555Y0007458D01*
X0465918Y0007571D01*
X0466279Y0007693D01*
X0466636Y0007823D01*
X0466990Y0007963D01*
X0467341Y0008110D01*
X0467688Y0008267D01*
X0468031Y0008431D01*
X0468370Y0008604D01*
X0468705Y0008785D01*
X0469036Y0008974D01*
X0469361Y0009171D01*
X0469682Y0009375D01*
X0469998Y0009588D01*
X0470308Y0009808D01*
X0470614Y0010035D01*
X0470913Y0010270D01*
X0471207Y0010512D01*
X0471495Y0010760D01*
X0471777Y0011016D01*
X0472052Y0011279D01*
X0472321Y0011548D01*
X0472584Y0011823D01*
X0472840Y0012105D01*
X0473088Y0012393D01*
X0473330Y0012687D01*
X0473565Y0012986D01*
X0473792Y0013292D01*
X0474012Y0013602D01*
X0474225Y0013918D01*
X0474429Y0014239D01*
X0474626Y0014564D01*
X0474815Y0014895D01*
X0474996Y0015230D01*
X0475169Y0015569D01*
X0475333Y0015912D01*
X0475490Y0016259D01*
X0475637Y0016610D01*
X0475777Y0016964D01*
X0475907Y0017321D01*
X0476029Y0017682D01*
X0476142Y0018045D01*
X0476247Y0018411D01*
X0476342Y0018779D01*
X0476429Y0019150D01*
X0476507Y0019522D01*
X0476575Y0019897D01*
X0476635Y0020273D01*
X0476685Y0020650D01*
X0476726Y0021028D01*
X0476759Y0021407D01*
X0476782Y0021787D01*
X0476795Y0022167D01*
X0476800Y0022548D01*
X0476800Y0231052D01*
X0476795Y0231433D01*
X0476782Y0231813D01*
X0476759Y0232193D01*
X0476726Y0232572D01*
X0476685Y0232950D01*
X0476635Y0233327D01*
X0476575Y0233703D01*
X0476507Y0234078D01*
X0476429Y0234450D01*
X0476342Y0234821D01*
X0476247Y0235189D01*
X0476142Y0235555D01*
X0476029Y0235918D01*
X0475907Y0236279D01*
X0475777Y0236636D01*
X0475637Y0236990D01*
X0475490Y0237341D01*
X0475333Y0237688D01*
X0475169Y0238031D01*
X0474996Y0238370D01*
X0474815Y0238705D01*
X0474626Y0239036D01*
X0474429Y0239361D01*
X0474225Y0239682D01*
X0474012Y0239998D01*
X0473792Y0240308D01*
X0473565Y0240614D01*
X0473330Y0240913D01*
X0473088Y0241207D01*
X0472840Y0241495D01*
X0472584Y0241777D01*
X0472321Y0242052D01*
X0472052Y0242321D01*
X0471777Y0242584D01*
X0471495Y0242840D01*
X0471207Y0243088D01*
X0470913Y0243330D01*
X0470614Y0243565D01*
X0470308Y0243792D01*
X0469998Y0244012D01*
X0469682Y0244225D01*
X0469361Y0244429D01*
X0469036Y0244626D01*
X0468705Y0244815D01*
X0468370Y0244996D01*
X0468031Y0245169D01*
X0467688Y0245333D01*
X0467341Y0245490D01*
X0466990Y0245637D01*
X0466636Y0245777D01*
X0466279Y0245907D01*
X0465918Y0246029D01*
X0465555Y0246142D01*
X0465189Y0246247D01*
X0464821Y0246342D01*
X0464450Y0246429D01*
X0464078Y0246507D01*
X0463703Y0246575D01*
X0463327Y0246635D01*
X0462950Y0246685D01*
X0462572Y0246726D01*
X0462193Y0246759D01*
X0461813Y0246782D01*
X0461433Y0246795D01*
X0461052Y0246800D01*
X0025048Y0246800D01*
X0024667Y0246795D01*
X0024287Y0246782D01*
X0023907Y0246759D01*
X0023528Y0246726D01*
X0023150Y0246685D01*
X0022773Y0246635D01*
X0022397Y0246575D01*
X0022022Y0246507D01*
X0021650Y0246429D01*
X0021279Y0246342D01*
X0020911Y0246247D01*
X0020545Y0246142D01*
X0020182Y0246029D01*
X0019821Y0245907D01*
X0019464Y0245777D01*
X0019110Y0245637D01*
X0018759Y0245490D01*
X0018412Y0245333D01*
X0018069Y0245169D01*
X0017730Y0244996D01*
X0017395Y0244815D01*
X0017064Y0244626D01*
X0016739Y0244429D01*
X0016418Y0244225D01*
X0016102Y0244012D01*
X0015792Y0243792D01*
X0015486Y0243565D01*
X0015187Y0243330D01*
X0014893Y0243088D01*
X0014605Y0242840D01*
X0014323Y0242584D01*
X0014048Y0242321D01*
X0013779Y0242052D01*
X0013516Y0241777D01*
X0013260Y0241495D01*
X0013012Y0241207D01*
X0012770Y0240913D01*
X0012535Y0240614D01*
X0012308Y0240308D01*
X0012088Y0239998D01*
X0011875Y0239682D01*
X0011671Y0239361D01*
X0011474Y0239036D01*
X0011285Y0238705D01*
X0011104Y0238370D01*
X0010931Y0238031D01*
X0010767Y0237688D01*
X0010610Y0237341D01*
X0010463Y0236990D01*
X0010323Y0236636D01*
X0010193Y0236279D01*
X0010071Y0235918D01*
X0009958Y0235555D01*
X0009853Y0235189D01*
X0009758Y0234821D01*
X0009671Y0234450D01*
X0009593Y0234078D01*
X0009525Y0233703D01*
X0009465Y0233327D01*
X0009415Y0232950D01*
X0009374Y0232572D01*
X0009341Y0232193D01*
X0009318Y0231813D01*
X0009305Y0231433D01*
X0009300Y0231052D01*
X0009300Y0022548D01*
X0009305Y0022167D01*
X0009318Y0021787D01*
X0009341Y0021407D01*
X0009374Y0021028D01*
X0009415Y0020650D01*
X0009465Y0020273D01*
X0009525Y0019897D01*
X0009593Y0019522D01*
X0009671Y0019150D01*
X0009758Y0018779D01*
X0009853Y0018411D01*
X0009958Y0018045D01*
X0010071Y0017682D01*
X0010193Y0017321D01*
X0010323Y0016964D01*
X0010463Y0016610D01*
X0010610Y0016259D01*
X0010767Y0015912D01*
X0010931Y0015569D01*
X0011104Y0015230D01*
X0011285Y0014895D01*
X0011474Y0014564D01*
X0011671Y0014239D01*
X0011875Y0013918D01*
X0012088Y0013602D01*
X0012308Y0013292D01*
X0012535Y0012986D01*
X0012770Y0012687D01*
X0013012Y0012393D01*
X0013260Y0012105D01*
X0013516Y0011823D01*
X0013779Y0011548D01*
X0014048Y0011279D01*
X0014323Y0011016D01*
X0014605Y0010760D01*
X0014893Y0010512D01*
X0015187Y0010270D01*
X0015486Y0010035D01*
X0015792Y0009808D01*
X0016102Y0009588D01*
X0016418Y0009375D01*
X0016739Y0009171D01*
X0017064Y0008974D01*
X0017395Y0008785D01*
X0017730Y0008604D01*
X0018069Y0008431D01*
X0018412Y0008267D01*
X0018759Y0008110D01*
X0019110Y0007963D01*
X0019464Y0007823D01*
X0019821Y0007693D01*
X0020182Y0007571D01*
X0020545Y0007458D01*
X0020911Y0007353D01*
X0021279Y0007258D01*
X0021650Y0007171D01*
X0022022Y0007093D01*
X0022397Y0007025D01*
X0022773Y0006965D01*
X0023150Y0006915D01*
X0023528Y0006874D01*
X0023907Y0006841D01*
X0024287Y0006818D01*
X0024667Y0006805D01*
X0025048Y0006800D01*
D11*
X0274300Y0043975D02*
X0274300Y0049625D01*
X0284300Y0049625D02*
X0284300Y0043975D01*
X0294300Y0043975D02*
X0294300Y0049625D01*
X0304300Y0049625D02*
X0304300Y0043975D01*
X0314300Y0043975D02*
X0314300Y0049625D01*
X0324300Y0049625D02*
X0324300Y0043975D01*
X0334300Y0043975D02*
X0334300Y0049625D01*
X0344300Y0049625D02*
X0344300Y0043975D01*
X0354300Y0043975D02*
X0354300Y0049625D01*
X0364300Y0049625D02*
X0364300Y0043975D01*
X0374300Y0043975D02*
X0374300Y0049625D01*
X0384300Y0049625D02*
X0384300Y0043975D01*
X0394300Y0043975D02*
X0394300Y0049625D01*
X0404300Y0049625D02*
X0404300Y0043975D01*
X0414300Y0043975D02*
X0414300Y0049625D01*
X0424300Y0049625D02*
X0424300Y0043975D01*
X0434300Y0043975D02*
X0434300Y0049625D01*
X0444300Y0049625D02*
X0444300Y0043975D01*
X0454300Y0043975D02*
X0454300Y0049625D01*
X0464300Y0049625D02*
X0464300Y0043975D01*
X0464300Y0103975D02*
X0464300Y0109625D01*
X0454300Y0109625D02*
X0454300Y0103975D01*
X0444300Y0103975D02*
X0444300Y0109625D01*
X0434300Y0109625D02*
X0434300Y0103975D01*
X0424300Y0103975D02*
X0424300Y0109625D01*
X0414300Y0109625D02*
X0414300Y0103975D01*
X0404300Y0103975D02*
X0404300Y0109625D01*
X0394300Y0109625D02*
X0394300Y0103975D01*
X0384300Y0103975D02*
X0384300Y0109625D01*
X0374300Y0109625D02*
X0374300Y0103975D01*
X0364300Y0103975D02*
X0364300Y0109625D01*
X0354300Y0109625D02*
X0354300Y0103975D01*
X0344300Y0103975D02*
X0344300Y0109625D01*
X0334300Y0109625D02*
X0334300Y0103975D01*
X0324300Y0103975D02*
X0324300Y0109625D01*
X0314300Y0109625D02*
X0314300Y0103975D01*
X0304300Y0103975D02*
X0304300Y0109625D01*
X0294300Y0109625D02*
X0294300Y0103975D01*
X0284300Y0103975D02*
X0284300Y0109625D01*
X0274300Y0109625D02*
X0274300Y0103975D01*
D12*
X0241900Y0106800D02*
X0236700Y0106800D01*
X0236700Y0096800D02*
X0241900Y0096800D01*
X0241900Y0086800D02*
X0236700Y0086800D01*
X0236700Y0076800D02*
X0241900Y0076800D01*
X0241900Y0066800D02*
X0236700Y0066800D01*
X0236700Y0056800D02*
X0241900Y0056800D01*
X0241900Y0046800D02*
X0236700Y0046800D01*
X0211900Y0046800D02*
X0206700Y0046800D01*
X0206700Y0056800D02*
X0211900Y0056800D01*
X0211900Y0066800D02*
X0206700Y0066800D01*
X0206700Y0076800D02*
X0211900Y0076800D01*
X0211900Y0086800D02*
X0206700Y0086800D01*
X0206700Y0096800D02*
X0211900Y0096800D01*
X0211900Y0106800D02*
X0206700Y0106800D01*
X0206700Y0116800D02*
X0211900Y0116800D01*
X0211900Y0126800D02*
X0206700Y0126800D01*
X0206700Y0136800D02*
X0211900Y0136800D01*
X0236700Y0136800D02*
X0241900Y0136800D01*
X0241900Y0126800D02*
X0236700Y0126800D01*
X0236700Y0116800D02*
X0241900Y0116800D01*
X0161900Y0116800D02*
X0156700Y0116800D01*
X0156700Y0106800D02*
X0161900Y0106800D01*
X0161900Y0096800D02*
X0156700Y0096800D01*
X0156700Y0086800D02*
X0161900Y0086800D01*
X0161900Y0076800D02*
X0156700Y0076800D01*
X0156700Y0066800D02*
X0161900Y0066800D01*
X0161900Y0056800D02*
X0156700Y0056800D01*
X0156700Y0046800D02*
X0161900Y0046800D01*
X0131900Y0046800D02*
X0126700Y0046800D01*
X0126700Y0056800D02*
X0131900Y0056800D01*
X0131900Y0066800D02*
X0126700Y0066800D01*
X0126700Y0076800D02*
X0131900Y0076800D01*
X0131900Y0086800D02*
X0126700Y0086800D01*
X0126700Y0096800D02*
X0131900Y0096800D01*
X0131900Y0106800D02*
X0126700Y0106800D01*
X0126700Y0116800D02*
X0131900Y0116800D01*
X0131900Y0126800D02*
X0126700Y0126800D01*
X0126700Y0136800D02*
X0131900Y0136800D01*
X0156700Y0136800D02*
X0161900Y0136800D01*
X0161900Y0126800D02*
X0156700Y0126800D01*
X0053075Y0129300D02*
X0047875Y0129300D01*
X0047875Y0139100D02*
X0053075Y0139100D01*
X0029475Y0139100D02*
X0024275Y0139100D01*
X0024275Y0129300D02*
X0029475Y0129300D01*
X0029475Y0119500D02*
X0024275Y0119500D01*
X0047875Y0119500D02*
X0053075Y0119500D01*
D13*
X0069300Y0109300D03*
X0069300Y0079300D03*
X0088050Y0079300D03*
X0098050Y0079300D03*
X0129300Y0029300D03*
X0149300Y0029300D03*
X0209300Y0029300D03*
X0229300Y0029300D03*
D14*
X0226800Y0191528D02*
X0226800Y0197072D01*
X0216800Y0197072D02*
X0216800Y0191528D01*
X0206800Y0191528D02*
X0206800Y0197072D01*
X0196800Y0197072D02*
X0196800Y0191528D01*
X0186800Y0191528D02*
X0186800Y0197072D01*
X0176800Y0197072D02*
X0176800Y0191528D01*
X0166800Y0191528D02*
X0166800Y0197072D01*
X0156800Y0197072D02*
X0156800Y0191528D01*
X0146800Y0191528D02*
X0146800Y0197072D01*
X0136800Y0197072D02*
X0136800Y0191528D01*
X0126800Y0191528D02*
X0126800Y0197072D01*
X0116800Y0197072D02*
X0116800Y0191528D01*
X0106800Y0191528D02*
X0106800Y0197072D01*
X0096800Y0197072D02*
X0096800Y0191528D01*
X0086800Y0191528D02*
X0086800Y0197072D01*
X0076800Y0197072D02*
X0076800Y0191528D01*
X0066800Y0191528D02*
X0066800Y0197072D01*
X0056800Y0197072D02*
X0056800Y0191528D01*
X0046800Y0191528D02*
X0046800Y0197072D01*
X0036800Y0197072D02*
X0036800Y0191528D01*
X0036800Y0211528D02*
X0036800Y0217072D01*
X0046800Y0217072D02*
X0046800Y0211528D01*
X0056800Y0211528D02*
X0056800Y0217072D01*
X0066800Y0217072D02*
X0066800Y0211528D01*
X0076800Y0211528D02*
X0076800Y0217072D01*
X0086800Y0217072D02*
X0086800Y0211528D01*
X0096800Y0211528D02*
X0096800Y0217072D01*
X0106800Y0217072D02*
X0106800Y0211528D01*
X0116800Y0211528D02*
X0116800Y0217072D01*
X0126800Y0217072D02*
X0126800Y0211528D01*
X0136800Y0211528D02*
X0136800Y0217072D01*
X0146800Y0217072D02*
X0146800Y0211528D01*
X0156800Y0211528D02*
X0156800Y0217072D01*
X0166800Y0217072D02*
X0166800Y0211528D01*
X0176800Y0211528D02*
X0176800Y0217072D01*
X0186800Y0217072D02*
X0186800Y0211528D01*
X0196800Y0211528D02*
X0196800Y0217072D01*
X0206800Y0217072D02*
X0206800Y0211528D01*
X0216800Y0211528D02*
X0216800Y0217072D01*
X0226800Y0217072D02*
X0226800Y0211528D01*
X0236800Y0211528D02*
X0236800Y0217072D01*
X0246800Y0217072D02*
X0246800Y0211528D01*
X0256800Y0211528D02*
X0256800Y0217072D01*
X0266800Y0217072D02*
X0266800Y0211528D01*
X0276800Y0211528D02*
X0276800Y0217072D01*
X0276800Y0197072D02*
X0276800Y0191528D01*
X0266800Y0191528D02*
X0266800Y0197072D01*
X0256800Y0197072D02*
X0256800Y0191528D01*
X0246800Y0191528D02*
X0246800Y0197072D01*
X0236800Y0197072D02*
X0236800Y0191528D01*
D15*
X0091800Y0119300D03*
X0091800Y0109300D03*
D16*
X0385599Y0205550D03*
X0433001Y0205550D03*
D17*
X0414221Y0194881D03*
X0404379Y0194881D03*
X0404379Y0187007D03*
X0414221Y0187007D03*
D18*
X0345550Y0128050D03*
X0350550Y0124300D03*
X0296800Y0153050D03*
X0275550Y0153050D03*
X0251800Y0151800D03*
X0246800Y0146800D03*
X0256800Y0134300D03*
X0261800Y0129300D03*
X0244300Y0161800D03*
X0248050Y0174300D03*
X0226800Y0176800D03*
X0196800Y0176800D03*
X0211800Y0221800D03*
X0180550Y0113050D03*
X0176800Y0106800D03*
X0226800Y0096800D03*
X0174300Y0076800D03*
X0336800Y0061800D03*
X0341800Y0066800D03*
X0346800Y0070550D03*
X0399300Y0055550D03*
X0404300Y0075550D03*
X0404300Y0081800D03*
M02*
