G75*
%MOIN*%
%OFA0B0*%
%FSLAX25Y25*%
%IPPOS*%
%LPD*%
%AMOC8*
5,1,8,0,0,1.08239X$1,22.5*
%
%ADD10C,0.00600*%
%ADD11C,0.00300*%
%ADD12C,0.00700*%
%ADD13C,0.00800*%
%ADD14C,0.00500*%
%ADD15C,0.01200*%
%ADD16C,0.01000*%
%ADD17R,0.02000X0.01500*%
%ADD18C,0.00400*%
D10*
X0025048Y0006800D02*
X0461052Y0006800D01*
X0461433Y0006805D01*
X0461813Y0006818D01*
X0462193Y0006841D01*
X0462572Y0006874D01*
X0462950Y0006915D01*
X0463327Y0006965D01*
X0463703Y0007025D01*
X0464078Y0007093D01*
X0464450Y0007171D01*
X0464821Y0007258D01*
X0465189Y0007353D01*
X0465555Y0007458D01*
X0465918Y0007571D01*
X0466279Y0007693D01*
X0466636Y0007823D01*
X0466990Y0007963D01*
X0467341Y0008110D01*
X0467688Y0008267D01*
X0468031Y0008431D01*
X0468370Y0008604D01*
X0468705Y0008785D01*
X0469036Y0008974D01*
X0469361Y0009171D01*
X0469682Y0009375D01*
X0469998Y0009588D01*
X0470308Y0009808D01*
X0470614Y0010035D01*
X0470913Y0010270D01*
X0471207Y0010512D01*
X0471495Y0010760D01*
X0471777Y0011016D01*
X0472052Y0011279D01*
X0472321Y0011548D01*
X0472584Y0011823D01*
X0472840Y0012105D01*
X0473088Y0012393D01*
X0473330Y0012687D01*
X0473565Y0012986D01*
X0473792Y0013292D01*
X0474012Y0013602D01*
X0474225Y0013918D01*
X0474429Y0014239D01*
X0474626Y0014564D01*
X0474815Y0014895D01*
X0474996Y0015230D01*
X0475169Y0015569D01*
X0475333Y0015912D01*
X0475490Y0016259D01*
X0475637Y0016610D01*
X0475777Y0016964D01*
X0475907Y0017321D01*
X0476029Y0017682D01*
X0476142Y0018045D01*
X0476247Y0018411D01*
X0476342Y0018779D01*
X0476429Y0019150D01*
X0476507Y0019522D01*
X0476575Y0019897D01*
X0476635Y0020273D01*
X0476685Y0020650D01*
X0476726Y0021028D01*
X0476759Y0021407D01*
X0476782Y0021787D01*
X0476795Y0022167D01*
X0476800Y0022548D01*
X0476800Y0231052D01*
X0476795Y0231433D01*
X0476782Y0231813D01*
X0476759Y0232193D01*
X0476726Y0232572D01*
X0476685Y0232950D01*
X0476635Y0233327D01*
X0476575Y0233703D01*
X0476507Y0234078D01*
X0476429Y0234450D01*
X0476342Y0234821D01*
X0476247Y0235189D01*
X0476142Y0235555D01*
X0476029Y0235918D01*
X0475907Y0236279D01*
X0475777Y0236636D01*
X0475637Y0236990D01*
X0475490Y0237341D01*
X0475333Y0237688D01*
X0475169Y0238031D01*
X0474996Y0238370D01*
X0474815Y0238705D01*
X0474626Y0239036D01*
X0474429Y0239361D01*
X0474225Y0239682D01*
X0474012Y0239998D01*
X0473792Y0240308D01*
X0473565Y0240614D01*
X0473330Y0240913D01*
X0473088Y0241207D01*
X0472840Y0241495D01*
X0472584Y0241777D01*
X0472321Y0242052D01*
X0472052Y0242321D01*
X0471777Y0242584D01*
X0471495Y0242840D01*
X0471207Y0243088D01*
X0470913Y0243330D01*
X0470614Y0243565D01*
X0470308Y0243792D01*
X0469998Y0244012D01*
X0469682Y0244225D01*
X0469361Y0244429D01*
X0469036Y0244626D01*
X0468705Y0244815D01*
X0468370Y0244996D01*
X0468031Y0245169D01*
X0467688Y0245333D01*
X0467341Y0245490D01*
X0466990Y0245637D01*
X0466636Y0245777D01*
X0466279Y0245907D01*
X0465918Y0246029D01*
X0465555Y0246142D01*
X0465189Y0246247D01*
X0464821Y0246342D01*
X0464450Y0246429D01*
X0464078Y0246507D01*
X0463703Y0246575D01*
X0463327Y0246635D01*
X0462950Y0246685D01*
X0462572Y0246726D01*
X0462193Y0246759D01*
X0461813Y0246782D01*
X0461433Y0246795D01*
X0461052Y0246800D01*
X0025048Y0246800D01*
X0024667Y0246795D01*
X0024287Y0246782D01*
X0023907Y0246759D01*
X0023528Y0246726D01*
X0023150Y0246685D01*
X0022773Y0246635D01*
X0022397Y0246575D01*
X0022022Y0246507D01*
X0021650Y0246429D01*
X0021279Y0246342D01*
X0020911Y0246247D01*
X0020545Y0246142D01*
X0020182Y0246029D01*
X0019821Y0245907D01*
X0019464Y0245777D01*
X0019110Y0245637D01*
X0018759Y0245490D01*
X0018412Y0245333D01*
X0018069Y0245169D01*
X0017730Y0244996D01*
X0017395Y0244815D01*
X0017064Y0244626D01*
X0016739Y0244429D01*
X0016418Y0244225D01*
X0016102Y0244012D01*
X0015792Y0243792D01*
X0015486Y0243565D01*
X0015187Y0243330D01*
X0014893Y0243088D01*
X0014605Y0242840D01*
X0014323Y0242584D01*
X0014048Y0242321D01*
X0013779Y0242052D01*
X0013516Y0241777D01*
X0013260Y0241495D01*
X0013012Y0241207D01*
X0012770Y0240913D01*
X0012535Y0240614D01*
X0012308Y0240308D01*
X0012088Y0239998D01*
X0011875Y0239682D01*
X0011671Y0239361D01*
X0011474Y0239036D01*
X0011285Y0238705D01*
X0011104Y0238370D01*
X0010931Y0238031D01*
X0010767Y0237688D01*
X0010610Y0237341D01*
X0010463Y0236990D01*
X0010323Y0236636D01*
X0010193Y0236279D01*
X0010071Y0235918D01*
X0009958Y0235555D01*
X0009853Y0235189D01*
X0009758Y0234821D01*
X0009671Y0234450D01*
X0009593Y0234078D01*
X0009525Y0233703D01*
X0009465Y0233327D01*
X0009415Y0232950D01*
X0009374Y0232572D01*
X0009341Y0232193D01*
X0009318Y0231813D01*
X0009305Y0231433D01*
X0009300Y0231052D01*
X0009300Y0022548D01*
X0009305Y0022167D01*
X0009318Y0021787D01*
X0009341Y0021407D01*
X0009374Y0021028D01*
X0009415Y0020650D01*
X0009465Y0020273D01*
X0009525Y0019897D01*
X0009593Y0019522D01*
X0009671Y0019150D01*
X0009758Y0018779D01*
X0009853Y0018411D01*
X0009958Y0018045D01*
X0010071Y0017682D01*
X0010193Y0017321D01*
X0010323Y0016964D01*
X0010463Y0016610D01*
X0010610Y0016259D01*
X0010767Y0015912D01*
X0010931Y0015569D01*
X0011104Y0015230D01*
X0011285Y0014895D01*
X0011474Y0014564D01*
X0011671Y0014239D01*
X0011875Y0013918D01*
X0012088Y0013602D01*
X0012308Y0013292D01*
X0012535Y0012986D01*
X0012770Y0012687D01*
X0013012Y0012393D01*
X0013260Y0012105D01*
X0013516Y0011823D01*
X0013779Y0011548D01*
X0014048Y0011279D01*
X0014323Y0011016D01*
X0014605Y0010760D01*
X0014893Y0010512D01*
X0015187Y0010270D01*
X0015486Y0010035D01*
X0015792Y0009808D01*
X0016102Y0009588D01*
X0016418Y0009375D01*
X0016739Y0009171D01*
X0017064Y0008974D01*
X0017395Y0008785D01*
X0017730Y0008604D01*
X0018069Y0008431D01*
X0018412Y0008267D01*
X0018759Y0008110D01*
X0019110Y0007963D01*
X0019464Y0007823D01*
X0019821Y0007693D01*
X0020182Y0007571D01*
X0020545Y0007458D01*
X0020911Y0007353D01*
X0021279Y0007258D01*
X0021650Y0007171D01*
X0022022Y0007093D01*
X0022397Y0007025D01*
X0022773Y0006965D01*
X0023150Y0006915D01*
X0023528Y0006874D01*
X0023907Y0006841D01*
X0024287Y0006818D01*
X0024667Y0006805D01*
X0025048Y0006800D01*
X0132800Y0024800D02*
X0145800Y0024800D01*
X0145887Y0024802D01*
X0145974Y0024808D01*
X0146061Y0024817D01*
X0146147Y0024830D01*
X0146233Y0024847D01*
X0146318Y0024868D01*
X0146401Y0024893D01*
X0146484Y0024921D01*
X0146565Y0024952D01*
X0146645Y0024987D01*
X0146723Y0025026D01*
X0146800Y0025068D01*
X0146875Y0025113D01*
X0146947Y0025162D01*
X0147018Y0025213D01*
X0147086Y0025268D01*
X0147151Y0025325D01*
X0147214Y0025386D01*
X0147275Y0025449D01*
X0147332Y0025514D01*
X0147387Y0025582D01*
X0147438Y0025653D01*
X0147487Y0025725D01*
X0147532Y0025800D01*
X0147574Y0025877D01*
X0147613Y0025955D01*
X0147648Y0026035D01*
X0147679Y0026116D01*
X0147707Y0026199D01*
X0147732Y0026282D01*
X0147753Y0026367D01*
X0147770Y0026453D01*
X0147783Y0026539D01*
X0147792Y0026626D01*
X0147798Y0026713D01*
X0147800Y0026800D01*
X0144300Y0029300D02*
X0140500Y0029300D01*
X0138000Y0029300D02*
X0134300Y0029300D01*
X0130800Y0026800D02*
X0130802Y0026713D01*
X0130808Y0026626D01*
X0130817Y0026539D01*
X0130830Y0026453D01*
X0130847Y0026367D01*
X0130868Y0026282D01*
X0130893Y0026199D01*
X0130921Y0026116D01*
X0130952Y0026035D01*
X0130987Y0025955D01*
X0131026Y0025877D01*
X0131068Y0025800D01*
X0131113Y0025725D01*
X0131162Y0025653D01*
X0131213Y0025582D01*
X0131268Y0025514D01*
X0131325Y0025449D01*
X0131386Y0025386D01*
X0131449Y0025325D01*
X0131514Y0025268D01*
X0131582Y0025213D01*
X0131653Y0025162D01*
X0131725Y0025113D01*
X0131800Y0025068D01*
X0131877Y0025026D01*
X0131955Y0024987D01*
X0132035Y0024952D01*
X0132116Y0024921D01*
X0132199Y0024893D01*
X0132282Y0024868D01*
X0132367Y0024847D01*
X0132453Y0024830D01*
X0132539Y0024817D01*
X0132626Y0024808D01*
X0132713Y0024802D01*
X0132800Y0024800D01*
X0130800Y0031800D02*
X0130802Y0031887D01*
X0130808Y0031974D01*
X0130817Y0032061D01*
X0130830Y0032147D01*
X0130847Y0032233D01*
X0130868Y0032318D01*
X0130893Y0032401D01*
X0130921Y0032484D01*
X0130952Y0032565D01*
X0130987Y0032645D01*
X0131026Y0032723D01*
X0131068Y0032800D01*
X0131113Y0032875D01*
X0131162Y0032947D01*
X0131213Y0033018D01*
X0131268Y0033086D01*
X0131325Y0033151D01*
X0131386Y0033214D01*
X0131449Y0033275D01*
X0131514Y0033332D01*
X0131582Y0033387D01*
X0131653Y0033438D01*
X0131725Y0033487D01*
X0131800Y0033532D01*
X0131877Y0033574D01*
X0131955Y0033613D01*
X0132035Y0033648D01*
X0132116Y0033679D01*
X0132199Y0033707D01*
X0132282Y0033732D01*
X0132367Y0033753D01*
X0132453Y0033770D01*
X0132539Y0033783D01*
X0132626Y0033792D01*
X0132713Y0033798D01*
X0132800Y0033800D01*
X0145800Y0033800D01*
X0145887Y0033798D01*
X0145974Y0033792D01*
X0146061Y0033783D01*
X0146147Y0033770D01*
X0146233Y0033753D01*
X0146318Y0033732D01*
X0146401Y0033707D01*
X0146484Y0033679D01*
X0146565Y0033648D01*
X0146645Y0033613D01*
X0146723Y0033574D01*
X0146800Y0033532D01*
X0146875Y0033487D01*
X0146947Y0033438D01*
X0147018Y0033387D01*
X0147086Y0033332D01*
X0147151Y0033275D01*
X0147214Y0033214D01*
X0147275Y0033151D01*
X0147332Y0033086D01*
X0147387Y0033018D01*
X0147438Y0032947D01*
X0147487Y0032875D01*
X0147532Y0032800D01*
X0147574Y0032723D01*
X0147613Y0032645D01*
X0147648Y0032565D01*
X0147679Y0032484D01*
X0147707Y0032401D01*
X0147732Y0032318D01*
X0147753Y0032233D01*
X0147770Y0032147D01*
X0147783Y0032061D01*
X0147792Y0031974D01*
X0147798Y0031887D01*
X0147800Y0031800D01*
X0148300Y0041800D02*
X0155800Y0041800D01*
X0155800Y0141800D01*
X0132800Y0141800D01*
X0132800Y0041800D01*
X0140300Y0041800D01*
X0140302Y0041926D01*
X0140308Y0042051D01*
X0140318Y0042176D01*
X0140332Y0042301D01*
X0140349Y0042426D01*
X0140371Y0042550D01*
X0140396Y0042673D01*
X0140426Y0042795D01*
X0140459Y0042916D01*
X0140496Y0043036D01*
X0140536Y0043155D01*
X0140581Y0043272D01*
X0140629Y0043389D01*
X0140681Y0043503D01*
X0140736Y0043616D01*
X0140795Y0043727D01*
X0140857Y0043836D01*
X0140923Y0043943D01*
X0140992Y0044048D01*
X0141064Y0044151D01*
X0141139Y0044252D01*
X0141218Y0044350D01*
X0141300Y0044445D01*
X0141384Y0044538D01*
X0141472Y0044628D01*
X0141562Y0044716D01*
X0141655Y0044800D01*
X0141750Y0044882D01*
X0141848Y0044961D01*
X0141949Y0045036D01*
X0142052Y0045108D01*
X0142157Y0045177D01*
X0142264Y0045243D01*
X0142373Y0045305D01*
X0142484Y0045364D01*
X0142597Y0045419D01*
X0142711Y0045471D01*
X0142828Y0045519D01*
X0142945Y0045564D01*
X0143064Y0045604D01*
X0143184Y0045641D01*
X0143305Y0045674D01*
X0143427Y0045704D01*
X0143550Y0045729D01*
X0143674Y0045751D01*
X0143799Y0045768D01*
X0143924Y0045782D01*
X0144049Y0045792D01*
X0144174Y0045798D01*
X0144300Y0045800D01*
X0144426Y0045798D01*
X0144551Y0045792D01*
X0144676Y0045782D01*
X0144801Y0045768D01*
X0144926Y0045751D01*
X0145050Y0045729D01*
X0145173Y0045704D01*
X0145295Y0045674D01*
X0145416Y0045641D01*
X0145536Y0045604D01*
X0145655Y0045564D01*
X0145772Y0045519D01*
X0145889Y0045471D01*
X0146003Y0045419D01*
X0146116Y0045364D01*
X0146227Y0045305D01*
X0146336Y0045243D01*
X0146443Y0045177D01*
X0146548Y0045108D01*
X0146651Y0045036D01*
X0146752Y0044961D01*
X0146850Y0044882D01*
X0146945Y0044800D01*
X0147038Y0044716D01*
X0147128Y0044628D01*
X0147216Y0044538D01*
X0147300Y0044445D01*
X0147382Y0044350D01*
X0147461Y0044252D01*
X0147536Y0044151D01*
X0147608Y0044048D01*
X0147677Y0043943D01*
X0147743Y0043836D01*
X0147805Y0043727D01*
X0147864Y0043616D01*
X0147919Y0043503D01*
X0147971Y0043389D01*
X0148019Y0043272D01*
X0148064Y0043155D01*
X0148104Y0043036D01*
X0148141Y0042916D01*
X0148174Y0042795D01*
X0148204Y0042673D01*
X0148229Y0042550D01*
X0148251Y0042426D01*
X0148268Y0042301D01*
X0148282Y0042176D01*
X0148292Y0042051D01*
X0148298Y0041926D01*
X0148300Y0041800D01*
X0212800Y0041800D02*
X0220300Y0041800D01*
X0220302Y0041926D01*
X0220308Y0042051D01*
X0220318Y0042176D01*
X0220332Y0042301D01*
X0220349Y0042426D01*
X0220371Y0042550D01*
X0220396Y0042673D01*
X0220426Y0042795D01*
X0220459Y0042916D01*
X0220496Y0043036D01*
X0220536Y0043155D01*
X0220581Y0043272D01*
X0220629Y0043389D01*
X0220681Y0043503D01*
X0220736Y0043616D01*
X0220795Y0043727D01*
X0220857Y0043836D01*
X0220923Y0043943D01*
X0220992Y0044048D01*
X0221064Y0044151D01*
X0221139Y0044252D01*
X0221218Y0044350D01*
X0221300Y0044445D01*
X0221384Y0044538D01*
X0221472Y0044628D01*
X0221562Y0044716D01*
X0221655Y0044800D01*
X0221750Y0044882D01*
X0221848Y0044961D01*
X0221949Y0045036D01*
X0222052Y0045108D01*
X0222157Y0045177D01*
X0222264Y0045243D01*
X0222373Y0045305D01*
X0222484Y0045364D01*
X0222597Y0045419D01*
X0222711Y0045471D01*
X0222828Y0045519D01*
X0222945Y0045564D01*
X0223064Y0045604D01*
X0223184Y0045641D01*
X0223305Y0045674D01*
X0223427Y0045704D01*
X0223550Y0045729D01*
X0223674Y0045751D01*
X0223799Y0045768D01*
X0223924Y0045782D01*
X0224049Y0045792D01*
X0224174Y0045798D01*
X0224300Y0045800D01*
X0224426Y0045798D01*
X0224551Y0045792D01*
X0224676Y0045782D01*
X0224801Y0045768D01*
X0224926Y0045751D01*
X0225050Y0045729D01*
X0225173Y0045704D01*
X0225295Y0045674D01*
X0225416Y0045641D01*
X0225536Y0045604D01*
X0225655Y0045564D01*
X0225772Y0045519D01*
X0225889Y0045471D01*
X0226003Y0045419D01*
X0226116Y0045364D01*
X0226227Y0045305D01*
X0226336Y0045243D01*
X0226443Y0045177D01*
X0226548Y0045108D01*
X0226651Y0045036D01*
X0226752Y0044961D01*
X0226850Y0044882D01*
X0226945Y0044800D01*
X0227038Y0044716D01*
X0227128Y0044628D01*
X0227216Y0044538D01*
X0227300Y0044445D01*
X0227382Y0044350D01*
X0227461Y0044252D01*
X0227536Y0044151D01*
X0227608Y0044048D01*
X0227677Y0043943D01*
X0227743Y0043836D01*
X0227805Y0043727D01*
X0227864Y0043616D01*
X0227919Y0043503D01*
X0227971Y0043389D01*
X0228019Y0043272D01*
X0228064Y0043155D01*
X0228104Y0043036D01*
X0228141Y0042916D01*
X0228174Y0042795D01*
X0228204Y0042673D01*
X0228229Y0042550D01*
X0228251Y0042426D01*
X0228268Y0042301D01*
X0228282Y0042176D01*
X0228292Y0042051D01*
X0228298Y0041926D01*
X0228300Y0041800D01*
X0235800Y0041800D01*
X0235800Y0141800D01*
X0212800Y0141800D01*
X0212800Y0041800D01*
X0212800Y0033800D02*
X0225800Y0033800D01*
X0225887Y0033798D01*
X0225974Y0033792D01*
X0226061Y0033783D01*
X0226147Y0033770D01*
X0226233Y0033753D01*
X0226318Y0033732D01*
X0226401Y0033707D01*
X0226484Y0033679D01*
X0226565Y0033648D01*
X0226645Y0033613D01*
X0226723Y0033574D01*
X0226800Y0033532D01*
X0226875Y0033487D01*
X0226947Y0033438D01*
X0227018Y0033387D01*
X0227086Y0033332D01*
X0227151Y0033275D01*
X0227214Y0033214D01*
X0227275Y0033151D01*
X0227332Y0033086D01*
X0227387Y0033018D01*
X0227438Y0032947D01*
X0227487Y0032875D01*
X0227532Y0032800D01*
X0227574Y0032723D01*
X0227613Y0032645D01*
X0227648Y0032565D01*
X0227679Y0032484D01*
X0227707Y0032401D01*
X0227732Y0032318D01*
X0227753Y0032233D01*
X0227770Y0032147D01*
X0227783Y0032061D01*
X0227792Y0031974D01*
X0227798Y0031887D01*
X0227800Y0031800D01*
X0224300Y0029300D02*
X0220500Y0029300D01*
X0218000Y0029300D02*
X0214300Y0029300D01*
X0210800Y0026800D02*
X0210802Y0026713D01*
X0210808Y0026626D01*
X0210817Y0026539D01*
X0210830Y0026453D01*
X0210847Y0026367D01*
X0210868Y0026282D01*
X0210893Y0026199D01*
X0210921Y0026116D01*
X0210952Y0026035D01*
X0210987Y0025955D01*
X0211026Y0025877D01*
X0211068Y0025800D01*
X0211113Y0025725D01*
X0211162Y0025653D01*
X0211213Y0025582D01*
X0211268Y0025514D01*
X0211325Y0025449D01*
X0211386Y0025386D01*
X0211449Y0025325D01*
X0211514Y0025268D01*
X0211582Y0025213D01*
X0211653Y0025162D01*
X0211725Y0025113D01*
X0211800Y0025068D01*
X0211877Y0025026D01*
X0211955Y0024987D01*
X0212035Y0024952D01*
X0212116Y0024921D01*
X0212199Y0024893D01*
X0212282Y0024868D01*
X0212367Y0024847D01*
X0212453Y0024830D01*
X0212539Y0024817D01*
X0212626Y0024808D01*
X0212713Y0024802D01*
X0212800Y0024800D01*
X0225800Y0024800D01*
X0225887Y0024802D01*
X0225974Y0024808D01*
X0226061Y0024817D01*
X0226147Y0024830D01*
X0226233Y0024847D01*
X0226318Y0024868D01*
X0226401Y0024893D01*
X0226484Y0024921D01*
X0226565Y0024952D01*
X0226645Y0024987D01*
X0226723Y0025026D01*
X0226800Y0025068D01*
X0226875Y0025113D01*
X0226947Y0025162D01*
X0227018Y0025213D01*
X0227086Y0025268D01*
X0227151Y0025325D01*
X0227214Y0025386D01*
X0227275Y0025449D01*
X0227332Y0025514D01*
X0227387Y0025582D01*
X0227438Y0025653D01*
X0227487Y0025725D01*
X0227532Y0025800D01*
X0227574Y0025877D01*
X0227613Y0025955D01*
X0227648Y0026035D01*
X0227679Y0026116D01*
X0227707Y0026199D01*
X0227732Y0026282D01*
X0227753Y0026367D01*
X0227770Y0026453D01*
X0227783Y0026539D01*
X0227792Y0026626D01*
X0227798Y0026713D01*
X0227800Y0026800D01*
X0212800Y0033800D02*
X0212713Y0033798D01*
X0212626Y0033792D01*
X0212539Y0033783D01*
X0212453Y0033770D01*
X0212367Y0033753D01*
X0212282Y0033732D01*
X0212199Y0033707D01*
X0212116Y0033679D01*
X0212035Y0033648D01*
X0211955Y0033613D01*
X0211877Y0033574D01*
X0211800Y0033532D01*
X0211725Y0033487D01*
X0211653Y0033438D01*
X0211582Y0033387D01*
X0211514Y0033332D01*
X0211449Y0033275D01*
X0211386Y0033214D01*
X0211325Y0033151D01*
X0211268Y0033086D01*
X0211213Y0033018D01*
X0211162Y0032947D01*
X0211113Y0032875D01*
X0211068Y0032800D01*
X0211026Y0032723D01*
X0210987Y0032645D01*
X0210952Y0032565D01*
X0210921Y0032484D01*
X0210893Y0032401D01*
X0210868Y0032318D01*
X0210847Y0032233D01*
X0210830Y0032147D01*
X0210817Y0032061D01*
X0210808Y0031974D01*
X0210802Y0031887D01*
X0210800Y0031800D01*
X0269300Y0050300D02*
X0269300Y0103300D01*
X0469300Y0103300D01*
X0469300Y0081300D01*
X0469174Y0081298D01*
X0469049Y0081292D01*
X0468924Y0081282D01*
X0468799Y0081268D01*
X0468674Y0081251D01*
X0468550Y0081229D01*
X0468427Y0081204D01*
X0468305Y0081174D01*
X0468184Y0081141D01*
X0468064Y0081104D01*
X0467945Y0081064D01*
X0467828Y0081019D01*
X0467711Y0080971D01*
X0467597Y0080919D01*
X0467484Y0080864D01*
X0467373Y0080805D01*
X0467264Y0080743D01*
X0467157Y0080677D01*
X0467052Y0080608D01*
X0466949Y0080536D01*
X0466848Y0080461D01*
X0466750Y0080382D01*
X0466655Y0080300D01*
X0466562Y0080216D01*
X0466472Y0080128D01*
X0466384Y0080038D01*
X0466300Y0079945D01*
X0466218Y0079850D01*
X0466139Y0079752D01*
X0466064Y0079651D01*
X0465992Y0079548D01*
X0465923Y0079443D01*
X0465857Y0079336D01*
X0465795Y0079227D01*
X0465736Y0079116D01*
X0465681Y0079003D01*
X0465629Y0078889D01*
X0465581Y0078772D01*
X0465536Y0078655D01*
X0465496Y0078536D01*
X0465459Y0078416D01*
X0465426Y0078295D01*
X0465396Y0078173D01*
X0465371Y0078050D01*
X0465349Y0077926D01*
X0465332Y0077801D01*
X0465318Y0077676D01*
X0465308Y0077551D01*
X0465302Y0077426D01*
X0465300Y0077300D01*
X0465302Y0077174D01*
X0465308Y0077049D01*
X0465318Y0076924D01*
X0465332Y0076799D01*
X0465349Y0076674D01*
X0465371Y0076550D01*
X0465396Y0076427D01*
X0465426Y0076305D01*
X0465459Y0076184D01*
X0465496Y0076064D01*
X0465536Y0075945D01*
X0465581Y0075828D01*
X0465629Y0075711D01*
X0465681Y0075597D01*
X0465736Y0075484D01*
X0465795Y0075373D01*
X0465857Y0075264D01*
X0465923Y0075157D01*
X0465992Y0075052D01*
X0466064Y0074949D01*
X0466139Y0074848D01*
X0466218Y0074750D01*
X0466300Y0074655D01*
X0466384Y0074562D01*
X0466472Y0074472D01*
X0466562Y0074384D01*
X0466655Y0074300D01*
X0466750Y0074218D01*
X0466848Y0074139D01*
X0466949Y0074064D01*
X0467052Y0073992D01*
X0467157Y0073923D01*
X0467264Y0073857D01*
X0467373Y0073795D01*
X0467484Y0073736D01*
X0467597Y0073681D01*
X0467711Y0073629D01*
X0467828Y0073581D01*
X0467945Y0073536D01*
X0468064Y0073496D01*
X0468184Y0073459D01*
X0468305Y0073426D01*
X0468427Y0073396D01*
X0468550Y0073371D01*
X0468674Y0073349D01*
X0468799Y0073332D01*
X0468924Y0073318D01*
X0469049Y0073308D01*
X0469174Y0073302D01*
X0469300Y0073300D01*
X0469300Y0050300D01*
X0269300Y0050300D01*
X0356100Y0076501D02*
X0357001Y0075600D01*
X0358802Y0075600D01*
X0359703Y0076501D01*
X0359703Y0077402D01*
X0358802Y0078302D01*
X0357001Y0078302D01*
X0356100Y0079203D01*
X0356100Y0080104D01*
X0357001Y0081005D01*
X0358802Y0081005D01*
X0359703Y0080104D01*
X0361625Y0081005D02*
X0365228Y0081005D01*
X0363426Y0081005D02*
X0363426Y0075600D01*
X0367149Y0075600D02*
X0367149Y0081005D01*
X0368951Y0079203D01*
X0370753Y0081005D01*
X0370753Y0075600D01*
X0372674Y0076501D02*
X0373575Y0075600D01*
X0375376Y0075600D01*
X0376277Y0076501D01*
X0376277Y0077402D01*
X0375376Y0078302D01*
X0374476Y0078302D01*
X0375376Y0078302D02*
X0376277Y0079203D01*
X0376277Y0080104D01*
X0375376Y0081005D01*
X0373575Y0081005D01*
X0372674Y0080104D01*
X0378199Y0080104D02*
X0379100Y0081005D01*
X0380901Y0081005D01*
X0381802Y0080104D01*
X0381802Y0079203D01*
X0378199Y0075600D01*
X0381802Y0075600D01*
X0083050Y0079300D02*
X0083053Y0079545D01*
X0083062Y0079791D01*
X0083077Y0080036D01*
X0083098Y0080280D01*
X0083125Y0080524D01*
X0083158Y0080767D01*
X0083197Y0081010D01*
X0083242Y0081251D01*
X0083293Y0081491D01*
X0083350Y0081730D01*
X0083412Y0081967D01*
X0083481Y0082203D01*
X0083555Y0082437D01*
X0083635Y0082669D01*
X0083720Y0082899D01*
X0083811Y0083127D01*
X0083908Y0083352D01*
X0084010Y0083576D01*
X0084118Y0083796D01*
X0084231Y0084014D01*
X0084349Y0084229D01*
X0084473Y0084441D01*
X0084601Y0084650D01*
X0084735Y0084856D01*
X0084874Y0085058D01*
X0085018Y0085257D01*
X0085167Y0085452D01*
X0085320Y0085644D01*
X0085478Y0085832D01*
X0085640Y0086016D01*
X0085808Y0086195D01*
X0085979Y0086371D01*
X0086155Y0086542D01*
X0086334Y0086710D01*
X0086518Y0086872D01*
X0086706Y0087030D01*
X0086898Y0087183D01*
X0087093Y0087332D01*
X0087292Y0087476D01*
X0087494Y0087615D01*
X0087700Y0087749D01*
X0087909Y0087877D01*
X0088121Y0088001D01*
X0088336Y0088119D01*
X0088554Y0088232D01*
X0088774Y0088340D01*
X0088998Y0088442D01*
X0089223Y0088539D01*
X0089451Y0088630D01*
X0089681Y0088715D01*
X0089913Y0088795D01*
X0090147Y0088869D01*
X0090383Y0088938D01*
X0090620Y0089000D01*
X0090859Y0089057D01*
X0091099Y0089108D01*
X0091340Y0089153D01*
X0091583Y0089192D01*
X0091826Y0089225D01*
X0092070Y0089252D01*
X0092314Y0089273D01*
X0092559Y0089288D01*
X0092805Y0089297D01*
X0093050Y0089300D01*
X0093295Y0089297D01*
X0093541Y0089288D01*
X0093786Y0089273D01*
X0094030Y0089252D01*
X0094274Y0089225D01*
X0094517Y0089192D01*
X0094760Y0089153D01*
X0095001Y0089108D01*
X0095241Y0089057D01*
X0095480Y0089000D01*
X0095717Y0088938D01*
X0095953Y0088869D01*
X0096187Y0088795D01*
X0096419Y0088715D01*
X0096649Y0088630D01*
X0096877Y0088539D01*
X0097102Y0088442D01*
X0097326Y0088340D01*
X0097546Y0088232D01*
X0097764Y0088119D01*
X0097979Y0088001D01*
X0098191Y0087877D01*
X0098400Y0087749D01*
X0098606Y0087615D01*
X0098808Y0087476D01*
X0099007Y0087332D01*
X0099202Y0087183D01*
X0099394Y0087030D01*
X0099582Y0086872D01*
X0099766Y0086710D01*
X0099945Y0086542D01*
X0100121Y0086371D01*
X0100292Y0086195D01*
X0100460Y0086016D01*
X0100622Y0085832D01*
X0100780Y0085644D01*
X0100933Y0085452D01*
X0101082Y0085257D01*
X0101226Y0085058D01*
X0101365Y0084856D01*
X0101499Y0084650D01*
X0101627Y0084441D01*
X0101751Y0084229D01*
X0101869Y0084014D01*
X0101982Y0083796D01*
X0102090Y0083576D01*
X0102192Y0083352D01*
X0102289Y0083127D01*
X0102380Y0082899D01*
X0102465Y0082669D01*
X0102545Y0082437D01*
X0102619Y0082203D01*
X0102688Y0081967D01*
X0102750Y0081730D01*
X0102807Y0081491D01*
X0102858Y0081251D01*
X0102903Y0081010D01*
X0102942Y0080767D01*
X0102975Y0080524D01*
X0103002Y0080280D01*
X0103023Y0080036D01*
X0103038Y0079791D01*
X0103047Y0079545D01*
X0103050Y0079300D01*
X0103047Y0079055D01*
X0103038Y0078809D01*
X0103023Y0078564D01*
X0103002Y0078320D01*
X0102975Y0078076D01*
X0102942Y0077833D01*
X0102903Y0077590D01*
X0102858Y0077349D01*
X0102807Y0077109D01*
X0102750Y0076870D01*
X0102688Y0076633D01*
X0102619Y0076397D01*
X0102545Y0076163D01*
X0102465Y0075931D01*
X0102380Y0075701D01*
X0102289Y0075473D01*
X0102192Y0075248D01*
X0102090Y0075024D01*
X0101982Y0074804D01*
X0101869Y0074586D01*
X0101751Y0074371D01*
X0101627Y0074159D01*
X0101499Y0073950D01*
X0101365Y0073744D01*
X0101226Y0073542D01*
X0101082Y0073343D01*
X0100933Y0073148D01*
X0100780Y0072956D01*
X0100622Y0072768D01*
X0100460Y0072584D01*
X0100292Y0072405D01*
X0100121Y0072229D01*
X0099945Y0072058D01*
X0099766Y0071890D01*
X0099582Y0071728D01*
X0099394Y0071570D01*
X0099202Y0071417D01*
X0099007Y0071268D01*
X0098808Y0071124D01*
X0098606Y0070985D01*
X0098400Y0070851D01*
X0098191Y0070723D01*
X0097979Y0070599D01*
X0097764Y0070481D01*
X0097546Y0070368D01*
X0097326Y0070260D01*
X0097102Y0070158D01*
X0096877Y0070061D01*
X0096649Y0069970D01*
X0096419Y0069885D01*
X0096187Y0069805D01*
X0095953Y0069731D01*
X0095717Y0069662D01*
X0095480Y0069600D01*
X0095241Y0069543D01*
X0095001Y0069492D01*
X0094760Y0069447D01*
X0094517Y0069408D01*
X0094274Y0069375D01*
X0094030Y0069348D01*
X0093786Y0069327D01*
X0093541Y0069312D01*
X0093295Y0069303D01*
X0093050Y0069300D01*
X0092805Y0069303D01*
X0092559Y0069312D01*
X0092314Y0069327D01*
X0092070Y0069348D01*
X0091826Y0069375D01*
X0091583Y0069408D01*
X0091340Y0069447D01*
X0091099Y0069492D01*
X0090859Y0069543D01*
X0090620Y0069600D01*
X0090383Y0069662D01*
X0090147Y0069731D01*
X0089913Y0069805D01*
X0089681Y0069885D01*
X0089451Y0069970D01*
X0089223Y0070061D01*
X0088998Y0070158D01*
X0088774Y0070260D01*
X0088554Y0070368D01*
X0088336Y0070481D01*
X0088121Y0070599D01*
X0087909Y0070723D01*
X0087700Y0070851D01*
X0087494Y0070985D01*
X0087292Y0071124D01*
X0087093Y0071268D01*
X0086898Y0071417D01*
X0086706Y0071570D01*
X0086518Y0071728D01*
X0086334Y0071890D01*
X0086155Y0072058D01*
X0085979Y0072229D01*
X0085808Y0072405D01*
X0085640Y0072584D01*
X0085478Y0072768D01*
X0085320Y0072956D01*
X0085167Y0073148D01*
X0085018Y0073343D01*
X0084874Y0073542D01*
X0084735Y0073744D01*
X0084601Y0073950D01*
X0084473Y0074159D01*
X0084349Y0074371D01*
X0084231Y0074586D01*
X0084118Y0074804D01*
X0084010Y0075024D01*
X0083908Y0075248D01*
X0083811Y0075473D01*
X0083720Y0075701D01*
X0083635Y0075931D01*
X0083555Y0076163D01*
X0083481Y0076397D01*
X0083412Y0076633D01*
X0083350Y0076870D01*
X0083293Y0077109D01*
X0083242Y0077349D01*
X0083197Y0077590D01*
X0083158Y0077833D01*
X0083125Y0078076D01*
X0083098Y0078320D01*
X0083077Y0078564D01*
X0083062Y0078809D01*
X0083053Y0079055D01*
X0083050Y0079300D01*
X0073300Y0085300D02*
X0073300Y0086800D01*
X0072800Y0087300D01*
X0072800Y0101300D01*
X0073300Y0101800D01*
X0073300Y0103300D01*
X0073298Y0103360D01*
X0073293Y0103421D01*
X0073284Y0103480D01*
X0073271Y0103539D01*
X0073255Y0103598D01*
X0073235Y0103655D01*
X0073212Y0103710D01*
X0073185Y0103765D01*
X0073156Y0103817D01*
X0073123Y0103868D01*
X0073087Y0103917D01*
X0073049Y0103963D01*
X0073007Y0104007D01*
X0072963Y0104049D01*
X0072917Y0104087D01*
X0072868Y0104123D01*
X0072817Y0104156D01*
X0072765Y0104185D01*
X0072710Y0104212D01*
X0072655Y0104235D01*
X0072598Y0104255D01*
X0072539Y0104271D01*
X0072480Y0104284D01*
X0072421Y0104293D01*
X0072360Y0104298D01*
X0072300Y0104300D01*
X0066300Y0104300D01*
X0066240Y0104298D01*
X0066179Y0104293D01*
X0066120Y0104284D01*
X0066061Y0104271D01*
X0066002Y0104255D01*
X0065945Y0104235D01*
X0065890Y0104212D01*
X0065835Y0104185D01*
X0065783Y0104156D01*
X0065732Y0104123D01*
X0065683Y0104087D01*
X0065637Y0104049D01*
X0065593Y0104007D01*
X0065551Y0103963D01*
X0065513Y0103917D01*
X0065477Y0103868D01*
X0065444Y0103817D01*
X0065415Y0103765D01*
X0065388Y0103710D01*
X0065365Y0103655D01*
X0065345Y0103598D01*
X0065329Y0103539D01*
X0065316Y0103480D01*
X0065307Y0103421D01*
X0065302Y0103360D01*
X0065300Y0103300D01*
X0065300Y0101800D01*
X0065800Y0101300D01*
X0065800Y0087300D01*
X0065300Y0086800D01*
X0065300Y0085300D01*
X0065302Y0085240D01*
X0065307Y0085179D01*
X0065316Y0085120D01*
X0065329Y0085061D01*
X0065345Y0085002D01*
X0065365Y0084945D01*
X0065388Y0084890D01*
X0065415Y0084835D01*
X0065444Y0084783D01*
X0065477Y0084732D01*
X0065513Y0084683D01*
X0065551Y0084637D01*
X0065593Y0084593D01*
X0065637Y0084551D01*
X0065683Y0084513D01*
X0065732Y0084477D01*
X0065783Y0084444D01*
X0065835Y0084415D01*
X0065890Y0084388D01*
X0065945Y0084365D01*
X0066002Y0084345D01*
X0066061Y0084329D01*
X0066120Y0084316D01*
X0066179Y0084307D01*
X0066240Y0084302D01*
X0066300Y0084300D01*
X0072300Y0084300D01*
X0072360Y0084302D01*
X0072421Y0084307D01*
X0072480Y0084316D01*
X0072539Y0084329D01*
X0072598Y0084345D01*
X0072655Y0084365D01*
X0072710Y0084388D01*
X0072765Y0084415D01*
X0072817Y0084444D01*
X0072868Y0084477D01*
X0072917Y0084513D01*
X0072963Y0084551D01*
X0073007Y0084593D01*
X0073049Y0084637D01*
X0073087Y0084683D01*
X0073123Y0084732D01*
X0073156Y0084783D01*
X0073185Y0084835D01*
X0073212Y0084890D01*
X0073235Y0084945D01*
X0073255Y0085002D01*
X0073271Y0085061D01*
X0073284Y0085120D01*
X0073293Y0085179D01*
X0073298Y0085240D01*
X0073300Y0085300D01*
X0048675Y0109300D02*
X0041175Y0109300D01*
X0036175Y0109300D01*
X0028675Y0109300D01*
X0028675Y0111800D01*
X0018675Y0111800D01*
X0018675Y0146800D01*
X0028675Y0146800D01*
X0028675Y0149300D01*
X0036175Y0149300D01*
X0041175Y0149300D01*
X0048675Y0149300D01*
X0048675Y0146800D01*
X0058675Y0146800D01*
X0058675Y0111800D01*
X0048675Y0111800D01*
X0048675Y0109300D01*
X0051175Y0114300D02*
X0051175Y0115800D01*
X0051175Y0114300D02*
X0026175Y0114300D01*
X0026175Y0115800D01*
X0031175Y0119300D02*
X0031175Y0136800D01*
X0046175Y0136800D01*
X0046175Y0139300D01*
X0031175Y0139300D01*
X0031175Y0136800D01*
X0038675Y0134300D02*
X0038675Y0124300D01*
X0043675Y0129300D02*
X0033675Y0129300D01*
X0046175Y0136800D02*
X0046175Y0119300D01*
X0031175Y0119300D01*
X0036175Y0111800D02*
X0036175Y0109300D01*
X0036175Y0111800D02*
X0041175Y0111800D01*
X0041175Y0109300D01*
X0080800Y0114300D02*
X0080803Y0114570D01*
X0080813Y0114840D01*
X0080830Y0115109D01*
X0080853Y0115378D01*
X0080883Y0115647D01*
X0080919Y0115914D01*
X0080962Y0116181D01*
X0081011Y0116446D01*
X0081067Y0116710D01*
X0081130Y0116973D01*
X0081198Y0117234D01*
X0081274Y0117493D01*
X0081355Y0117750D01*
X0081443Y0118006D01*
X0081537Y0118259D01*
X0081637Y0118510D01*
X0081744Y0118758D01*
X0081856Y0119003D01*
X0081975Y0119246D01*
X0082099Y0119485D01*
X0082229Y0119722D01*
X0082365Y0119955D01*
X0082507Y0120185D01*
X0082654Y0120411D01*
X0082807Y0120634D01*
X0082965Y0120853D01*
X0083128Y0121068D01*
X0083297Y0121278D01*
X0083471Y0121485D01*
X0083650Y0121687D01*
X0083833Y0121885D01*
X0084022Y0122078D01*
X0084215Y0122267D01*
X0084413Y0122450D01*
X0084615Y0122629D01*
X0084822Y0122803D01*
X0085032Y0122972D01*
X0085247Y0123135D01*
X0085466Y0123293D01*
X0085689Y0123446D01*
X0085915Y0123593D01*
X0086145Y0123735D01*
X0086378Y0123871D01*
X0086615Y0124001D01*
X0086854Y0124125D01*
X0087097Y0124244D01*
X0087342Y0124356D01*
X0087590Y0124463D01*
X0087841Y0124563D01*
X0088094Y0124657D01*
X0088350Y0124745D01*
X0088607Y0124826D01*
X0088866Y0124902D01*
X0089127Y0124970D01*
X0089390Y0125033D01*
X0089654Y0125089D01*
X0089919Y0125138D01*
X0090186Y0125181D01*
X0090453Y0125217D01*
X0090722Y0125247D01*
X0090991Y0125270D01*
X0091260Y0125287D01*
X0091530Y0125297D01*
X0091800Y0125300D01*
X0092070Y0125297D01*
X0092340Y0125287D01*
X0092609Y0125270D01*
X0092878Y0125247D01*
X0093147Y0125217D01*
X0093414Y0125181D01*
X0093681Y0125138D01*
X0093946Y0125089D01*
X0094210Y0125033D01*
X0094473Y0124970D01*
X0094734Y0124902D01*
X0094993Y0124826D01*
X0095250Y0124745D01*
X0095506Y0124657D01*
X0095759Y0124563D01*
X0096010Y0124463D01*
X0096258Y0124356D01*
X0096503Y0124244D01*
X0096746Y0124125D01*
X0096985Y0124001D01*
X0097222Y0123871D01*
X0097455Y0123735D01*
X0097685Y0123593D01*
X0097911Y0123446D01*
X0098134Y0123293D01*
X0098353Y0123135D01*
X0098568Y0122972D01*
X0098778Y0122803D01*
X0098985Y0122629D01*
X0099187Y0122450D01*
X0099385Y0122267D01*
X0099578Y0122078D01*
X0099767Y0121885D01*
X0099950Y0121687D01*
X0100129Y0121485D01*
X0100303Y0121278D01*
X0100472Y0121068D01*
X0100635Y0120853D01*
X0100793Y0120634D01*
X0100946Y0120411D01*
X0101093Y0120185D01*
X0101235Y0119955D01*
X0101371Y0119722D01*
X0101501Y0119485D01*
X0101625Y0119246D01*
X0101744Y0119003D01*
X0101856Y0118758D01*
X0101963Y0118510D01*
X0102063Y0118259D01*
X0102157Y0118006D01*
X0102245Y0117750D01*
X0102326Y0117493D01*
X0102402Y0117234D01*
X0102470Y0116973D01*
X0102533Y0116710D01*
X0102589Y0116446D01*
X0102638Y0116181D01*
X0102681Y0115914D01*
X0102717Y0115647D01*
X0102747Y0115378D01*
X0102770Y0115109D01*
X0102787Y0114840D01*
X0102797Y0114570D01*
X0102800Y0114300D01*
X0102797Y0114030D01*
X0102787Y0113760D01*
X0102770Y0113491D01*
X0102747Y0113222D01*
X0102717Y0112953D01*
X0102681Y0112686D01*
X0102638Y0112419D01*
X0102589Y0112154D01*
X0102533Y0111890D01*
X0102470Y0111627D01*
X0102402Y0111366D01*
X0102326Y0111107D01*
X0102245Y0110850D01*
X0102157Y0110594D01*
X0102063Y0110341D01*
X0101963Y0110090D01*
X0101856Y0109842D01*
X0101744Y0109597D01*
X0101625Y0109354D01*
X0101501Y0109115D01*
X0101371Y0108878D01*
X0101235Y0108645D01*
X0101093Y0108415D01*
X0100946Y0108189D01*
X0100793Y0107966D01*
X0100635Y0107747D01*
X0100472Y0107532D01*
X0100303Y0107322D01*
X0100129Y0107115D01*
X0099950Y0106913D01*
X0099767Y0106715D01*
X0099578Y0106522D01*
X0099385Y0106333D01*
X0099187Y0106150D01*
X0098985Y0105971D01*
X0098778Y0105797D01*
X0098568Y0105628D01*
X0098353Y0105465D01*
X0098134Y0105307D01*
X0097911Y0105154D01*
X0097685Y0105007D01*
X0097455Y0104865D01*
X0097222Y0104729D01*
X0096985Y0104599D01*
X0096746Y0104475D01*
X0096503Y0104356D01*
X0096258Y0104244D01*
X0096010Y0104137D01*
X0095759Y0104037D01*
X0095506Y0103943D01*
X0095250Y0103855D01*
X0094993Y0103774D01*
X0094734Y0103698D01*
X0094473Y0103630D01*
X0094210Y0103567D01*
X0093946Y0103511D01*
X0093681Y0103462D01*
X0093414Y0103419D01*
X0093147Y0103383D01*
X0092878Y0103353D01*
X0092609Y0103330D01*
X0092340Y0103313D01*
X0092070Y0103303D01*
X0091800Y0103300D01*
X0091530Y0103303D01*
X0091260Y0103313D01*
X0090991Y0103330D01*
X0090722Y0103353D01*
X0090453Y0103383D01*
X0090186Y0103419D01*
X0089919Y0103462D01*
X0089654Y0103511D01*
X0089390Y0103567D01*
X0089127Y0103630D01*
X0088866Y0103698D01*
X0088607Y0103774D01*
X0088350Y0103855D01*
X0088094Y0103943D01*
X0087841Y0104037D01*
X0087590Y0104137D01*
X0087342Y0104244D01*
X0087097Y0104356D01*
X0086854Y0104475D01*
X0086615Y0104599D01*
X0086378Y0104729D01*
X0086145Y0104865D01*
X0085915Y0105007D01*
X0085689Y0105154D01*
X0085466Y0105307D01*
X0085247Y0105465D01*
X0085032Y0105628D01*
X0084822Y0105797D01*
X0084615Y0105971D01*
X0084413Y0106150D01*
X0084215Y0106333D01*
X0084022Y0106522D01*
X0083833Y0106715D01*
X0083650Y0106913D01*
X0083471Y0107115D01*
X0083297Y0107322D01*
X0083128Y0107532D01*
X0082965Y0107747D01*
X0082807Y0107966D01*
X0082654Y0108189D01*
X0082507Y0108415D01*
X0082365Y0108645D01*
X0082229Y0108878D01*
X0082099Y0109115D01*
X0081975Y0109354D01*
X0081856Y0109597D01*
X0081744Y0109842D01*
X0081637Y0110090D01*
X0081537Y0110341D01*
X0081443Y0110594D01*
X0081355Y0110850D01*
X0081274Y0111107D01*
X0081198Y0111366D01*
X0081130Y0111627D01*
X0081067Y0111890D01*
X0081011Y0112154D01*
X0080962Y0112419D01*
X0080919Y0112686D01*
X0080883Y0112953D01*
X0080853Y0113222D01*
X0080830Y0113491D01*
X0080813Y0113760D01*
X0080803Y0114030D01*
X0080800Y0114300D01*
X0051175Y0142800D02*
X0051175Y0144300D01*
X0026175Y0144300D01*
X0026175Y0142800D01*
X0036175Y0146800D02*
X0036175Y0149300D01*
X0036175Y0146800D02*
X0041175Y0146800D01*
X0041175Y0149300D01*
D11*
X0086950Y0130869D02*
X0087484Y0131403D01*
X0088551Y0131403D01*
X0089085Y0130869D01*
X0089085Y0130335D01*
X0086950Y0128200D01*
X0089085Y0128200D01*
X0090173Y0128200D02*
X0092308Y0130335D01*
X0092308Y0130869D01*
X0091774Y0131403D01*
X0090707Y0131403D01*
X0090173Y0130869D01*
X0090173Y0128200D02*
X0092308Y0128200D01*
X0093395Y0128734D02*
X0093929Y0128200D01*
X0095531Y0128200D01*
X0095531Y0130335D01*
X0096618Y0129801D02*
X0097686Y0129801D01*
X0097152Y0130869D02*
X0097686Y0131403D01*
X0097152Y0130869D02*
X0097152Y0128200D01*
X0093395Y0128734D02*
X0093395Y0130335D01*
X0070516Y0097881D02*
X0071050Y0097347D01*
X0071050Y0096279D01*
X0070516Y0095745D01*
X0068381Y0097881D01*
X0070516Y0097881D01*
X0068381Y0097881D02*
X0067847Y0097347D01*
X0067847Y0096279D01*
X0068381Y0095745D01*
X0070516Y0095745D01*
X0071050Y0094658D02*
X0071050Y0092523D01*
X0068915Y0094658D01*
X0068381Y0094658D01*
X0067847Y0094124D01*
X0067847Y0093057D01*
X0068381Y0092523D01*
X0068381Y0091435D02*
X0067847Y0090901D01*
X0067847Y0089834D01*
X0068381Y0089300D01*
X0068381Y0091435D02*
X0068915Y0091435D01*
X0071050Y0089300D01*
X0071050Y0091435D01*
X0053441Y0093450D02*
X0053441Y0095051D01*
X0052908Y0095585D01*
X0051840Y0095585D01*
X0051306Y0095051D01*
X0050219Y0095585D02*
X0048617Y0095585D01*
X0048083Y0095051D01*
X0048083Y0093984D01*
X0048617Y0093450D01*
X0050219Y0093450D01*
X0051306Y0093450D02*
X0051306Y0096653D01*
X0047003Y0095585D02*
X0045935Y0095585D01*
X0046469Y0096119D02*
X0046469Y0093984D01*
X0047003Y0093450D01*
X0044847Y0093450D02*
X0043246Y0093450D01*
X0042712Y0093984D01*
X0043246Y0094518D01*
X0044847Y0094518D01*
X0044847Y0095051D02*
X0044847Y0093450D01*
X0044847Y0095051D02*
X0044314Y0095585D01*
X0043246Y0095585D01*
X0041098Y0096653D02*
X0041098Y0093450D01*
X0041631Y0093450D02*
X0040564Y0093450D01*
X0040564Y0096653D02*
X0041098Y0096653D01*
X0036253Y0096653D02*
X0034118Y0096653D01*
X0035186Y0096653D02*
X0035186Y0093450D01*
X0033031Y0093984D02*
X0032497Y0093450D01*
X0031429Y0093450D01*
X0030895Y0093984D01*
X0031429Y0095051D02*
X0032497Y0095051D01*
X0033031Y0094518D01*
X0033031Y0093984D01*
X0031429Y0095051D02*
X0030895Y0095585D01*
X0030895Y0096119D01*
X0031429Y0096653D01*
X0032497Y0096653D01*
X0033031Y0096119D01*
X0029808Y0096119D02*
X0029808Y0095051D01*
X0029274Y0094518D01*
X0027673Y0094518D01*
X0027673Y0093450D02*
X0027673Y0096653D01*
X0029274Y0096653D01*
X0029808Y0096119D01*
X0026585Y0096119D02*
X0026051Y0096653D01*
X0024984Y0096653D01*
X0024450Y0096119D01*
X0024450Y0095585D01*
X0024984Y0095051D01*
X0026051Y0095051D01*
X0026585Y0094518D01*
X0026585Y0093984D01*
X0026051Y0093450D01*
X0024984Y0093450D01*
X0024450Y0093984D01*
X0024984Y0091403D02*
X0026051Y0091403D01*
X0026585Y0090869D01*
X0026585Y0090335D01*
X0026051Y0089801D01*
X0024984Y0089801D01*
X0024450Y0090335D01*
X0024450Y0090869D01*
X0024984Y0091403D01*
X0024984Y0089801D02*
X0024450Y0089268D01*
X0024450Y0088734D01*
X0024984Y0088200D01*
X0026051Y0088200D01*
X0026585Y0088734D01*
X0026585Y0089268D01*
X0026051Y0089801D01*
X0027673Y0090335D02*
X0029808Y0088200D01*
X0030895Y0088734D02*
X0030895Y0089268D01*
X0031429Y0089801D01*
X0032497Y0089801D01*
X0033031Y0089268D01*
X0033031Y0088734D01*
X0032497Y0088200D01*
X0031429Y0088200D01*
X0030895Y0088734D01*
X0031429Y0089801D02*
X0030895Y0090335D01*
X0030895Y0090869D01*
X0031429Y0091403D01*
X0032497Y0091403D01*
X0033031Y0090869D01*
X0033031Y0090335D01*
X0032497Y0089801D01*
X0034118Y0090335D02*
X0034652Y0090335D01*
X0035186Y0089801D01*
X0035720Y0090335D01*
X0036253Y0089801D01*
X0036253Y0088200D01*
X0035186Y0088200D02*
X0035186Y0089801D01*
X0034118Y0090335D02*
X0034118Y0088200D01*
X0037341Y0088200D02*
X0037341Y0090335D01*
X0037875Y0090335D01*
X0038409Y0089801D01*
X0038942Y0090335D01*
X0039476Y0089801D01*
X0039476Y0088200D01*
X0038409Y0088200D02*
X0038409Y0089801D01*
X0029808Y0090335D02*
X0027673Y0088200D01*
X0085700Y0055051D02*
X0085700Y0053984D01*
X0086234Y0053450D01*
X0087835Y0053450D01*
X0087835Y0052916D02*
X0087835Y0055585D01*
X0086234Y0055585D01*
X0085700Y0055051D01*
X0086768Y0052382D02*
X0087301Y0052382D01*
X0087835Y0052916D01*
X0088923Y0053450D02*
X0088923Y0055585D01*
X0089990Y0055585D02*
X0090524Y0055585D01*
X0089990Y0055585D02*
X0088923Y0054518D01*
X0091608Y0054518D02*
X0093744Y0054518D01*
X0093744Y0055051D01*
X0093210Y0055585D01*
X0092142Y0055585D01*
X0091608Y0055051D01*
X0091608Y0053984D01*
X0092142Y0053450D01*
X0093210Y0053450D01*
X0094831Y0053984D02*
X0094831Y0055051D01*
X0095365Y0055585D01*
X0096432Y0055585D01*
X0096966Y0055051D01*
X0096966Y0054518D01*
X0094831Y0054518D01*
X0094831Y0053984D02*
X0095365Y0053450D01*
X0096432Y0053450D01*
X0098054Y0053450D02*
X0098054Y0055585D01*
X0099655Y0055585D01*
X0100189Y0055051D01*
X0100189Y0053450D01*
X0094281Y0049801D02*
X0094281Y0048200D01*
X0093213Y0048200D02*
X0093213Y0049801D01*
X0093747Y0050335D01*
X0094281Y0049801D01*
X0093213Y0049801D02*
X0092679Y0050335D01*
X0092145Y0050335D01*
X0092145Y0048200D01*
X0091058Y0048200D02*
X0091058Y0049801D01*
X0090524Y0050335D01*
X0089990Y0049801D01*
X0089990Y0048200D01*
X0088923Y0048200D02*
X0088923Y0050335D01*
X0089457Y0050335D01*
X0089990Y0049801D01*
X0087835Y0049801D02*
X0087835Y0048734D01*
X0087301Y0048200D01*
X0086234Y0048200D01*
X0085700Y0048734D01*
X0085700Y0049801D02*
X0086768Y0050335D01*
X0087301Y0050335D01*
X0087835Y0049801D01*
X0087835Y0051403D02*
X0085700Y0051403D01*
X0085700Y0049801D01*
X0079004Y0026903D02*
X0079621Y0026286D01*
X0079621Y0023817D01*
X0079004Y0023200D01*
X0077770Y0023200D01*
X0077153Y0023817D01*
X0077153Y0026286D01*
X0077770Y0026903D01*
X0079004Y0026903D01*
X0075938Y0026286D02*
X0075321Y0026903D01*
X0074087Y0026903D01*
X0073469Y0026286D01*
X0073469Y0023817D01*
X0074087Y0023200D01*
X0075321Y0023200D01*
X0075938Y0023817D01*
X0075938Y0025052D01*
X0074704Y0025052D01*
X0072248Y0026903D02*
X0071014Y0026903D01*
X0071631Y0026903D02*
X0071631Y0023200D01*
X0071014Y0023200D02*
X0072248Y0023200D01*
X0069800Y0023200D02*
X0069800Y0026903D01*
X0069800Y0025052D02*
X0067331Y0025052D01*
X0066116Y0026286D02*
X0065499Y0026903D01*
X0064265Y0026903D01*
X0063648Y0026286D01*
X0063648Y0023817D01*
X0064265Y0023200D01*
X0065499Y0023200D01*
X0066116Y0023817D01*
X0067331Y0023200D02*
X0067331Y0026903D01*
X0062427Y0026903D02*
X0061192Y0026903D01*
X0061809Y0026903D02*
X0061809Y0023200D01*
X0061192Y0023200D02*
X0062427Y0023200D01*
X0056295Y0023817D02*
X0056295Y0024434D01*
X0055678Y0025052D01*
X0053826Y0025052D01*
X0053826Y0023817D01*
X0054443Y0023200D01*
X0055678Y0023200D01*
X0056295Y0023817D01*
X0055060Y0026286D02*
X0053826Y0025052D01*
X0055060Y0026286D02*
X0056295Y0026903D01*
X0051377Y0026903D02*
X0050143Y0025669D01*
X0048928Y0026286D02*
X0048928Y0023817D01*
X0048311Y0023200D01*
X0047077Y0023200D01*
X0046460Y0023817D01*
X0048928Y0026286D01*
X0048311Y0026903D01*
X0047077Y0026903D01*
X0046460Y0026286D01*
X0046460Y0023817D01*
X0045245Y0023200D02*
X0042777Y0023200D01*
X0045245Y0025669D01*
X0045245Y0026286D01*
X0044628Y0026903D01*
X0043394Y0026903D01*
X0042777Y0026286D01*
X0041556Y0025669D02*
X0040321Y0026903D01*
X0039107Y0025669D02*
X0037255Y0025669D01*
X0036638Y0025052D01*
X0036638Y0023817D01*
X0037255Y0023200D01*
X0039107Y0023200D01*
X0040321Y0023200D02*
X0041556Y0024434D01*
X0041556Y0025669D01*
X0035417Y0026903D02*
X0034183Y0025669D01*
X0034183Y0024434D01*
X0035417Y0023200D01*
X0029285Y0023200D02*
X0029285Y0025052D01*
X0028668Y0025669D01*
X0027433Y0025669D01*
X0027433Y0024434D02*
X0029285Y0024434D01*
X0029285Y0023200D02*
X0027433Y0023200D01*
X0026816Y0023817D01*
X0027433Y0024434D01*
X0025602Y0023817D02*
X0024985Y0023200D01*
X0023750Y0023200D01*
X0023133Y0023817D01*
X0025602Y0026286D01*
X0025602Y0023817D01*
X0023133Y0023817D02*
X0023133Y0026286D01*
X0023750Y0026903D01*
X0024985Y0026903D01*
X0025602Y0026286D01*
X0021919Y0025669D02*
X0020684Y0023200D01*
X0019450Y0025669D01*
X0050143Y0023200D02*
X0052612Y0023200D01*
X0051377Y0023200D02*
X0051377Y0026903D01*
X0133200Y0014619D02*
X0133200Y0012484D01*
X0135335Y0014619D01*
X0135335Y0012484D01*
X0134801Y0011950D01*
X0133734Y0011950D01*
X0133200Y0012484D01*
X0133200Y0014619D02*
X0133734Y0015153D01*
X0134801Y0015153D01*
X0135335Y0014619D01*
X0136423Y0012484D02*
X0136957Y0012484D01*
X0136957Y0011950D01*
X0136423Y0011950D01*
X0136423Y0012484D01*
X0138034Y0011950D02*
X0140169Y0011950D01*
X0139102Y0011950D02*
X0139102Y0015153D01*
X0138034Y0014085D01*
X0141257Y0014085D02*
X0141257Y0012484D01*
X0141791Y0011950D01*
X0143392Y0011950D01*
X0143392Y0014085D01*
X0144480Y0013551D02*
X0145547Y0013551D01*
X0145013Y0014619D02*
X0145547Y0015153D01*
X0145013Y0014619D02*
X0145013Y0011950D01*
X0213200Y0012484D02*
X0215335Y0014619D01*
X0215335Y0012484D01*
X0214801Y0011950D01*
X0213734Y0011950D01*
X0213200Y0012484D01*
X0213200Y0014619D01*
X0213734Y0015153D01*
X0214801Y0015153D01*
X0215335Y0014619D01*
X0216423Y0012484D02*
X0216957Y0012484D01*
X0216957Y0011950D01*
X0216423Y0011950D01*
X0216423Y0012484D01*
X0218034Y0011950D02*
X0220169Y0011950D01*
X0219102Y0011950D02*
X0219102Y0015153D01*
X0218034Y0014085D01*
X0221257Y0014085D02*
X0221257Y0012484D01*
X0221791Y0011950D01*
X0223392Y0011950D01*
X0223392Y0014085D01*
X0224480Y0013551D02*
X0225547Y0013551D01*
X0225013Y0014619D02*
X0225547Y0015153D01*
X0225013Y0014619D02*
X0225013Y0011950D01*
X0456697Y0063184D02*
X0456697Y0064419D01*
X0456697Y0063802D02*
X0459783Y0063802D01*
X0460400Y0063184D01*
X0460400Y0062567D01*
X0459783Y0061950D01*
X0456697Y0065633D02*
X0456697Y0068102D01*
X0456697Y0066868D02*
X0460400Y0066868D01*
X0460400Y0069316D02*
X0457931Y0069316D01*
X0456697Y0070551D01*
X0457931Y0071785D01*
X0460400Y0071785D01*
X0459783Y0072999D02*
X0457314Y0072999D01*
X0456697Y0073617D01*
X0456697Y0074851D01*
X0457314Y0075468D01*
X0458548Y0075468D02*
X0458548Y0074234D01*
X0458548Y0075468D02*
X0459783Y0075468D01*
X0460400Y0074851D01*
X0460400Y0073617D01*
X0459783Y0072999D01*
X0458548Y0071785D02*
X0458548Y0069316D01*
X0458548Y0080366D02*
X0457931Y0080983D01*
X0457931Y0082217D01*
X0458548Y0082834D01*
X0460400Y0082834D01*
X0459783Y0084049D02*
X0458548Y0084049D01*
X0457931Y0084666D01*
X0457931Y0085900D01*
X0458548Y0086518D01*
X0459166Y0086518D01*
X0459166Y0084049D01*
X0459783Y0084049D02*
X0460400Y0084666D01*
X0460400Y0085900D01*
X0460400Y0087732D02*
X0457931Y0087732D01*
X0457931Y0088966D02*
X0459166Y0087732D01*
X0457931Y0088966D02*
X0457931Y0089584D01*
X0458548Y0090801D02*
X0457931Y0091418D01*
X0457931Y0092653D01*
X0458548Y0093270D01*
X0459166Y0093270D01*
X0459166Y0090801D01*
X0459783Y0090801D02*
X0458548Y0090801D01*
X0459783Y0090801D02*
X0460400Y0091418D01*
X0460400Y0092653D01*
X0460400Y0080366D02*
X0456697Y0080366D01*
D12*
X0104941Y0174650D02*
X0101404Y0174650D01*
X0101404Y0179955D01*
X0104941Y0179955D01*
X0103173Y0177302D02*
X0101404Y0177302D01*
X0099416Y0177302D02*
X0097648Y0177302D01*
X0099416Y0177302D02*
X0099416Y0175534D01*
X0098532Y0174650D01*
X0096764Y0174650D01*
X0095880Y0175534D01*
X0095880Y0179070D01*
X0096764Y0179955D01*
X0098532Y0179955D01*
X0099416Y0179070D01*
X0093891Y0179070D02*
X0093007Y0179955D01*
X0090355Y0179955D01*
X0090355Y0174650D01*
X0093007Y0174650D01*
X0093891Y0175534D01*
X0093891Y0179070D01*
X0088440Y0179955D02*
X0086672Y0179955D01*
X0087556Y0179955D02*
X0087556Y0174650D01*
X0086672Y0174650D02*
X0088440Y0174650D01*
X0084684Y0174650D02*
X0082915Y0176418D01*
X0083799Y0176418D02*
X0081147Y0176418D01*
X0081147Y0174650D02*
X0081147Y0179955D01*
X0083799Y0179955D01*
X0084684Y0179070D01*
X0084684Y0177302D01*
X0083799Y0176418D01*
X0079159Y0179955D02*
X0075622Y0179955D01*
X0077391Y0179955D02*
X0077391Y0174650D01*
X0073634Y0174650D02*
X0071866Y0176418D01*
X0072750Y0176418D02*
X0070098Y0176418D01*
X0070098Y0174650D02*
X0070098Y0179955D01*
X0072750Y0179955D01*
X0073634Y0179070D01*
X0073634Y0177302D01*
X0072750Y0176418D01*
X0068109Y0177302D02*
X0064573Y0177302D01*
X0064573Y0178186D02*
X0066341Y0179955D01*
X0068109Y0178186D01*
X0068109Y0174650D01*
X0064573Y0174650D02*
X0064573Y0178186D01*
X0062585Y0179070D02*
X0061701Y0179955D01*
X0059932Y0179955D01*
X0059048Y0179070D01*
X0059048Y0175534D01*
X0059932Y0174650D01*
X0061701Y0174650D01*
X0062585Y0175534D01*
X0051535Y0179955D02*
X0047999Y0179955D01*
X0049767Y0179955D02*
X0049767Y0174650D01*
X0046011Y0174650D02*
X0046011Y0179955D01*
X0042474Y0179955D02*
X0046011Y0174650D01*
X0042474Y0174650D02*
X0042474Y0179955D01*
X0040486Y0179070D02*
X0039602Y0179955D01*
X0037834Y0179955D01*
X0036949Y0179070D01*
X0036949Y0175534D01*
X0037834Y0174650D01*
X0039602Y0174650D01*
X0040486Y0175534D01*
X0040486Y0179070D01*
X0034961Y0179070D02*
X0034961Y0177302D01*
X0034077Y0176418D01*
X0031425Y0176418D01*
X0033193Y0176418D02*
X0034961Y0174650D01*
X0031425Y0174650D02*
X0031425Y0179955D01*
X0034077Y0179955D01*
X0034961Y0179070D01*
X0029436Y0179955D02*
X0025900Y0179955D01*
X0025900Y0174650D01*
X0025900Y0177302D02*
X0027668Y0177302D01*
D13*
X0023050Y0178050D02*
X0020550Y0178050D01*
X0020550Y0173050D01*
X0018050Y0173050D01*
X0018050Y0178050D01*
X0015550Y0178050D01*
X0019300Y0181800D01*
X0023050Y0178050D01*
X0103050Y0086800D02*
X0103050Y0071800D01*
X0293050Y0173050D02*
X0293050Y0178050D01*
X0290550Y0178050D01*
X0294300Y0181800D01*
X0298050Y0178050D01*
X0295550Y0178050D01*
X0295550Y0173050D01*
X0293050Y0173050D01*
D14*
X0225883Y0103069D02*
X0226800Y0102151D01*
X0226800Y0100316D01*
X0225883Y0099399D01*
X0224048Y0101234D02*
X0224048Y0102151D01*
X0224965Y0103069D01*
X0225883Y0103069D01*
X0224048Y0102151D02*
X0223130Y0103069D01*
X0222213Y0103069D01*
X0221295Y0102151D01*
X0221295Y0100316D01*
X0222213Y0099399D01*
X0222213Y0097544D02*
X0225883Y0093874D01*
X0226800Y0093874D01*
X0226800Y0092019D02*
X0226800Y0088349D01*
X0223130Y0092019D01*
X0222213Y0092019D01*
X0221295Y0091102D01*
X0221295Y0089267D01*
X0222213Y0088349D01*
X0224048Y0086495D02*
X0224048Y0082825D01*
X0221295Y0085577D01*
X0226800Y0085577D01*
X0222213Y0080970D02*
X0225883Y0077300D01*
X0226800Y0077300D01*
X0221295Y0077300D02*
X0221295Y0080970D01*
X0222213Y0080970D01*
X0221295Y0093874D02*
X0221295Y0097544D01*
X0222213Y0097544D01*
X0146800Y0100316D02*
X0145883Y0099399D01*
X0146800Y0100316D02*
X0146800Y0102151D01*
X0145883Y0103069D01*
X0144965Y0103069D01*
X0144048Y0102151D01*
X0144048Y0101234D01*
X0144048Y0102151D02*
X0143130Y0103069D01*
X0142213Y0103069D01*
X0141295Y0102151D01*
X0141295Y0100316D01*
X0142213Y0099399D01*
X0142213Y0097544D02*
X0145883Y0093874D01*
X0146800Y0093874D01*
X0146800Y0092019D02*
X0146800Y0088349D01*
X0143130Y0092019D01*
X0142213Y0092019D01*
X0141295Y0091102D01*
X0141295Y0089267D01*
X0142213Y0088349D01*
X0144048Y0086495D02*
X0144048Y0082825D01*
X0141295Y0085577D01*
X0146800Y0085577D01*
X0142213Y0080970D02*
X0145883Y0077300D01*
X0146800Y0077300D01*
X0141295Y0077300D02*
X0141295Y0080970D01*
X0142213Y0080970D01*
X0141295Y0093874D02*
X0141295Y0097544D01*
X0142213Y0097544D01*
X0102425Y0114300D02*
X0102412Y0115730D01*
X0102196Y0117143D01*
X0101781Y0118511D01*
X0101175Y0119806D01*
X0100392Y0121001D01*
X0099446Y0122073D01*
X0098357Y0123000D01*
X0097148Y0123762D01*
X0095842Y0124344D01*
X0094467Y0124734D01*
X0093050Y0124925D01*
X0090550Y0124925D01*
X0088993Y0124704D01*
X0087490Y0124242D01*
X0086078Y0123551D01*
X0084792Y0122648D01*
X0083662Y0121554D01*
X0082717Y0120297D01*
X0081981Y0118908D01*
X0081471Y0117421D01*
X0081200Y0115872D01*
X0081175Y0114300D01*
X0102425Y0114300D01*
X0102422Y0114657D02*
X0081181Y0114657D01*
X0081189Y0115155D02*
X0102417Y0115155D01*
X0102413Y0115654D02*
X0081197Y0115654D01*
X0081249Y0116153D02*
X0102347Y0116153D01*
X0102271Y0116651D02*
X0081337Y0116651D01*
X0081424Y0117150D02*
X0102194Y0117150D01*
X0102043Y0117648D02*
X0081549Y0117648D01*
X0081720Y0118147D02*
X0101891Y0118147D01*
X0101718Y0118645D02*
X0081891Y0118645D01*
X0082106Y0119144D02*
X0101485Y0119144D01*
X0101252Y0119642D02*
X0082370Y0119642D01*
X0082634Y0120141D02*
X0100956Y0120141D01*
X0100629Y0120639D02*
X0082974Y0120639D01*
X0083349Y0121138D02*
X0100271Y0121138D01*
X0099832Y0121636D02*
X0083747Y0121636D01*
X0084262Y0122135D02*
X0099374Y0122135D01*
X0098788Y0122633D02*
X0084776Y0122633D01*
X0085481Y0123132D02*
X0098148Y0123132D01*
X0097356Y0123630D02*
X0086239Y0123630D01*
X0087258Y0124129D02*
X0096325Y0124129D01*
X0094844Y0124627D02*
X0088743Y0124627D01*
D15*
X0138000Y0032300D02*
X0138000Y0029300D01*
X0138000Y0026300D01*
X0140500Y0026300D02*
X0140500Y0029300D01*
X0140500Y0032300D01*
X0218000Y0032300D02*
X0218000Y0029300D01*
X0218000Y0026300D01*
X0220500Y0026300D02*
X0220500Y0029300D01*
X0220500Y0032300D01*
D16*
X0103050Y0071800D02*
X0102863Y0071557D01*
X0102671Y0071319D01*
X0102472Y0071086D01*
X0102268Y0070858D01*
X0102059Y0070635D01*
X0101844Y0070417D01*
X0101624Y0070204D01*
X0101399Y0069997D01*
X0101168Y0069795D01*
X0100933Y0069599D01*
X0100693Y0069409D01*
X0100449Y0069225D01*
X0100200Y0069047D01*
X0099946Y0068875D01*
X0099689Y0068709D01*
X0099428Y0068549D01*
X0099163Y0068396D01*
X0098894Y0068250D01*
X0098621Y0068110D01*
X0098346Y0067977D01*
X0098067Y0067851D01*
X0097785Y0067731D01*
X0097500Y0067619D01*
X0097213Y0067514D01*
X0096923Y0067415D01*
X0096631Y0067324D01*
X0096336Y0067240D01*
X0096040Y0067163D01*
X0095742Y0067093D01*
X0095442Y0067031D01*
X0095141Y0066976D01*
X0094839Y0066929D01*
X0094535Y0066889D01*
X0094231Y0066856D01*
X0093926Y0066831D01*
X0093620Y0066813D01*
X0093314Y0066803D01*
X0093008Y0066800D01*
X0092702Y0066805D01*
X0092396Y0066817D01*
X0092090Y0066837D01*
X0091786Y0066864D01*
X0091481Y0066899D01*
X0091178Y0066941D01*
X0090876Y0066990D01*
X0090575Y0067047D01*
X0090276Y0067112D01*
X0089978Y0067183D01*
X0089683Y0067262D01*
X0089389Y0067348D01*
X0089097Y0067441D01*
X0088808Y0067542D01*
X0088521Y0067649D01*
X0088237Y0067764D01*
X0087956Y0067885D01*
X0087678Y0068013D01*
X0087403Y0068148D01*
X0087132Y0068290D01*
X0086864Y0068438D01*
X0086600Y0068593D01*
X0086340Y0068754D01*
X0086084Y0068921D01*
X0085831Y0069095D01*
X0085584Y0069275D01*
X0085340Y0069461D01*
X0085102Y0069652D01*
X0084868Y0069850D01*
X0084639Y0070053D01*
X0084415Y0070262D01*
X0084196Y0070476D01*
X0083983Y0070696D01*
X0083775Y0070920D01*
X0083572Y0071150D01*
X0083376Y0071384D01*
X0083185Y0071624D01*
X0083000Y0071867D01*
X0082821Y0072116D01*
X0082648Y0072368D01*
X0082481Y0072625D01*
X0082321Y0072886D01*
X0082167Y0073151D01*
X0082020Y0073419D01*
X0081879Y0073691D01*
X0081745Y0073966D01*
X0081618Y0074245D01*
X0081497Y0074526D01*
X0081384Y0074811D01*
X0081278Y0075098D01*
X0081178Y0075387D01*
X0081086Y0075679D01*
X0081001Y0075973D01*
X0080923Y0076269D01*
X0080852Y0076567D01*
X0080789Y0076867D01*
X0080733Y0077168D01*
X0080685Y0077470D01*
X0080644Y0077773D01*
X0080610Y0078077D01*
X0080584Y0078382D01*
X0080565Y0078688D01*
X0080554Y0078994D01*
X0080550Y0079300D01*
X0080554Y0079606D01*
X0080565Y0079912D01*
X0080584Y0080218D01*
X0080610Y0080523D01*
X0080644Y0080827D01*
X0080685Y0081130D01*
X0080733Y0081432D01*
X0080789Y0081733D01*
X0080852Y0082033D01*
X0080923Y0082331D01*
X0081001Y0082627D01*
X0081086Y0082921D01*
X0081178Y0083213D01*
X0081278Y0083502D01*
X0081384Y0083789D01*
X0081497Y0084074D01*
X0081618Y0084355D01*
X0081745Y0084634D01*
X0081879Y0084909D01*
X0082020Y0085181D01*
X0082167Y0085449D01*
X0082321Y0085714D01*
X0082481Y0085975D01*
X0082648Y0086232D01*
X0082821Y0086484D01*
X0083000Y0086733D01*
X0083185Y0086976D01*
X0083376Y0087216D01*
X0083572Y0087450D01*
X0083775Y0087680D01*
X0083983Y0087904D01*
X0084196Y0088124D01*
X0084415Y0088338D01*
X0084639Y0088547D01*
X0084868Y0088750D01*
X0085102Y0088948D01*
X0085340Y0089139D01*
X0085584Y0089325D01*
X0085831Y0089505D01*
X0086084Y0089679D01*
X0086340Y0089846D01*
X0086600Y0090007D01*
X0086864Y0090162D01*
X0087132Y0090310D01*
X0087403Y0090452D01*
X0087678Y0090587D01*
X0087956Y0090715D01*
X0088237Y0090836D01*
X0088521Y0090951D01*
X0088808Y0091058D01*
X0089097Y0091159D01*
X0089389Y0091252D01*
X0089683Y0091338D01*
X0089978Y0091417D01*
X0090276Y0091488D01*
X0090575Y0091553D01*
X0090876Y0091610D01*
X0091178Y0091659D01*
X0091481Y0091701D01*
X0091786Y0091736D01*
X0092090Y0091763D01*
X0092396Y0091783D01*
X0092702Y0091795D01*
X0093008Y0091800D01*
X0093314Y0091797D01*
X0093620Y0091787D01*
X0093926Y0091769D01*
X0094231Y0091744D01*
X0094535Y0091711D01*
X0094839Y0091671D01*
X0095141Y0091624D01*
X0095442Y0091569D01*
X0095742Y0091507D01*
X0096040Y0091437D01*
X0096336Y0091360D01*
X0096631Y0091276D01*
X0096923Y0091185D01*
X0097213Y0091086D01*
X0097500Y0090981D01*
X0097785Y0090869D01*
X0098067Y0090749D01*
X0098346Y0090623D01*
X0098621Y0090490D01*
X0098894Y0090350D01*
X0099163Y0090204D01*
X0099428Y0090051D01*
X0099689Y0089891D01*
X0099946Y0089725D01*
X0100200Y0089553D01*
X0100449Y0089375D01*
X0100693Y0089191D01*
X0100933Y0089001D01*
X0101168Y0088805D01*
X0101399Y0088603D01*
X0101624Y0088396D01*
X0101844Y0088183D01*
X0102059Y0087965D01*
X0102268Y0087742D01*
X0102472Y0087514D01*
X0102671Y0087281D01*
X0102863Y0087043D01*
X0103050Y0086800D01*
X0019300Y0185800D02*
X0294300Y0185800D01*
X0294300Y0222800D01*
X0019300Y0222800D01*
X0019300Y0185800D01*
X0026800Y0199300D02*
X0026800Y0209300D01*
X0286800Y0209300D01*
X0286800Y0199300D01*
X0026800Y0199300D01*
D17*
X0069300Y0105050D03*
X0069300Y0083550D03*
D18*
X0385826Y0181288D02*
X0385826Y0198562D01*
X0385826Y0212784D02*
X0385826Y0245806D01*
X0432774Y0245806D01*
X0432774Y0212784D01*
X0432774Y0198562D02*
X0432774Y0181288D01*
X0385826Y0181288D01*
M02*
